{"glyphs":{"0":{"ha":839,"x_min":0,"x_max":0,"o":"m 0 486 b 397 979 0 821 151 979 b 797 486 646 979 797 821 b 397 -7 797 151 646 -7 b 0 486 151 -7 0 151 m 299 489 b 399 215 299 288 310 215 b 499 489 488 215 499 288 b 400 757 499 686 489 757 b 299 489 311 757 299 686 "},"1":{"ha":469,"x_min":0,"x_max":0,"o":"m 0 676 l 0 900 l 149 972 l 379 972 l 379 265 b 428 222 379 236 396 222 l 428 0 l 32 0 l 32 222 b 81 265 64 222 81 236 l 81 633 b 32 676 81 663 64 676 "},"2":{"ha":789,"x_min":0,"x_max":0,"o":"m 0 0 l 0 124 b 449 663 0 457 449 468 b 364 757 449 714 413 757 b 271 610 307 757 271 703 l 1 610 l 1 972 l 267 972 l 267 779 b 467 979 267 911 335 979 b 747 696 631 979 747 863 b 292 222 747 417 292 269 l 456 222 b 525 301 503 222 525 250 l 747 301 l 747 0 "},"3":{"ha":794,"x_min":0,"x_max":0,"o":"m 267 972 l 267 779 b 476 979 267 913 336 979 b 747 739 631 979 747 876 b 574 526 747 633 686 561 b 768 289 694 510 768 422 b 388 -7 768 119 617 -7 b 0 317 160 -7 0 131 l 279 317 b 397 215 279 264 332 215 b 488 285 453 215 488 240 b 365 354 488 326 439 354 l 228 354 l 228 579 l 282 579 b 449 679 392 579 449 613 b 374 757 449 725 415 757 b 271 610 313 757 271 703 l 1 610 l 1 972 "},"4":{"ha":853,"x_min":0,"x_max":0,"o":"m 424 499 l 424 625 l 335 499 m 811 274 l 722 274 l 722 251 b 771 208 722 222 739 208 l 771 0 l 375 0 l 375 208 b 424 251 407 208 424 222 l 424 274 l 1 274 l 1 414 l 408 972 l 722 972 l 722 499 l 811 499 "},"5":{"ha":794,"x_min":0,"x_max":0,"o":"m 382 475 b 285 421 338 475 300 446 l 6 414 l 6 476 l 35 972 l 747 972 l 747 671 l 525 671 b 444 750 525 725 500 750 l 314 750 l 306 664 l 365 668 b 768 333 599 685 768 546 b 389 -7 768 144 618 -7 b 6 360 164 -7 6 131 l 285 360 b 389 215 285 264 336 215 b 488 344 449 215 488 267 b 382 475 488 424 444 475 "},"6":{"ha":782,"x_min":0,"x_max":0,"o":"m 281 363 b 394 215 286 275 332 215 b 461 288 433 215 461 249 b 371 381 461 346 428 381 b 281 363 342 381 308 372 m 386 757 b 281 607 322 757 281 688 l 281 581 b 444 606 319 593 376 606 b 740 317 615 606 740 478 b 382 -7 740 131 597 -7 b 0 486 146 -7 0 154 b 392 979 0 790 144 979 b 740 635 582 979 740 822 l 461 635 b 386 757 461 707 436 757 "},"7":{"ha":760,"x_min":0,"x_max":0,"o":"m 108 0 l 364 750 l 303 750 b 222 671 247 750 222 725 l 0 671 l 0 972 l 718 972 l 718 910 l 399 0 "},"8":{"ha":775,"x_min":0,"x_max":0,"o":"m 367 419 b 281 318 311 419 281 382 b 367 217 281 256 310 217 b 453 318 425 217 453 256 b 367 419 453 382 424 419 m 367 757 b 289 686 317 757 289 729 b 367 614 289 642 314 614 b 444 686 419 614 444 642 b 367 757 444 729 419 757 m 367 979 b 704 708 558 979 704 875 b 628 531 704 638 675 576 b 732 304 693 476 732 400 b 367 -7 732 111 581 -7 b 1 304 153 -7 1 111 b 104 531 1 399 40 476 b 29 708 57 576 29 638 b 367 979 29 875 174 979 "},"9":{"ha":782,"x_min":0,"x_max":0,"o":"m 460 610 b 367 757 456 706 421 757 b 279 668 317 757 279 719 b 369 592 279 613 318 592 b 460 610 399 592 432 600 m 369 215 b 460 365 432 215 460 258 l 460 390 b 296 367 422 378 368 367 b 0 656 132 367 0 494 b 358 979 0 842 143 979 b 740 486 618 979 740 818 b 363 -7 740 165 608 -7 b 0 338 147 -7 0 131 l 279 338 b 369 215 279 269 306 215 "},"\u0000":{"ha":0,"x_min":0,"x_max":0,"o":""},"\r":{"ha":347,"x_min":0,"x_max":0,"o":""}," ":{"ha":347,"x_min":0,"x_max":0,"o":""},"!":{"ha":340,"x_min":0,"x_max":0,"o":"m 0 910 l 0 972 l 299 972 l 299 910 l 263 315 l 36 315 m 7 133 b 150 274 7 218 58 274 b 293 133 242 274 293 218 b 150 -7 293 47 242 -7 b 7 133 58 -7 7 47 "},"\"":{"ha":508,"x_min":0,"x_max":0,"o":"m 0 1000 l 0 1042 l 222 1042 l 222 1000 l 181 743 l 42 743 m 244 1000 l 244 1042 l 467 1042 l 467 1000 l 425 743 l 286 743 "},"#":{"ha":1011,"x_min":0,"x_max":0,"o":"m 406 394 l 553 394 l 565 542 l 418 542 m 32 542 l 51 764 l 215 764 l 231 938 l 453 938 l 438 764 l 585 764 l 600 938 l 822 938 l 807 764 l 969 764 l 950 542 l 788 542 l 775 394 l 938 394 l 918 172 l 756 172 l 740 0 l 518 0 l 533 172 l 386 172 l 371 0 l 149 0 l 164 172 l 0 172 l 19 394 l 183 394 l 196 542 "},"$":{"ha":850,"x_min":0,"x_max":0,"o":"m 351 -3 b 0 374 138 22 0 167 l 279 374 b 419 215 279 281 338 215 b 517 300 476 215 517 250 b 18 722 517 476 18 388 b 324 979 18 867 146 979 b 351 978 333 979 343 979 l 351 1083 l 475 1083 l 475 938 b 542 779 519 906 542 851 l 542 972 l 807 972 l 807 610 l 538 610 b 415 757 538 703 492 757 b 317 674 357 757 317 724 b 808 289 317 526 808 575 b 475 -4 808 133 668 15 l 475 -122 l 351 -122 "},"%":{"ha":1247,"x_min":0,"x_max":0,"o":"m 565 1042 l 829 1042 l 644 0 l 381 0 m 0 799 b 238 1043 0 965 92 1043 b 476 799 386 1043 476 965 b 238 553 476 632 386 553 b 0 799 92 553 0 632 m 197 799 b 238 697 197 724 201 697 b 279 799 275 697 279 724 b 239 899 279 872 275 899 b 197 799 203 899 197 872 m 728 239 b 965 483 728 406 819 483 b 1204 239 1114 483 1204 406 b 965 -7 1204 72 1114 -7 b 728 239 819 -7 728 72 m 925 239 b 965 138 925 164 929 138 b 1007 239 1003 138 1007 164 b 967 339 1007 313 1003 339 b 925 239 931 339 925 313 "},"&":{"ha":944,"x_min":0,"x_max":0,"o":"m 313 369 b 265 315 289 368 265 347 b 435 213 265 256 336 213 b 465 214 446 213 456 213 m 661 413 b 624 446 661 433 647 446 l 624 544 l 903 544 l 903 419 b 826 190 903 335 875 256 b 874 144 856 161 874 144 l 874 138 l 678 0 l 639 39 b 419 -7 572 10 499 -7 b 0 296 165 -7 0 113 b 147 540 0 410 54 496 b 83 708 108 589 83 640 b 433 979 83 851 217 979 b 786 669 646 979 786 857 l 507 669 b 438 757 507 728 485 757 b 375 694 401 757 375 731 l 375 688 b 654 360 375 649 521 494 b 661 413 658 376 661 394 "},"'":{"ha":264,"x_min":0,"x_max":0,"o":"m 0 1000 l 0 1042 l 222 1042 l 222 1000 l 181 743 l 42 743 "},"(":{"ha":406,"x_min":0,"x_max":0,"o":"m 378 -261 b 0 489 68 -261 0 -114 b 378 1240 0 1090 68 1240 l 378 1018 b 236 494 261 1018 236 978 b 378 -39 236 4 261 -39 "},")":{"ha":419,"x_min":0,"x_max":0,"o":"m 0 -39 b 142 494 117 -39 142 4 b 0 1018 142 978 117 1018 l 0 1240 b 378 489 310 1240 378 1090 b 0 -261 378 -114 310 -261 l 0 -39 "},"*":{"ha":671,"x_min":0,"x_max":0,"o":"m 204 1042 l 426 1042 l 426 1019 l 390 871 l 506 982 l 518 989 l 629 796 l 617 789 l 460 743 l 617 697 l 629 690 l 518 497 l 506 504 l 388 617 l 426 458 l 426 444 l 204 444 l 204 458 l 242 614 l 131 508 l 113 497 l 1 690 l 19 701 l 163 743 l 19 785 l 1 796 l 113 989 l 131 978 l 239 874 l 204 1019 "},"+":{"ha":632,"x_min":0,"x_max":0,"o":"m 0 346 l 0 571 l 175 571 l 175 753 l 414 753 l 414 571 l 590 571 l 590 346 l 414 346 l 414 163 l 175 163 l 175 346 "},",":{"ha":276,"x_min":0,"x_max":0,"o":"m 21 -154 l 86 -7 b 0 107 31 -7 0 24 b 119 222 0 192 32 222 b 235 108 213 222 235 185 b 156 -165 235 26 181 -110 l 21 -165 "},"-":{"ha":507,"x_min":0,"x_max":0,"o":"m 0 558 l 465 558 l 465 368 l 0 368 "},".":{"ha":278,"x_min":0,"x_max":0,"o":"m 0 107 b 117 222 0 194 28 222 b 235 107 207 222 235 194 b 117 -7 235 21 207 -7 b 0 107 28 -7 0 21 "},"/":{"ha":513,"x_min":0,"x_max":0,"o":"m 207 1169 l 471 1169 l 264 0 l 0 0 "},":":{"ha":278,"x_min":0,"x_max":0,"o":"m 0 107 b 117 222 0 194 28 222 b 235 107 207 222 235 194 b 117 -7 235 21 207 -7 b 0 107 28 -7 0 21 m 0 585 b 117 700 0 672 28 700 b 235 585 207 700 235 672 b 117 471 235 499 207 471 b 0 585 28 471 0 499 "},";":{"ha":278,"x_min":0,"x_max":0,"o":"m 21 -154 l 86 -7 b 0 107 31 -7 0 24 b 119 222 0 192 32 222 b 235 108 213 222 235 185 b 156 -165 235 26 181 -110 l 21 -165 m 0 585 b 117 700 0 672 28 700 b 235 585 207 700 235 672 b 117 471 235 499 207 471 b 0 585 28 471 0 499 "},"<":{"ha":494,"x_min":0,"x_max":0,"o":"m 453 135 l 411 135 l 0 347 l 0 571 l 411 783 l 453 783 l 453 558 l 188 463 l 453 360 "},"=":{"ha":632,"x_min":0,"x_max":0,"o":"m 0 694 l 590 694 l 590 469 l 0 469 m 0 375 l 590 375 l 590 150 l 0 150 "},">":{"ha":494,"x_min":0,"x_max":0,"o":"m 0 783 l 42 783 l 453 571 l 453 347 l 42 135 l 0 135 l 0 360 l 265 456 l 0 558 "},"?":{"ha":744,"x_min":0,"x_max":0,"o":"m 136 133 b 279 274 136 218 188 274 b 422 133 371 274 422 218 b 279 -7 422 47 371 -7 b 136 133 188 -7 136 47 m 265 779 b 464 979 265 911 333 979 b 703 751 606 979 703 893 b 392 315 703 546 392 469 l 165 315 b 407 694 165 579 407 582 b 344 757 407 731 383 757 b 269 610 299 757 269 703 l 0 610 l 0 972 l 265 972 "},"@":{"ha":1071,"x_min":0,"x_max":0,"o":"m 563 406 b 496 479 560 449 531 479 b 414 350 442 479 414 440 b 493 215 414 256 442 215 b 563 299 533 215 557 244 m 571 131 b 435 79 539 96 493 79 b 204 347 319 79 204 181 b 449 628 204 514 303 628 b 563 503 521 628 560 585 l 563 622 l 771 622 l 771 146 b 806 104 771 122 785 104 b 904 376 851 104 904 165 b 513 754 904 640 761 754 b 125 376 286 754 125 626 b 439 -11 125 106 258 -11 b 594 7 538 -11 594 7 l 594 -103 b 439 -121 594 -103 538 -121 b 0 372 175 -121 0 71 b 513 865 0 660 203 865 b 1029 372 844 865 1029 674 b 767 0 1029 83 925 0 b 571 131 664 0 594 47 "},"A":{"ha":921,"x_min":0,"x_max":0,"o":"m 404 694 l 349 493 l 458 493 m 496 354 l 311 354 l 292 281 b 350 222 283 249 317 222 l 350 0 l 0 0 l 0 222 b 68 272 29 222 58 235 l 257 972 l 628 972 l 810 296 b 879 222 824 243 854 222 l 879 0 l 461 0 l 461 222 b 514 285 494 222 522 251 "},"B":{"ha":903,"x_min":0,"x_max":0,"o":"m 407 222 b 563 329 503 222 563 254 b 407 432 563 400 503 432 l 347 432 l 347 222 m 401 613 b 514 683 474 613 514 638 b 413 750 514 724 474 750 l 347 750 l 347 613 m 0 0 l 0 222 b 49 265 32 222 49 236 l 49 707 b 0 750 49 736 32 750 l 0 972 l 421 972 b 799 731 667 972 799 881 b 692 560 799 658 763 599 b 861 307 804 508 861 419 b 401 0 861 119 707 0 "},"C":{"ha":950,"x_min":0,"x_max":0,"o":"m 629 972 l 908 972 l 908 610 l 625 610 b 472 757 625 699 564 757 b 299 489 365 757 299 656 b 472 215 299 317 371 215 b 629 411 578 215 629 279 l 908 411 b 478 -7 908 151 746 -7 b 0 486 188 -7 0 178 b 422 979 0 794 169 979 b 629 779 543 979 629 897 "},"D":{"ha":899,"x_min":0,"x_max":0,"o":"m 347 222 l 368 222 b 558 489 510 222 558 281 b 368 750 558 693 510 750 l 347 750 m 0 972 l 392 972 b 857 486 690 972 857 783 b 392 0 857 189 690 0 l 0 0 l 0 222 b 49 265 32 222 49 236 l 49 707 b 0 750 49 736 32 750 "},"E":{"ha":776,"x_min":0,"x_max":0,"o":"m 347 750 l 347 569 l 394 569 b 438 618 424 569 438 586 l 597 618 l 597 354 l 438 354 b 394 403 438 386 424 403 l 347 403 l 347 222 l 449 222 b 547 306 506 222 547 258 l 735 306 l 735 0 l 0 0 l 0 222 b 49 265 32 222 49 236 l 49 707 b 0 750 49 736 32 750 l 0 972 l 735 972 l 735 667 l 547 667 b 449 750 547 714 506 750 "},"F":{"ha":776,"x_min":0,"x_max":0,"o":"m 347 750 l 347 542 l 394 542 b 438 590 424 542 438 558 l 597 590 l 597 326 l 438 326 b 394 375 438 358 424 375 l 347 375 l 347 251 b 394 222 351 232 368 222 l 394 0 l 0 0 l 0 222 b 49 265 32 222 49 236 l 49 707 b 0 750 49 736 32 750 l 0 972 l 735 972 l 735 667 l 547 667 b 449 750 547 714 506 750 "},"G":{"ha":951,"x_min":0,"x_max":0,"o":"m 629 972 l 907 972 l 907 610 l 625 610 b 472 757 625 699 564 757 b 299 489 365 757 299 656 b 475 215 299 297 371 215 b 629 378 575 215 629 281 l 472 378 l 472 517 l 910 517 l 910 408 b 471 -7 910 142 751 -7 b 0 486 181 -7 0 178 b 422 979 0 794 169 979 b 629 779 543 979 629 897 "},"H":{"ha":990,"x_min":0,"x_max":0,"o":"m 347 417 l 347 265 b 396 222 347 236 364 222 l 396 0 l 0 0 l 0 222 b 49 265 32 222 49 236 l 49 707 b 0 750 49 736 32 750 l 0 972 l 396 972 l 396 750 b 347 707 364 750 347 736 l 347 556 l 601 556 l 601 707 b 553 750 601 736 585 750 l 553 972 l 949 972 l 949 750 b 900 707 917 750 900 736 l 900 265 b 949 222 900 236 917 222 l 949 0 l 553 0 l 553 222 b 601 265 585 222 601 236 l 601 417 "},"I":{"ha":438,"x_min":0,"x_max":0,"o":"m 396 0 l 0 0 l 0 222 b 49 265 32 222 49 236 l 49 707 b 0 750 49 736 32 750 l 0 972 l 396 972 l 396 750 b 347 707 364 750 347 736 l 347 265 b 396 222 347 236 364 222 "},"J":{"ha":839,"x_min":0,"x_max":0,"o":"m 358 972 l 358 801 b 535 972 358 908 425 972 l 797 972 l 797 750 b 749 701 765 750 749 735 l 749 411 b 364 -7 749 135 600 -7 b 0 333 150 -7 0 133 l 278 333 b 364 215 278 261 308 215 b 450 347 419 215 450 260 l 450 688 b 389 750 450 725 425 750 l 358 750 l 358 610 l 107 610 l 107 972 "},"K":{"ha":903,"x_min":0,"x_max":0,"o":"m 454 683 b 444 750 482 719 476 750 l 444 972 l 826 972 l 826 750 b 750 707 799 750 771 733 l 578 486 l 600 486 b 813 313 719 486 813 410 l 813 265 b 861 222 813 236 829 222 l 861 0 l 514 0 l 514 254 b 408 368 514 322 472 368 l 347 368 l 347 265 b 396 222 347 236 364 222 l 396 0 l 0 0 l 0 222 b 49 265 32 222 49 236 l 49 707 b 0 750 49 736 32 750 l 0 972 l 396 972 l 396 750 b 347 707 364 750 347 736 l 347 547 "},"L":{"ha":776,"x_min":0,"x_max":0,"o":"m 0 972 l 396 972 l 396 750 b 347 707 364 750 347 736 l 347 222 l 449 222 b 547 326 500 222 547 272 l 735 326 l 735 0 l 0 0 l 0 222 b 49 265 32 222 49 236 l 49 707 b 0 750 49 736 32 750 "},"M":{"ha":1276,"x_min":0,"x_max":0,"o":"m 1186 265 b 1235 222 1186 236 1203 222 l 1235 0 l 839 0 l 839 222 b 888 265 871 222 888 236 l 888 649 l 606 0 l 549 0 l 271 638 l 271 263 b 319 222 271 235 288 222 l 319 0 l 0 0 l 0 222 b 49 263 32 222 49 235 l 49 710 b 0 750 49 738 32 750 l 0 972 l 424 972 l 614 535 l 804 972 l 1235 972 l 1235 750 b 1186 707 1203 750 1186 736 "},"N":{"ha":1007,"x_min":0,"x_max":0,"o":"m 0 0 l 0 222 b 49 263 32 222 49 235 l 49 710 b 0 750 49 738 32 750 l 0 972 l 431 972 l 694 369 l 694 710 b 646 750 694 738 678 750 l 646 972 l 965 972 l 965 750 b 917 710 933 750 917 738 l 917 263 b 965 222 917 235 933 222 l 965 0 l 549 0 l 271 638 l 271 263 b 319 222 271 235 288 222 l 319 0 "},"O":{"ha":971,"x_min":0,"x_max":0,"o":"m 0 486 b 464 979 0 788 167 979 b 929 486 763 979 929 788 b 464 -7 929 185 763 -7 b 0 486 167 -7 0 185 m 299 489 b 464 215 299 297 360 215 b 631 489 569 215 631 297 b 464 757 631 676 569 757 b 299 489 360 757 299 676 "},"P":{"ha":826,"x_min":0,"x_max":0,"o":"m 347 564 l 388 564 b 500 658 460 564 500 597 b 399 750 500 714 460 750 l 347 750 m 396 0 l 0 0 l 0 222 b 49 265 32 222 49 236 l 49 707 b 0 750 49 736 32 750 l 0 972 l 407 972 b 785 660 653 972 785 854 b 419 383 785 503 626 383 l 347 383 l 347 265 b 396 222 347 236 364 222 "},"Q":{"ha":971,"x_min":0,"x_max":0,"o":"m 299 489 b 464 215 299 297 360 215 b 631 489 569 215 631 297 b 464 757 631 676 569 757 b 299 489 360 757 299 676 m 411 -4 b 0 486 147 17 0 203 b 464 979 0 788 167 979 b 929 486 763 979 929 788 b 606 10 929 236 815 63 b 719 -32 636 -17 676 -32 b 856 0 800 -32 856 0 l 869 0 l 869 -299 b 717 -331 869 -299 825 -331 b 411 -4 549 -331 444 -224 "},"R":{"ha":875,"x_min":0,"x_max":0,"o":"m 347 578 l 388 578 b 500 665 460 578 500 608 b 399 750 500 717 460 750 l 347 750 m 396 0 l 0 0 l 0 222 b 49 265 32 222 49 236 l 49 707 b 0 750 49 736 32 750 l 0 972 l 407 972 b 785 667 653 972 785 857 b 656 436 785 565 740 482 b 785 269 732 415 785 349 l 785 265 b 833 222 785 236 801 222 l 833 0 l 486 0 l 486 293 b 397 397 486 365 450 397 l 347 397 l 347 265 b 396 222 347 236 364 222 "},"S":{"ha":850,"x_min":0,"x_max":0,"o":"m 538 610 b 415 757 538 703 492 757 b 317 679 357 757 317 724 b 808 289 317 556 808 582 b 436 -7 808 119 642 -7 b 0 374 167 -7 0 144 l 279 374 b 419 215 279 281 338 215 b 517 300 476 215 517 250 b 18 722 517 447 18 374 b 324 979 18 867 146 979 b 542 779 468 979 542 911 l 542 972 l 807 972 l 807 610 "},"T":{"ha":968,"x_min":0,"x_max":0,"o":"m 926 971 l 926 611 l 739 611 b 628 749 739 689 690 749 l 613 749 l 613 265 b 661 222 613 236 629 222 l 661 0 l 265 0 l 265 222 b 314 265 297 222 314 236 l 314 749 l 299 749 b 188 611 236 749 188 689 l 0 611 l 0 971 "},"U":{"ha":968,"x_min":0,"x_max":0,"o":"m 579 693 b 522 750 579 729 558 750 l 522 972 l 926 972 l 926 750 b 878 701 894 750 878 735 l 878 411 b 463 -7 878 135 729 -7 b 49 411 197 -7 49 135 l 49 701 b 0 750 49 735 32 750 l 0 972 l 404 972 l 404 750 b 347 693 369 750 347 729 l 347 367 b 463 215 347 274 389 215 b 579 367 538 215 579 274 "},"V":{"ha":935,"x_min":0,"x_max":0,"o":"m 475 278 l 585 683 b 529 750 596 724 574 750 l 529 972 l 893 972 l 893 750 b 808 690 847 750 819 731 l 622 0 l 251 0 l 69 676 b 0 750 56 729 25 750 l 0 972 l 418 972 l 418 750 b 368 676 381 750 357 717 "},"W":{"ha":1433,"x_min":0,"x_max":0,"o":"m 468 304 l 593 972 l 836 972 l 981 301 l 1079 665 b 1008 750 1094 722 1065 750 l 1008 972 l 1392 972 l 1392 750 b 1307 690 1346 750 1318 731 l 1121 0 l 747 0 l 706 308 l 647 0 l 251 0 l 69 676 b 0 750 56 729 25 750 l 0 972 l 429 972 l 429 750 b 372 661 379 750 357 715 "},"X":{"ha":992,"x_min":0,"x_max":0,"o":"m 408 286 b 428 222 379 261 390 222 l 428 0 l 0 0 l 0 222 b 51 251 17 222 28 231 l 304 476 l 63 724 b 0 750 46 740 22 750 l 0 972 l 465 972 l 465 750 b 444 694 436 750 422 717 l 493 646 l 542 686 b 522 750 571 711 560 750 l 522 972 l 950 972 l 950 750 b 899 721 933 750 922 742 l 644 494 l 864 275 b 950 222 907 232 926 222 l 950 0 l 465 0 l 465 222 b 485 292 503 222 514 261 l 453 324 "},"Y":{"ha":893,"x_min":0,"x_max":0,"o":"m 435 626 l 479 683 b 469 750 507 719 501 750 l 469 972 l 851 972 l 851 750 b 775 707 824 750 796 733 l 575 451 l 575 265 b 624 222 575 236 592 222 l 624 0 l 228 0 l 228 222 b 276 265 260 222 276 236 l 276 451 l 76 707 b 0 750 56 733 28 750 l 0 972 l 399 972 l 399 750 b 389 683 367 750 361 719 "},"Z":{"ha":782,"x_min":0,"x_max":0,"o":"m 14 0 l 14 222 l 381 750 l 286 750 b 188 667 229 750 188 714 l 0 667 l 0 972 l 738 972 l 738 750 l 369 222 l 454 222 b 553 306 511 222 553 258 l 740 306 l 740 0 "},"[":{"ha":336,"x_min":0,"x_max":0,"o":"m 0 1201 l 378 1240 l 378 1007 l 321 993 b 236 908 264 979 236 965 l 236 69 b 321 -15 236 13 264 -1 l 378 -29 l 378 -262 l 0 -224 "},"\\":{"ha":513,"x_min":0,"x_max":0,"o":"m 207 0 l 0 1169 l 264 1169 l 471 0 "},"]":{"ha":364,"x_min":0,"x_max":0,"o":"m -56 -29 l 1 -15 b 86 69 58 -1 86 13 l 86 908 b 1 993 86 965 58 979 l -56 1007 l -56 1240 l 322 1201 l 322 -224 l -56 -262 "},"^":{"ha":654,"x_min":0,"x_max":0,"o":"m 307 818 l 239 613 l 0 613 l 0 692 l 115 1042 l 497 1042 l 613 692 l 613 613 l 374 613 "},"_":{"ha":757,"x_min":0,"x_max":0,"o":"m 0 225 l 715 225 l 715 0 l 0 0 "},"`":{"ha":356,"x_min":0,"x_max":0,"o":"m 0 938 l 0 979 l 206 979 l 314 757 l 314 743 l 163 743 "},"a":{"ha":742,"x_min":0,"x_max":0,"o":"m 388 372 b 265 247 314 371 265 317 b 326 167 265 199 290 167 b 388 275 364 167 388 204 m 388 435 b 301 479 382 464 358 479 b 71 418 167 479 71 418 l 64 418 l 64 640 b 350 701 64 640 181 701 b 651 410 542 701 651 594 l 651 265 b 700 222 651 236 668 222 l 700 0 l 388 0 l 388 83 b 206 -7 346 26 283 -7 b 0 188 83 -7 0 68 b 388 435 0 328 101 433 "},"b":{"ha":771,"x_min":0,"x_max":0,"o":"m 383 201 b 465 351 440 201 465 263 b 383 482 465 424 436 482 b 313 394 332 482 313 444 l 313 278 b 383 201 313 233 332 201 m 313 0 l 0 0 l 0 222 b 49 265 32 222 49 236 l 49 776 b 0 819 49 806 32 819 l 0 1042 l 313 1042 l 313 642 b 451 701 346 681 393 701 b 729 351 618 701 729 574 b 451 -7 729 139 618 -7 b 313 68 390 -7 343 21 "},"c":{"ha":760,"x_min":0,"x_max":0,"o":"m 447 413 b 368 514 447 472 415 514 b 265 351 300 514 265 464 b 365 181 265 232 300 181 b 454 314 422 181 454 226 l 717 314 b 363 -7 717 118 579 -7 b 0 347 146 -7 0 138 b 308 701 0 558 125 701 b 453 532 404 701 453 643 l 453 694 l 717 694 l 717 413 "},"d":{"ha":771,"x_min":0,"x_max":0,"o":"m 417 394 b 346 482 417 444 397 482 b 264 351 293 482 264 424 b 346 201 264 263 289 201 b 417 278 397 201 417 233 m 681 1042 l 681 265 b 729 222 681 236 697 222 l 729 0 l 417 0 l 417 68 b 278 -7 386 21 339 -7 b 0 351 111 -7 0 139 b 278 701 0 574 111 701 b 417 642 336 701 383 681 l 417 776 b 368 819 417 806 400 819 l 368 1042 "},"e":{"ha":699,"x_min":0,"x_max":0,"o":"m 394 447 b 332 515 394 490 372 515 b 267 447 296 515 271 490 m 643 268 l 643 46 b 392 -7 643 46 556 -7 b 0 356 129 -7 0 158 b 353 703 0 565 146 703 b 657 322 554 703 657 564 l 267 322 b 418 215 278 260 339 215 b 636 268 553 215 636 268 "},"f":{"ha":554,"x_min":0,"x_max":0,"o":"m 14 -7 l 14 215 b 63 258 46 215 63 229 l 63 418 b 0 472 63 456 42 472 l 0 694 l 63 694 l 63 739 b 308 1015 63 917 150 1015 b 513 982 432 1015 513 982 l 513 760 l 506 760 b 390 793 506 760 454 793 b 326 731 347 793 326 774 l 326 694 l 482 694 l 482 474 l 326 474 l 326 283 b 403 215 326 238 353 215 l 403 -7 "},"g":{"ha":772,"x_min":0,"x_max":0,"o":"m 346 201 b 417 278 397 201 417 233 l 417 394 b 346 482 417 444 397 482 b 264 351 293 482 264 424 b 346 201 264 263 289 201 m 731 694 l 731 472 b 682 429 699 472 682 458 l 682 56 b 290 -300 682 -142 553 -300 b 39 -247 126 -300 39 -247 l 39 -25 l 46 -25 b 264 -78 46 -25 129 -78 b 417 50 351 -78 417 -24 l 417 68 b 278 -7 386 21 339 -7 b 0 351 111 -7 0 139 b 278 701 0 574 111 701 b 417 642 336 701 383 681 l 417 694 "},"h":{"ha":804,"x_min":0,"x_max":0,"o":"m 0 0 l 0 222 b 49 265 32 222 49 236 l 49 776 b 0 819 49 806 32 819 l 0 1042 l 313 1042 l 313 615 b 510 701 358 669 426 701 b 714 483 629 701 714 615 l 714 265 b 763 222 714 236 731 222 l 763 0 l 401 0 l 401 222 b 450 265 433 222 450 236 l 450 399 b 381 488 450 458 415 488 b 313 394 346 488 313 456 l 313 265 b 361 222 313 236 329 222 l 361 0 "},"i":{"ha":403,"x_min":0,"x_max":0,"o":"m 361 0 l 0 0 l 0 222 b 49 265 32 222 49 236 l 49 429 b 0 472 49 458 32 472 l 0 694 l 313 694 l 313 265 b 361 222 313 236 329 222 m 25 869 b 168 1010 25 954 76 1010 b 311 869 260 1010 311 954 b 168 729 311 783 260 729 b 25 869 76 729 25 783 "},"j":{"ha":496,"x_min":0,"x_max":0,"o":"m 186 429 b 138 472 186 458 169 472 l 138 694 l 450 694 l 450 -44 b 204 -301 450 -229 351 -301 b 0 -257 71 -301 0 -257 l 0 -35 l 7 -35 b 122 -79 7 -35 58 -79 b 186 -17 165 -79 186 -60 m 163 869 b 306 1010 163 956 214 1010 b 449 869 397 1010 449 956 b 306 729 449 783 397 729 b 163 869 214 729 163 783 "},"k":{"ha":819,"x_min":0,"x_max":0,"o":"m 458 369 l 619 369 b 729 274 683 369 729 329 l 729 265 b 778 222 729 236 746 222 l 778 0 l 431 0 l 431 161 b 325 275 431 229 389 275 l 313 275 l 313 265 b 361 222 313 236 329 222 l 361 0 l 0 0 l 0 222 b 49 265 32 222 49 236 l 49 776 b 0 819 49 806 32 819 l 0 1042 l 361 1042 l 361 819 b 313 776 329 819 313 806 l 313 488 l 369 528 b 407 599 397 547 407 565 l 407 694 l 722 694 l 722 507 b 629 479 685 507 661 500 "},"l":{"ha":403,"x_min":0,"x_max":0,"o":"m 361 0 l 0 0 l 0 222 b 49 265 32 222 49 236 l 49 776 b 0 819 49 806 32 819 l 0 1042 l 313 1042 l 313 265 b 361 222 313 236 329 222 "},"m":{"ha":1178,"x_min":0,"x_max":0,"o":"m 775 0 l 775 222 b 824 265 807 222 824 236 l 824 399 b 763 488 824 458 792 488 b 700 394 731 488 700 456 l 700 265 b 749 222 700 236 717 222 l 749 0 l 388 0 l 388 222 b 436 265 419 222 436 236 l 436 399 b 375 488 436 458 404 488 b 313 394 343 488 313 456 l 313 265 b 361 222 313 236 329 222 l 361 0 l 0 0 l 0 222 b 49 265 32 222 49 236 l 49 429 b 0 472 49 458 32 472 l 0 694 l 313 694 l 313 618 b 501 701 357 669 421 701 b 679 589 583 701 647 660 b 889 701 722 658 794 701 b 1088 483 1006 701 1088 615 l 1088 265 b 1136 222 1088 236 1104 222 l 1136 0 "},"n":{"ha":804,"x_min":0,"x_max":0,"o":"m 401 0 l 401 222 b 450 265 433 222 450 236 l 450 399 b 381 488 450 458 415 488 b 313 394 346 488 313 456 l 313 265 b 361 222 313 236 329 222 l 361 0 l 0 0 l 0 222 b 49 265 32 222 49 236 l 49 429 b 0 472 49 458 32 472 l 0 694 l 313 694 l 313 615 b 510 701 358 669 426 701 b 714 483 629 701 714 615 l 714 265 b 763 222 714 236 731 222 l 763 0 "},"o":{"ha":767,"x_min":0,"x_max":0,"o":"m 0 347 b 363 701 0 564 131 701 b 725 347 596 701 725 564 b 363 -7 725 132 596 -7 b 0 347 131 -7 0 132 m 265 349 b 363 181 265 232 300 181 b 461 349 426 181 461 232 b 363 514 461 464 426 514 b 265 349 300 514 265 464 "},"p":{"ha":771,"x_min":0,"x_max":0,"o":"m 313 278 b 383 201 313 233 332 201 b 465 351 440 201 465 263 b 383 482 465 424 436 482 b 313 394 332 482 313 444 m 0 -347 l 0 -125 b 49 -82 32 -125 49 -111 l 49 429 b 0 472 49 458 32 472 l 0 694 l 313 694 l 313 642 b 451 701 346 681 393 701 b 729 351 618 701 729 574 b 451 -7 729 139 618 -7 b 313 68 390 -7 343 21 l 313 -82 b 361 -125 313 -111 329 -125 l 361 -347 "},"q":{"ha":771,"x_min":0,"x_max":0,"o":"m 417 394 b 346 482 417 444 397 482 b 264 351 293 482 264 424 b 346 201 264 263 289 201 b 417 278 397 201 417 233 m 417 68 b 278 -7 386 21 339 -7 b 0 351 111 -7 0 139 b 274 701 0 574 111 701 b 417 626 331 701 381 672 l 417 694 l 729 694 l 729 472 b 681 429 697 472 681 458 l 681 -347 l 354 -347 l 354 -125 b 417 -69 396 -125 417 -107 "},"r":{"ha":678,"x_min":0,"x_max":0,"o":"m 49 429 b 0 472 49 458 32 472 l 0 694 l 313 694 l 313 619 b 471 701 346 675 397 701 b 636 642 585 701 636 642 l 636 419 l 629 419 b 465 479 629 419 571 479 b 313 354 367 479 313 429 l 313 271 b 372 222 313 243 339 222 l 372 0 l 0 0 l 0 222 b 49 265 32 222 49 236 "},"s":{"ha":663,"x_min":0,"x_max":0,"o":"m 367 436 b 313 514 367 488 349 514 b 268 475 286 514 268 499 b 608 214 268 394 608 418 b 308 -7 608 86 483 -7 b 1 258 128 -7 1 101 l 257 258 b 306 182 257 210 275 182 b 346 218 328 182 346 199 b 1 519 346 322 1 304 b 210 701 1 628 92 701 b 371 561 301 701 361 661 l 371 694 l 621 694 l 621 436 "},"t":{"ha":540,"x_min":0,"x_max":0,"o":"m 465 692 l 465 496 l 313 496 l 313 278 b 376 215 313 235 333 215 b 492 260 440 215 492 260 l 499 260 l 499 38 b 294 -7 499 38 428 -7 b 49 250 147 -7 49 65 l 49 496 l 0 496 l 0 693 b 63 747 42 693 63 710 l 63 843 l 313 843 l 313 692 "},"u":{"ha":804,"x_min":0,"x_max":0,"o":"m 450 429 b 401 472 450 458 433 472 l 401 694 l 714 694 l 714 265 b 763 222 714 236 731 222 l 763 0 l 450 0 l 450 86 b 236 -7 400 29 325 -7 b 49 193 125 -7 49 75 l 49 429 b 0 472 49 458 32 472 l 0 694 l 313 694 l 313 296 b 382 207 313 236 342 207 b 450 300 428 207 450 246 "},"v":{"ha":781,"x_min":0,"x_max":0,"o":"m 442 415 b 413 472 454 454 444 472 l 413 694 l 739 694 l 739 472 b 676 429 704 472 686 460 l 538 0 l 203 0 l 63 429 b 0 472 51 464 26 472 l 0 694 l 361 694 l 361 472 b 332 413 324 472 321 447 l 388 244 "},"w":{"ha":1167,"x_min":0,"x_max":0,"o":"m 378 258 l 517 694 l 639 694 l 782 257 l 828 415 b 799 472 839 454 831 472 l 799 694 l 1125 694 l 1125 472 b 1063 429 1090 472 1071 460 l 938 0 l 603 0 l 563 122 l 524 0 l 189 0 l 63 429 b 0 472 53 464 26 472 l 0 694 l 361 694 l 361 472 b 332 413 324 472 322 447 "},"x":{"ha":825,"x_min":0,"x_max":0,"o":"m 390 260 l 356 228 b 368 189 340 214 346 189 l 368 0 l 0 0 l 0 221 b 79 251 32 221 47 229 l 196 350 l 79 440 b 0 471 46 461 32 471 l 0 694 l 368 694 l 368 503 b 356 464 346 503 339 476 l 390 436 l 428 465 b 415 504 444 478 438 504 l 415 694 l 783 694 l 783 472 b 704 442 751 472 738 463 l 579 351 l 704 253 b 783 222 738 231 751 222 l 783 0 l 415 0 l 415 190 b 428 229 438 190 444 215 "},"y":{"ha":799,"x_min":0,"x_max":0,"o":"m 165 -74 b 206 -12 199 -74 217 -49 l 63 429 b 0 472 51 464 26 472 l 0 694 l 361 694 l 361 472 b 332 413 324 472 324 447 l 385 193 l 446 415 b 417 472 457 454 449 472 l 417 694 l 757 694 l 757 472 b 696 429 722 472 706 460 l 561 0 b 219 -297 493 -217 399 -297 b 0 -258 76 -297 0 -258 l 0 -36 l 7 -36 b 165 -74 7 -36 75 -67 "},"z":{"ha":713,"x_min":0,"x_max":0,"o":"m 1 442 l 1 694 l 669 694 l 669 653 l 363 188 l 379 188 b 443 253 421 188 443 210 l 665 253 l 665 0 l 1 0 l 1 42 l 308 507 l 288 507 b 224 442 246 507 224 485 "},"{":{"ha":440,"x_min":0,"x_max":0,"o":"m 65 346 b 0 385 65 374 29 385 l 0 594 b 65 633 29 594 65 606 b 413 1240 65 913 103 1240 l 413 1018 b 301 704 296 1018 301 893 b 243 490 301 593 283 528 b 301 275 283 451 301 386 b 413 -39 301 86 296 -39 l 413 -261 b 65 346 103 -261 65 67 "},"|":{"ha":264,"x_min":0,"x_max":0,"o":"m 0 1169 l 222 1169 l 222 -347 l 0 -347 "},"}":{"ha":454,"x_min":0,"x_max":0,"o":"m 347 633 b 413 594 347 606 383 594 l 413 385 b 347 346 383 385 347 374 b 0 -261 347 67 310 -261 l 0 -39 b 111 275 117 -39 111 86 b 169 490 111 386 129 451 b 111 704 129 528 111 593 b 0 1018 111 893 117 1018 l 0 1240 b 347 633 310 1240 347 913 "},"~":{"ha":722,"x_min":0,"x_max":0,"o":"m 468 297 b 149 364 335 297 283 364 b 49 304 75 364 49 304 l 0 304 b 197 586 0 463 88 586 b 533 519 340 586 401 519 b 632 579 607 519 632 579 l 681 579 b 468 297 681 396 606 297 "},"¡":{"ha":340,"x_min":0,"x_max":0,"o":"m 299 63 l 299 0 l 0 0 l 0 63 l 36 657 l 263 657 m 292 839 b 149 699 292 754 240 699 b 6 839 57 699 6 754 b 149 979 6 925 57 979 b 292 839 240 979 292 925 "},"¢":{"ha":760,"x_min":0,"x_max":0,"o":"m 303 -3 b 0 347 121 21 0 157 b 289 701 0 550 117 692 l 289 796 l 404 796 l 404 671 b 453 532 436 643 453 596 l 453 694 l 717 694 l 717 413 l 447 413 b 368 514 447 472 415 514 b 265 351 300 514 265 464 b 365 181 265 232 300 181 b 454 314 422 181 454 226 l 717 314 b 418 -3 717 136 603 17 l 418 -106 l 303 -106 "},"£":{"ha":721,"x_min":0,"x_max":0,"o":"m 8 422 l 8 558 l 56 558 b 0 747 28 619 0 679 b 322 979 0 885 129 979 b 633 924 493 979 633 924 l 603 717 l 589 717 b 410 757 589 717 486 757 b 299 649 335 757 299 718 b 311 558 299 618 304 588 l 458 558 l 458 422 l 346 422 b 339 222 357 365 360 300 l 422 222 b 492 296 458 222 492 257 l 679 296 l 679 0 l 0 0 l 0 51 l 83 235 b 107 422 115 306 118 367 "},"¤":{"ha":714,"x_min":0,"x_max":0,"o":"m 246 358 b 336 232 246 260 276 232 b 428 358 397 232 428 260 b 336 482 428 456 397 482 b 246 358 276 482 246 456 m 64 175 b 0 357 22 218 0 278 b 65 540 0 436 22 497 l 0 646 l 0 667 l 251 667 l 279 621 b 336 624 297 622 317 624 b 393 622 356 624 375 624 l 421 667 l 672 667 l 672 646 l 607 540 b 672 357 650 497 672 436 b 608 175 672 278 650 218 l 672 69 l 672 49 l 421 49 l 394 93 b 336 90 376 92 357 90 b 278 93 315 90 296 92 l 251 49 l 0 49 l 0 69 "},"¥":{"ha":893,"x_min":0,"x_max":0,"o":"m 131 311 l 131 536 l 210 536 l 76 707 b 0 750 56 733 28 750 l 0 972 l 399 972 l 399 750 b 389 683 367 750 361 719 l 435 626 l 479 683 b 469 750 507 719 501 750 l 469 972 l 851 972 l 851 750 b 775 707 824 750 796 733 l 642 536 l 721 536 l 721 311 l 575 311 l 575 265 b 624 222 575 236 592 222 l 624 0 l 228 0 l 228 222 b 276 265 260 222 276 236 l 276 311 "},"¦":{"ha":264,"x_min":0,"x_max":0,"o":"m 0 467 l 0 1169 l 222 1169 l 222 467 m 222 243 l 222 -347 l 0 -347 l 0 243 "},"§":{"ha":672,"x_min":0,"x_max":0,"o":"m 342 508 b 315 514 335 513 325 514 b 275 479 290 514 275 499 b 325 439 276 453 303 439 b 363 469 344 439 363 449 b 342 508 363 485 354 497 m 376 688 b 322 765 376 739 358 765 b 278 726 296 765 278 750 b 625 465 278 646 625 669 b 565 328 625 413 603 365 b 618 214 597 301 618 265 b 317 -7 618 86 492 -7 b 4 258 131 -7 4 101 l 267 258 b 315 182 267 210 285 182 b 356 218 338 182 356 199 b 1 519 356 322 1 304 b 60 650 1 572 24 618 b 8 771 29 681 8 718 b 218 953 8 879 100 953 b 381 813 311 953 371 913 l 381 946 l 631 946 l 631 688 "},"¨":{"ha":558,"x_min":0,"x_max":0,"o":"m 282 1086 b 399 1201 282 1174 310 1201 b 517 1086 489 1201 517 1174 b 399 972 517 1000 489 972 b 282 1086 310 972 282 1000 m 0 1086 b 117 1201 0 1174 28 1201 b 235 1086 207 1201 235 1174 b 117 972 235 1000 207 972 b 0 1086 28 972 0 1000 "},"©":{"ha":1046,"x_min":0,"x_max":0,"o":"m 125 376 b 501 -10 125 106 264 -10 b 879 376 740 -10 879 106 b 501 754 879 640 740 754 b 125 376 264 754 125 640 m 558 399 b 496 479 558 446 532 479 b 414 350 442 479 414 440 b 493 215 414 256 442 215 b 564 321 539 215 564 251 l 772 321 b 490 67 772 165 663 67 b 204 347 319 67 204 181 b 449 628 204 514 303 628 b 563 511 518 628 557 588 l 563 622 l 771 622 l 771 399 m 0 372 b 501 865 0 674 181 865 b 1004 372 824 865 1004 674 b 501 -121 1004 71 824 -121 b 0 372 181 -121 0 71 "},"ª":{"ha":338,"x_min":0,"x_max":0,"o":"m 164 903 b 113 850 132 903 113 879 b 138 817 113 829 122 817 b 164 863 154 817 164 832 m 275 858 b 296 839 275 846 282 839 l 296 746 l 164 746 l 164 781 b 86 743 146 757 119 743 b 0 825 35 743 0 775 b 163 929 0 885 43 929 b 128 949 161 942 151 949 b 31 922 71 949 31 922 l 26 922 l 26 1015 b 147 1042 26 1015 76 1042 b 275 918 229 1042 275 997 "},"«":{"ha":740,"x_min":0,"x_max":0,"o":"m 357 75 l 315 75 l 0 361 l 0 571 l 315 857 l 357 857 l 357 632 l 118 467 l 357 300 m 699 75 l 657 75 l 342 361 l 342 571 l 657 857 l 699 857 l 699 632 l 460 467 l 699 300 "},"¬":{"ha":719,"x_min":0,"x_max":0,"o":"m 0 446 l 678 446 l 678 0 l 439 0 l 439 221 l 0 221 "},"®":{"ha":1046,"x_min":0,"x_max":0,"o":"m 125 376 b 501 -10 125 106 264 -10 b 879 376 740 -10 879 106 b 501 754 879 640 740 754 b 125 376 264 754 125 640 m 499 435 b 567 488 542 435 567 453 b 506 538 567 518 542 538 l 475 538 l 475 435 m 0 372 b 501 865 0 674 181 865 b 1004 372 824 865 1004 674 b 501 -121 1004 71 824 -121 b 0 372 181 -121 0 71 m 475 326 l 475 247 b 504 222 475 231 485 222 l 504 89 l 267 89 l 267 222 b 296 247 286 222 296 231 l 296 513 b 267 538 296 529 286 538 l 267 671 l 510 671 b 736 488 657 671 736 601 b 660 350 736 428 710 378 b 736 250 704 338 736 299 l 736 247 b 765 222 736 231 747 222 l 765 89 l 558 89 l 558 264 b 504 326 558 307 536 326 "},"¯":{"ha":558,"x_min":0,"x_max":0,"o":"m 47 972 b 0 1015 11 972 0 988 l 0 1111 b 47 1160 0 1144 10 1160 l 468 1160 b 517 1111 507 1160 517 1144 l 517 1015 b 468 972 517 988 506 972 "},"°":{"ha":338,"x_min":0,"x_max":0,"o":"m 294 888 b 147 743 294 804 231 743 b 0 888 64 743 0 807 b 147 1032 0 969 58 1032 b 294 888 235 1032 294 968 m 226 888 b 147 965 226 933 194 965 b 68 888 103 965 68 931 b 147 811 68 847 100 811 b 226 888 192 811 226 842 "},"±":{"ha":632,"x_min":0,"x_max":0,"o":"m 0 -56 l 0 169 l 590 169 l 590 -56 m 0 403 l 0 628 l 175 628 l 175 810 l 414 810 l 414 628 l 590 628 l 590 403 l 414 403 l 414 219 l 175 219 l 175 403 "},"²":{"ha":271,"x_min":0,"x_max":0,"o":"m 139 811 b 160 835 153 811 160 819 l 228 835 l 228 743 l 0 743 l 0 781 b 138 944 0 882 138 886 b 111 974 138 961 126 974 b 82 929 93 974 82 957 l 0 929 l 0 1040 l 82 1040 l 82 981 b 142 1042 82 1021 103 1042 b 228 956 192 1042 228 1006 b 89 811 228 871 89 825 "},"³":{"ha":276,"x_min":0,"x_max":0,"o":"m 69 921 l 86 921 b 136 950 119 921 136 931 b 114 974 136 964 126 974 b 82 929 94 974 82 958 l 0 929 l 0 1039 l 81 1039 l 81 981 b 144 1042 81 1021 103 1042 b 226 968 192 1042 226 1011 b 175 904 226 936 208 915 b 233 832 211 899 233 872 b 118 742 233 781 188 742 b 0 840 49 742 0 785 l 85 840 b 121 810 85 825 101 810 b 149 831 138 810 149 818 b 111 851 149 843 133 851 l 69 851 "},"´":{"ha":356,"x_min":0,"x_max":0,"o":"m 0 743 l 0 757 l 108 979 l 314 979 l 314 938 l 151 743 "},"¶":{"ha":828,"x_min":0,"x_max":0,"o":"m 261 -125 l 261 178 b 0 460 121 178 0 296 b 317 743 0 633 122 743 l 786 743 l 786 -125 l 564 -125 l 564 521 l 483 521 l 483 -125 "},"·":{"ha":278,"x_min":0,"x_max":0,"o":"m 0 475 b 117 590 0 563 28 590 b 235 475 207 590 235 563 b 117 361 235 389 207 361 b 0 475 28 361 0 389 "},"¸":{"ha":285,"x_min":0,"x_max":0,"o":"m 104 -278 b 1 -239 44 -278 1 -239 l 21 -161 l 24 -161 b 90 -192 24 -161 54 -192 b 132 -153 117 -192 132 -176 b 103 -112 132 -129 121 -112 b 85 -124 90 -112 85 -124 l 81 -124 l 49 -103 l 94 44 l 160 44 l 140 -36 b 243 -150 193 -36 243 -82 b 104 -278 243 -229 182 -278 "},"¹":{"ha":174,"x_min":0,"x_max":0,"o":"m 0 951 l 0 1019 l 46 1042 l 117 1042 l 117 825 b 132 811 117 815 122 811 l 132 743 l 10 743 l 10 811 b 25 825 19 811 25 815 l 25 938 b 10 951 25 946 19 951 "},"º":{"ha":349,"x_min":0,"x_max":0,"o":"m 1 893 b 153 1043 1 985 56 1043 b 307 893 251 1043 307 985 b 153 743 307 801 251 743 b 1 893 56 743 1 801 m 113 893 b 154 824 113 844 128 824 b 196 893 181 824 196 844 b 154 964 196 943 181 964 b 113 893 128 964 113 943 "},"»":{"ha":740,"x_min":0,"x_max":0,"o":"m 342 857 l 383 857 l 699 571 l 699 361 l 383 75 l 342 75 l 342 300 l 581 467 l 342 632 m 0 857 l 42 857 l 357 571 l 357 361 l 42 75 l 0 75 l 0 300 l 239 467 l 0 632 "},"¼":{"ha":1724,"x_min":0,"x_max":0,"o":"m 1294 499 l 1294 625 l 1206 499 m 0 676 l 0 900 l 149 972 l 379 972 l 379 265 b 428 222 379 236 396 222 l 428 0 l 32 0 l 32 222 b 81 265 64 222 81 236 l 81 633 b 32 676 81 663 64 676 m 469 0 l 643 979 l 907 979 l 733 0 m 1682 274 l 1593 274 l 1593 251 b 1642 208 1593 222 1610 208 l 1642 0 l 1246 0 l 1246 208 b 1294 251 1278 208 1294 222 l 1294 274 l 872 274 l 872 414 l 1279 972 l 1593 972 l 1593 499 l 1682 499 "},"½":{"ha":1701,"x_min":0,"x_max":0,"o":"m 0 676 l 0 900 l 149 972 l 379 972 l 379 265 b 428 222 379 236 396 222 l 428 0 l 32 0 l 32 222 b 81 265 64 222 81 236 l 81 633 b 32 676 81 663 64 676 m 456 0 l 629 979 l 893 979 l 719 0 m 913 0 l 913 124 b 1361 663 913 457 1361 468 b 1276 757 1361 714 1325 757 b 1183 610 1219 757 1183 703 l 914 610 l 914 972 l 1179 972 l 1179 779 b 1379 979 1179 911 1247 979 b 1660 696 1543 979 1660 863 b 1204 222 1660 417 1204 269 l 1368 222 b 1438 301 1415 222 1438 250 l 1660 301 l 1660 0 "},"¾":{"ha":2000,"x_min":0,"x_max":0,"o":"m 1571 499 l 1571 625 l 1482 499 m 267 972 l 267 779 b 476 979 267 913 336 979 b 747 739 631 979 747 876 b 574 526 747 633 686 561 b 768 289 694 510 768 422 b 388 -7 768 119 617 -7 b 0 317 160 -7 0 131 l 279 317 b 397 215 279 264 332 215 b 488 285 453 215 488 240 b 365 354 488 326 439 354 l 228 354 l 228 579 l 282 579 b 449 679 392 579 449 613 b 374 757 449 725 415 757 b 271 610 313 757 271 703 l 1 610 l 1 972 m 761 0 l 935 979 l 1199 979 l 1025 0 m 1958 274 l 1869 274 l 1869 251 b 1918 208 1869 222 1886 208 l 1918 0 l 1522 0 l 1522 208 b 1571 251 1554 208 1571 222 l 1571 274 l 1149 274 l 1149 414 l 1556 972 l 1869 972 l 1869 499 l 1958 499 "},"¿":{"ha":744,"x_min":0,"x_max":0,"o":"m 438 193 b 239 -7 438 61 369 -7 b 0 221 97 -7 0 79 b 311 657 0 426 311 503 l 538 657 b 296 278 538 393 296 390 b 358 215 296 242 319 215 b 433 363 404 215 433 269 l 703 363 l 703 0 l 438 0 m 567 839 b 424 699 567 754 515 699 b 281 839 332 699 281 754 b 424 979 281 925 332 979 b 567 839 515 979 567 925 "},"À":{"ha":921,"x_min":0,"x_max":0,"o":"m 404 694 l 349 493 l 458 493 m 496 354 l 311 354 l 292 281 b 350 222 283 249 317 222 l 350 0 l 0 0 l 0 222 b 68 272 29 222 58 235 l 257 972 l 628 972 l 810 296 b 879 222 824 243 854 222 l 879 0 l 461 0 l 461 222 b 514 285 494 222 522 251 m 397 1028 l 235 1167 l 235 1208 l 440 1208 l 549 1039 l 549 1028 "},"Á":{"ha":921,"x_min":0,"x_max":0,"o":"m 404 694 l 349 493 l 458 493 m 496 354 l 311 354 l 292 281 b 350 222 283 249 317 222 l 350 0 l 0 0 l 0 222 b 68 272 29 222 58 235 l 257 972 l 628 972 l 810 296 b 879 222 824 243 854 222 l 879 0 l 461 0 l 461 222 b 514 285 494 222 522 251 m 483 1028 l 332 1028 l 332 1039 l 440 1222 l 646 1222 l 646 1181 "},"Â":{"ha":921,"x_min":0,"x_max":0,"o":"m 404 694 l 349 493 l 458 493 m 496 354 l 311 354 l 292 281 b 350 222 283 249 317 222 l 350 0 l 0 0 l 0 222 b 68 272 29 222 58 235 l 257 972 l 628 972 l 810 296 b 879 222 824 243 854 222 l 879 0 l 461 0 l 461 222 b 514 285 494 222 522 251 m 344 1219 l 549 1219 l 711 1061 l 711 1028 l 506 1028 l 447 1125 l 388 1028 l 182 1028 l 182 1061 "},"Ã":{"ha":921,"x_min":0,"x_max":0,"o":"m 404 694 l 349 493 l 458 493 m 496 354 l 311 354 l 292 281 b 350 222 283 249 317 222 l 350 0 l 0 0 l 0 222 b 68 272 29 222 58 235 l 257 972 l 628 972 l 810 296 b 879 222 824 243 854 222 l 879 0 l 461 0 l 461 222 b 514 285 494 222 522 251 m 561 1028 b 335 1094 471 1028 421 1094 b 256 1035 282 1094 256 1035 l 207 1035 b 347 1240 207 1158 264 1240 b 556 1174 433 1240 479 1174 b 639 1233 614 1174 639 1233 l 688 1233 b 561 1028 688 1096 635 1028 "},"Ä":{"ha":921,"x_min":0,"x_max":0,"o":"m 404 694 l 349 493 l 458 493 m 496 354 l 311 354 l 292 281 b 350 222 283 249 317 222 l 350 0 l 0 0 l 0 222 b 68 272 29 222 58 235 l 257 972 l 628 972 l 810 296 b 879 222 824 243 854 222 l 879 0 l 461 0 l 461 222 b 514 285 494 222 522 251 m 175 1142 b 292 1257 175 1229 203 1257 b 410 1142 382 1257 410 1229 b 292 1028 410 1056 382 1028 b 175 1142 203 1028 175 1056 m 457 1142 b 574 1257 457 1229 485 1257 b 692 1142 664 1257 692 1229 b 574 1028 692 1056 664 1028 b 457 1142 485 1028 457 1056 "},"Å":{"ha":921,"x_min":0,"x_max":0,"o":"m 404 694 l 349 493 l 458 493 m 401 1154 b 442 1094 401 1113 415 1094 b 481 1154 467 1094 481 1113 b 442 1214 481 1196 467 1214 b 401 1154 415 1214 401 1196 m 496 354 l 311 354 l 292 281 b 350 222 283 249 317 222 l 350 0 l 0 0 l 0 222 b 68 272 29 222 58 235 l 257 972 l 628 972 l 810 296 b 879 222 824 243 854 222 l 879 0 l 461 0 l 461 222 b 514 285 494 222 522 251 m 297 1154 b 440 1282 297 1232 349 1282 b 586 1154 533 1282 586 1232 b 440 1028 586 1076 533 1028 b 297 1154 349 1028 297 1076 "},"Æ":{"ha":1294,"x_min":0,"x_max":0,"o":"m 404 694 l 349 493 l 458 493 m 865 750 l 865 569 l 913 569 b 956 618 942 569 956 586 l 1115 618 l 1115 354 l 956 354 b 913 403 956 386 942 403 l 865 403 l 865 225 b 879 222 869 222 875 222 l 967 222 b 1065 306 1024 222 1065 258 l 1253 306 l 1253 0 l 461 0 l 461 222 b 514 285 494 222 522 251 l 496 354 l 311 354 l 292 281 b 350 222 283 249 317 222 l 350 0 l 0 0 l 0 222 b 68 272 29 222 58 235 l 257 972 l 1253 972 l 1253 667 l 1065 667 b 967 750 1065 714 1024 750 "},"Ç":{"ha":950,"x_min":0,"x_max":0,"o":"m 456 -278 b 353 -239 396 -278 353 -239 l 372 -161 l 375 -161 b 442 -192 375 -161 406 -192 b 483 -153 468 -192 483 -176 b 454 -112 483 -129 472 -112 b 436 -124 442 -112 436 -124 l 432 -124 l 400 -103 l 431 -6 b 0 486 167 14 0 194 b 422 979 0 794 169 979 b 629 779 543 979 629 897 l 629 972 l 908 972 l 908 610 l 625 610 b 472 757 625 699 564 757 b 299 489 365 757 299 656 b 472 215 299 317 371 215 b 629 411 578 215 629 279 l 908 411 b 499 -7 908 158 754 1 l 492 -36 b 594 -150 544 -36 594 -82 b 456 -278 594 -229 533 -278 "},"È":{"ha":776,"x_min":0,"x_max":0,"o":"m 347 750 l 347 569 l 394 569 b 438 618 424 569 438 586 l 597 618 l 597 354 l 438 354 b 394 403 438 386 424 403 l 347 403 l 347 222 l 449 222 b 547 306 506 222 547 258 l 735 306 l 735 0 l 0 0 l 0 222 b 49 265 32 222 49 236 l 49 707 b 0 750 49 736 32 750 l 0 972 l 735 972 l 735 667 l 547 667 b 449 750 547 714 506 750 m 392 1028 l 229 1181 l 229 1222 l 435 1222 l 543 1039 l 543 1028 "},"É":{"ha":776,"x_min":0,"x_max":0,"o":"m 347 750 l 347 569 l 394 569 b 438 618 424 569 438 586 l 597 618 l 597 354 l 438 354 b 394 403 438 386 424 403 l 347 403 l 347 222 l 449 222 b 547 306 506 222 547 258 l 735 306 l 735 0 l 0 0 l 0 222 b 49 265 32 222 49 236 l 49 707 b 0 750 49 736 32 750 l 0 972 l 735 972 l 735 667 l 547 667 b 449 750 547 714 506 750 m 383 1028 l 232 1028 l 232 1039 l 340 1222 l 546 1222 l 546 1181 "},"Ê":{"ha":776,"x_min":0,"x_max":0,"o":"m 347 750 l 347 569 l 394 569 b 438 618 424 569 438 586 l 597 618 l 597 354 l 438 354 b 394 403 438 386 424 403 l 347 403 l 347 222 l 449 222 b 547 306 506 222 547 258 l 735 306 l 735 0 l 0 0 l 0 222 b 49 265 32 222 49 236 l 49 707 b 0 750 49 736 32 750 l 0 972 l 735 972 l 735 667 l 547 667 b 449 750 547 714 506 750 m 288 1219 l 492 1219 l 654 1061 l 654 1028 l 449 1028 l 390 1125 l 331 1028 l 125 1028 l 125 1061 "},"Ë":{"ha":776,"x_min":0,"x_max":0,"o":"m 347 750 l 347 569 l 394 569 b 438 618 424 569 438 586 l 597 618 l 597 354 l 438 354 b 394 403 438 386 424 403 l 347 403 l 347 222 l 449 222 b 547 306 506 222 547 258 l 735 306 l 735 0 l 0 0 l 0 222 b 49 265 32 222 49 236 l 49 707 b 0 750 49 736 32 750 l 0 972 l 735 972 l 735 667 l 547 667 b 449 750 547 714 506 750 m 118 1142 b 235 1257 118 1229 146 1257 b 353 1142 325 1257 353 1229 b 235 1028 353 1056 325 1028 b 118 1142 146 1028 118 1056 m 400 1142 b 517 1257 400 1229 428 1257 b 635 1142 607 1257 635 1229 b 517 1028 635 1056 607 1028 b 400 1142 428 1028 400 1056 "},"Ì":{"ha":438,"x_min":0,"x_max":0,"o":"m 396 0 l 0 0 l 0 222 b 49 265 32 222 49 236 l 49 707 b 0 750 49 736 32 750 l 0 972 l 396 972 l 396 750 b 347 707 364 750 347 736 l 347 265 b 396 222 347 236 364 222 m 203 1028 l 40 1181 l 40 1222 l 246 1222 l 354 1039 l 354 1028 "},"Í":{"ha":438,"x_min":0,"x_max":0,"o":"m 396 0 l 0 0 l 0 222 b 49 265 32 222 49 236 l 49 707 b 0 750 49 736 32 750 l 0 972 l 396 972 l 396 750 b 347 707 364 750 347 736 l 347 265 b 396 222 347 236 364 222 m 206 1028 l 54 1028 l 54 1039 l 163 1222 l 368 1222 l 368 1181 "},"Î":{"ha":438,"x_min":0,"x_max":0,"o":"m 396 0 l 0 0 l 0 222 b 49 265 32 222 49 236 l 49 707 b 0 750 49 736 32 750 l 0 972 l 396 972 l 396 750 b 347 707 364 750 347 736 l 347 265 b 396 222 347 236 364 222 m 97 1219 l 301 1219 l 464 1061 l 464 1028 l 258 1028 l 200 1125 l 140 1028 l -65 1028 l -65 1061 "},"Ï":{"ha":438,"x_min":0,"x_max":0,"o":"m 396 0 l 0 0 l 0 222 b 49 265 32 222 49 236 l 49 707 b 0 750 49 736 32 750 l 0 972 l 396 972 l 396 750 b 347 707 364 750 347 736 l 347 265 b 396 222 347 236 364 222 m -61 1142 b 56 1257 -61 1229 -33 1257 b 174 1142 146 1257 174 1229 b 56 1028 174 1056 146 1028 b -61 1142 -33 1028 -61 1056 m 221 1142 b 338 1257 221 1229 249 1257 b 456 1142 428 1257 456 1229 b 338 1028 456 1056 428 1028 b 221 1142 249 1028 221 1056 "},"Ð":{"ha":899,"x_min":0,"x_max":0,"o":"m 347 390 l 347 222 l 368 222 b 558 489 510 222 558 281 b 368 750 558 693 510 750 l 347 750 l 347 581 l 483 581 l 483 390 m 18 390 l 18 581 l 49 581 l 49 707 b 0 750 49 736 32 750 l 0 972 l 392 972 b 857 486 690 972 857 783 b 392 0 857 189 690 0 l 0 0 l 0 222 b 49 265 32 222 49 236 l 49 390 "},"Ñ":{"ha":1007,"x_min":0,"x_max":0,"o":"m 0 0 l 0 222 b 49 263 32 222 49 235 l 49 710 b 0 750 49 738 32 750 l 0 972 l 431 972 l 694 369 l 694 710 b 646 750 694 738 678 750 l 646 972 l 965 972 l 965 750 b 917 710 933 750 917 738 l 917 263 b 965 222 917 235 933 222 l 965 0 l 549 0 l 271 638 l 271 263 b 319 222 271 235 288 222 l 319 0 m 618 1021 b 392 1088 528 1021 478 1088 b 313 1028 339 1088 313 1028 l 264 1028 b 404 1233 264 1151 321 1233 b 613 1167 490 1233 536 1167 b 696 1226 671 1167 696 1226 l 744 1226 b 618 1021 744 1089 692 1021 "},"Ò":{"ha":971,"x_min":0,"x_max":0,"o":"m 299 489 b 464 215 299 297 360 215 b 631 489 569 215 631 297 b 464 757 631 676 569 757 b 299 489 360 757 299 676 m 0 486 b 464 979 0 788 167 979 b 929 486 763 979 929 788 b 464 -7 929 185 763 -7 b 0 486 167 -7 0 185 m 418 1028 l 256 1181 l 256 1222 l 461 1222 l 569 1039 l 569 1028 "},"Ó":{"ha":971,"x_min":0,"x_max":0,"o":"m 299 489 b 464 215 299 297 360 215 b 631 489 569 215 631 297 b 464 757 631 676 569 757 b 299 489 360 757 299 676 m 0 486 b 464 979 0 788 167 979 b 929 486 763 979 929 788 b 464 -7 929 185 763 -7 b 0 486 167 -7 0 185 m 497 1028 l 346 1028 l 346 1039 l 454 1222 l 660 1222 l 660 1181 "},"Ô":{"ha":971,"x_min":0,"x_max":0,"o":"m 299 489 b 464 215 299 297 360 215 b 631 489 569 215 631 297 b 464 757 631 676 569 757 b 299 489 360 757 299 676 m 0 486 b 464 979 0 788 167 979 b 929 486 763 979 929 788 b 464 -7 929 185 763 -7 b 0 486 167 -7 0 185 m 368 1219 l 572 1219 l 735 1061 l 735 1028 l 529 1028 l 471 1125 l 411 1028 l 206 1028 l 206 1061 "},"Õ":{"ha":971,"x_min":0,"x_max":0,"o":"m 299 489 b 464 215 299 297 360 215 b 631 489 569 215 631 297 b 464 757 631 676 569 757 b 299 489 360 757 299 676 m 0 486 b 464 979 0 788 167 979 b 929 486 763 979 929 788 b 464 -7 929 185 763 -7 b 0 486 167 -7 0 185 m 579 1021 b 353 1088 489 1021 439 1088 b 274 1028 300 1088 274 1028 l 225 1028 b 365 1233 225 1151 282 1233 b 574 1167 451 1233 497 1167 b 657 1226 632 1167 657 1226 l 706 1226 b 579 1021 706 1089 653 1021 "},"Ö":{"ha":971,"x_min":0,"x_max":0,"o":"m 0 486 b 464 979 0 788 167 979 b 929 486 763 979 929 788 b 464 -7 929 185 763 -7 b 0 486 167 -7 0 185 m 299 489 b 464 215 299 297 360 215 b 631 489 569 215 631 297 b 464 757 631 676 569 757 b 299 489 360 757 299 676 m 489 1142 b 606 1257 489 1229 517 1257 b 724 1142 696 1257 724 1229 b 606 1028 724 1056 696 1028 b 489 1142 517 1028 489 1056 m 207 1142 b 324 1257 207 1229 235 1257 b 442 1142 414 1257 442 1229 b 324 1028 442 1056 414 1028 b 207 1142 235 1028 207 1056 "},"×":{"ha":621,"x_min":0,"x_max":0,"o":"m 3 588 l 161 747 l 290 618 l 418 746 l 578 588 l 449 460 l 579 329 l 419 171 l 290 300 l 160 169 l 1 329 l 131 460 "},"Ø":{"ha":971,"x_min":0,"x_max":0,"o":"m 539 739 b 464 757 517 751 492 757 b 299 489 360 757 299 676 b 303 408 299 460 300 432 m 375 243 b 464 215 400 224 429 215 b 631 489 569 215 631 297 b 624 590 631 528 628 561 m 22 0 l 22 14 l 111 138 b 0 486 38 222 0 342 b 464 979 0 788 167 979 b 679 938 546 979 618 965 l 704 972 l 885 972 l 885 958 l 807 849 b 929 486 886 763 929 639 b 464 -7 929 185 763 -7 b 233 43 375 -7 297 10 l 203 0 "},"Ù":{"ha":968,"x_min":0,"x_max":0,"o":"m 579 693 b 522 750 579 729 558 750 l 522 972 l 926 972 l 926 750 b 878 701 894 750 878 735 l 878 411 b 463 -7 878 135 729 -7 b 49 411 197 -7 49 135 l 49 701 b 0 750 49 735 32 750 l 0 972 l 404 972 l 404 750 b 347 693 369 750 347 729 l 347 367 b 463 215 347 274 389 215 b 579 367 538 215 579 274 m 283 1181 l 283 1222 l 489 1222 l 597 1039 l 597 1028 l 446 1028 "},"Ú":{"ha":968,"x_min":0,"x_max":0,"o":"m 579 693 b 522 750 579 729 558 750 l 522 972 l 926 972 l 926 750 b 878 701 894 750 878 735 l 878 411 b 463 -7 878 135 729 -7 b 49 411 197 -7 49 135 l 49 701 b 0 750 49 735 32 750 l 0 972 l 404 972 l 404 750 b 347 693 369 750 347 729 l 347 367 b 463 215 347 274 389 215 b 579 367 538 215 579 274 m 346 1028 l 346 1039 l 454 1222 l 660 1222 l 660 1181 l 497 1028 "},"Û":{"ha":968,"x_min":0,"x_max":0,"o":"m 579 693 b 522 750 579 729 558 750 l 522 972 l 926 972 l 926 750 b 878 701 894 750 878 735 l 878 411 b 463 -7 878 135 729 -7 b 49 411 197 -7 49 135 l 49 701 b 0 750 49 735 32 750 l 0 972 l 404 972 l 404 750 b 347 693 369 750 347 729 l 347 367 b 463 215 347 274 389 215 b 579 367 538 215 579 274 m 586 1219 l 749 1061 l 749 1028 l 543 1028 l 485 1125 l 425 1028 l 219 1028 l 219 1061 l 382 1219 "},"Ü":{"ha":968,"x_min":0,"x_max":0,"o":"m 579 693 b 522 750 579 729 558 750 l 522 972 l 926 972 l 926 750 b 878 701 894 750 878 735 l 878 411 b 463 -7 878 135 729 -7 b 49 411 197 -7 49 135 l 49 701 b 0 750 49 735 32 750 l 0 972 l 404 972 l 404 750 b 347 693 369 750 347 729 l 347 367 b 463 215 347 274 389 215 b 579 367 538 215 579 274 m 507 1142 b 624 1257 507 1229 535 1257 b 742 1142 714 1257 742 1229 b 624 1028 742 1056 714 1028 b 507 1142 535 1028 507 1056 m 225 1142 b 342 1257 225 1229 253 1257 b 460 1142 432 1257 460 1229 b 342 1028 460 1056 432 1028 b 225 1142 253 1028 225 1056 "},"Ý":{"ha":893,"x_min":0,"x_max":0,"o":"m 435 626 l 479 683 b 469 750 507 719 501 750 l 469 972 l 851 972 l 851 750 b 775 707 824 750 796 733 l 575 451 l 575 265 b 624 222 575 236 592 222 l 624 0 l 228 0 l 228 222 b 276 265 260 222 276 236 l 276 451 l 76 707 b 0 750 56 733 28 750 l 0 972 l 399 972 l 399 750 b 389 683 367 750 361 719 m 497 1028 l 346 1028 l 346 1039 l 454 1222 l 660 1222 l 660 1181 "},"Þ":{"ha":771,"x_min":0,"x_max":0,"o":"m 313 279 l 331 279 b 465 400 418 279 465 322 b 331 504 465 463 411 504 l 313 504 m 0 -56 l 0 167 b 49 210 32 167 49 181 l 49 656 b 0 699 49 685 32 699 l 0 921 l 313 921 l 313 724 l 401 724 b 729 401 603 724 729 600 b 401 71 729 204 596 71 l 313 71 l 313 -56 "},"ß":{"ha":903,"x_min":0,"x_max":0,"o":"m 347 239 b 447 222 371 231 406 222 b 563 329 513 222 563 254 b 407 432 563 400 503 432 l 347 432 m 347 613 l 401 613 b 514 683 474 613 514 638 b 429 750 514 721 476 750 b 347 625 367 750 347 697 m 49 625 b 436 972 49 828 203 972 b 799 731 642 972 799 872 b 692 560 799 658 763 599 b 861 307 804 508 861 419 b 478 0 861 119 717 0 b 344 18 417 0 371 10 b 317 -186 336 -92 317 -186 l 18 -186 b 49 104 18 -186 49 -31 "},"à":{"ha":742,"x_min":0,"x_max":0,"o":"m 388 372 b 265 247 314 371 265 317 b 326 167 265 199 290 167 b 388 275 364 167 388 204 m 388 435 b 301 479 382 464 358 479 b 71 418 167 479 71 418 l 64 418 l 64 640 b 350 701 64 640 181 701 b 651 410 542 701 651 594 l 651 265 b 700 222 651 236 668 222 l 700 0 l 388 0 l 388 83 b 206 -7 346 26 283 -7 b 0 188 83 -7 0 68 b 388 435 0 328 101 433 m 363 743 l 200 938 l 200 979 l 406 979 l 514 757 l 514 743 "},"á":{"ha":742,"x_min":0,"x_max":0,"o":"m 388 372 b 265 247 314 371 265 317 b 326 167 265 199 290 167 b 388 275 364 167 388 204 m 388 435 b 301 479 382 464 358 479 b 71 418 167 479 71 418 l 64 418 l 64 640 b 350 701 64 640 181 701 b 651 410 542 701 651 594 l 651 265 b 700 222 651 236 668 222 l 700 0 l 388 0 l 388 83 b 206 -7 346 26 283 -7 b 0 188 83 -7 0 68 b 388 435 0 328 101 433 m 365 743 l 214 743 l 214 757 l 322 979 l 528 979 l 528 938 "},"â":{"ha":742,"x_min":0,"x_max":0,"o":"m 388 372 b 265 247 314 371 265 317 b 326 167 265 199 290 167 b 388 275 364 167 388 204 m 388 435 b 301 479 382 464 358 479 b 71 418 167 479 71 418 l 64 418 l 64 640 b 350 701 64 640 181 701 b 651 410 542 701 651 594 l 651 265 b 700 222 651 236 668 222 l 700 0 l 388 0 l 388 83 b 206 -7 346 26 283 -7 b 0 188 83 -7 0 68 b 388 435 0 328 101 433 m 460 979 l 622 785 l 622 743 l 417 743 l 358 864 l 299 743 l 93 743 l 93 785 l 256 979 "},"ã":{"ha":742,"x_min":0,"x_max":0,"o":"m 388 372 b 265 247 314 371 265 317 b 326 167 265 199 290 167 b 388 275 364 167 388 204 m 388 435 b 301 479 382 464 358 479 b 71 418 167 479 71 418 l 64 418 l 64 640 b 350 701 64 640 181 701 b 651 410 542 701 651 594 l 651 265 b 700 222 651 236 668 222 l 700 0 l 388 0 l 388 83 b 206 -7 346 26 283 -7 b 0 188 83 -7 0 68 b 388 435 0 328 101 433 m 464 736 b 238 803 374 736 324 803 b 158 743 185 803 158 743 l 110 743 b 250 949 110 867 167 949 b 458 882 336 949 382 882 b 542 942 517 882 542 942 l 590 942 b 464 736 590 804 538 736 "},"ä":{"ha":742,"x_min":0,"x_max":0,"o":"m 388 372 b 265 247 314 371 265 317 b 326 167 265 199 290 167 b 388 275 364 167 388 204 m 388 435 b 301 479 382 464 358 479 b 71 418 167 479 71 418 l 64 418 l 64 640 b 350 701 64 640 181 701 b 651 410 542 701 651 594 l 651 265 b 700 222 651 236 668 222 l 700 0 l 388 0 l 388 83 b 206 -7 346 26 283 -7 b 0 188 83 -7 0 68 b 388 435 0 328 101 433 m 92 857 b 208 972 92 944 119 972 b 326 857 299 972 326 944 b 208 743 326 771 299 743 b 92 857 119 743 92 771 m 374 857 b 490 972 374 944 401 972 b 608 857 581 972 608 944 b 490 743 608 771 581 743 b 374 857 401 743 374 771 "},"å":{"ha":742,"x_min":0,"x_max":0,"o":"m 388 372 b 265 247 314 371 265 317 b 326 167 265 199 290 167 b 388 275 364 167 388 204 m 311 869 b 351 810 311 828 325 810 b 390 869 376 810 390 828 b 351 929 390 911 376 929 b 311 869 325 929 311 911 m 388 435 b 301 479 382 464 358 479 b 71 418 167 479 71 418 l 64 418 l 64 640 b 350 701 64 640 181 701 b 651 410 542 701 651 594 l 651 265 b 700 222 651 236 668 222 l 700 0 l 388 0 l 388 83 b 206 -7 346 26 283 -7 b 0 188 83 -7 0 68 b 388 435 0 328 101 433 m 207 869 b 350 997 207 947 258 997 b 496 869 443 997 496 947 b 350 743 496 792 443 743 b 207 869 258 743 207 792 "},"æ":{"ha":1092,"x_min":0,"x_max":0,"o":"m 388 372 b 265 247 314 371 265 317 b 326 167 265 199 290 167 b 388 278 364 167 388 206 m 788 447 b 725 515 788 490 765 515 b 660 447 689 515 664 490 m 651 0 l 388 0 l 388 83 b 206 -7 346 26 283 -7 b 0 188 83 -7 0 68 b 388 435 0 329 101 433 b 301 479 382 464 358 479 b 71 418 167 479 71 418 l 64 418 l 64 640 b 350 701 64 640 181 701 b 544 649 429 701 494 683 b 746 703 600 683 668 703 b 1050 322 947 703 1050 564 l 660 322 b 811 215 671 260 732 215 b 1029 268 946 215 1029 268 l 1036 268 l 1036 46 b 785 -7 1036 46 949 -7 b 651 10 736 -7 692 -1 "},"ç":{"ha":760,"x_min":0,"x_max":0,"o":"m 340 -278 b 238 -239 281 -278 238 -239 l 257 -161 l 260 -161 b 326 -192 260 -161 290 -192 b 368 -153 353 -192 368 -176 b 339 -112 368 -129 357 -112 b 321 -124 326 -112 321 -124 l 317 -124 l 285 -103 l 315 -4 b 0 347 126 15 0 153 b 308 701 0 558 125 701 b 453 532 404 701 453 643 l 453 694 l 717 694 l 717 413 l 447 413 b 368 514 447 472 415 514 b 265 351 300 514 265 464 b 365 181 265 232 300 181 b 454 314 422 181 454 226 l 717 314 b 383 -6 717 125 589 3 l 376 -36 b 479 -150 429 -36 479 -82 b 340 -278 479 -229 418 -278 "},"è":{"ha":699,"x_min":0,"x_max":0,"o":"m 394 447 b 332 515 394 490 372 515 b 267 447 296 515 271 490 m 643 268 l 643 46 b 392 -7 643 46 556 -7 b 0 356 129 -7 0 158 b 353 703 0 565 146 703 b 657 322 554 703 657 564 l 267 322 b 418 215 278 260 339 215 b 636 268 553 215 636 268 m 356 743 l 193 938 l 193 979 l 399 979 l 507 757 l 507 743 "},"é":{"ha":699,"x_min":0,"x_max":0,"o":"m 394 447 b 332 515 394 490 372 515 b 267 447 296 515 271 490 m 643 268 l 643 46 b 392 -7 643 46 556 -7 b 0 356 129 -7 0 158 b 353 703 0 565 146 703 b 657 322 554 703 657 564 l 267 322 b 418 215 278 260 339 215 b 636 268 553 215 636 268 m 344 743 l 193 743 l 193 757 l 301 979 l 507 979 l 507 938 "},"ê":{"ha":699,"x_min":0,"x_max":0,"o":"m 394 447 b 332 515 394 490 372 515 b 267 447 296 515 271 490 m 643 268 l 643 46 b 392 -7 643 46 556 -7 b 0 356 129 -7 0 158 b 353 703 0 565 146 703 b 657 322 554 703 657 564 l 267 322 b 418 215 278 260 339 215 b 636 268 553 215 636 268 m 451 979 l 614 785 l 614 743 l 408 743 l 350 864 l 290 743 l 85 743 l 85 785 l 247 979 "},"ë":{"ha":699,"x_min":0,"x_max":0,"o":"m 394 447 b 332 515 394 490 372 515 b 267 447 296 515 271 490 m 643 268 l 643 46 b 392 -7 643 46 556 -7 b 0 356 129 -7 0 158 b 353 703 0 565 146 703 b 657 322 554 703 657 564 l 267 322 b 418 215 278 260 339 215 b 636 268 553 215 636 268 m 92 857 b 208 972 92 944 119 972 b 326 857 299 972 326 944 b 208 743 326 771 299 743 b 92 857 119 743 92 771 m 374 857 b 490 972 374 944 401 972 b 608 857 581 972 608 944 b 490 743 608 771 581 743 b 374 857 401 743 374 771 "},"ì":{"ha":403,"x_min":0,"x_max":0,"o":"m 361 0 l 0 0 l 0 222 b 49 265 32 222 49 236 l 49 429 b 0 472 49 458 32 472 l 0 694 l 313 694 l 313 265 b 361 222 313 236 329 222 m 165 743 l 3 938 l 3 979 l 208 979 l 317 757 l 317 743 "},"í":{"ha":403,"x_min":0,"x_max":0,"o":"m 361 0 l 0 0 l 0 222 b 49 265 32 222 49 236 l 49 429 b 0 472 49 458 32 472 l 0 694 l 313 694 l 313 265 b 361 222 313 236 329 222 m 168 743 l 17 743 l 17 757 l 125 979 l 331 979 l 331 938 "},"î":{"ha":403,"x_min":0,"x_max":0,"o":"m 361 0 l 0 0 l 0 222 b 49 265 32 222 49 236 l 49 429 b 0 472 49 458 32 472 l 0 694 l 313 694 l 313 265 b 361 222 313 236 329 222 m 293 979 l 456 785 l 456 743 l 250 743 l 192 864 l 132 743 l -74 743 l -74 785 l 89 979 "},"ï":{"ha":403,"x_min":0,"x_max":0,"o":"m 361 0 l 0 0 l 0 222 b 49 265 32 222 49 236 l 49 429 b 0 472 49 458 32 472 l 0 694 l 313 694 l 313 265 b 361 222 313 236 329 222 m -86 857 b 31 972 -86 944 -58 972 b 149 857 121 972 149 944 b 31 743 149 771 121 743 b -86 857 -58 743 -86 771 m 196 857 b 313 972 196 944 224 972 b 431 857 403 972 431 944 b 313 743 431 771 403 743 b 196 857 224 743 196 771 "},"ð":{"ha":790,"x_min":0,"x_max":0,"o":"m 446 314 b 369 331 421 324 394 331 b 279 269 311 331 279 313 b 346 215 279 232 307 215 b 446 314 386 215 424 240 m 581 979 l 690 844 l 654 815 b 749 468 715 728 749 608 b 338 -7 749 167 578 -7 b 0 288 143 -7 0 119 b 296 556 0 449 125 556 b 468 524 365 556 426 539 b 442 646 467 568 458 610 l 342 564 l 233 704 l 307 763 b 276 765 297 764 288 765 b 133 717 199 765 133 717 l 119 717 l 119 928 b 322 983 119 928 188 983 b 525 935 399 983 467 967 "},"ñ":{"ha":804,"x_min":0,"x_max":0,"o":"m 401 0 l 401 222 b 450 265 433 222 450 236 l 450 399 b 381 488 450 458 415 488 b 313 394 346 488 313 456 l 313 265 b 361 222 313 236 329 222 l 361 0 l 0 0 l 0 222 b 49 265 32 222 49 236 l 49 429 b 0 472 49 458 32 472 l 0 694 l 313 694 l 313 615 b 510 701 358 669 426 701 b 714 483 629 701 714 615 l 714 265 b 763 222 714 236 731 222 l 763 0 m 503 736 b 276 803 413 736 363 803 b 197 743 224 803 197 743 l 149 743 b 289 949 149 867 206 949 b 497 882 375 949 421 882 b 581 942 556 882 581 942 l 629 942 b 503 736 629 804 576 736 "},"ò":{"ha":767,"x_min":0,"x_max":0,"o":"m 265 349 b 363 181 265 232 300 181 b 461 349 426 181 461 232 b 363 514 461 464 426 514 b 265 349 300 514 265 464 m 0 347 b 363 701 0 564 131 701 b 725 347 596 701 725 564 b 363 -7 725 132 596 -7 b 0 347 131 -7 0 132 m 333 743 l 171 938 l 171 979 l 376 979 l 485 757 l 485 743 "},"ó":{"ha":767,"x_min":0,"x_max":0,"o":"m 265 349 b 363 181 265 232 300 181 b 461 349 426 181 461 232 b 363 514 461 464 426 514 b 265 349 300 514 265 464 m 0 347 b 363 701 0 564 131 701 b 725 347 596 701 725 564 b 363 -7 725 132 596 -7 b 0 347 131 -7 0 132 m 378 743 l 226 743 l 226 757 l 335 979 l 540 979 l 540 938 "},"ô":{"ha":767,"x_min":0,"x_max":0,"o":"m 265 349 b 363 181 265 232 300 181 b 461 349 426 181 461 232 b 363 514 461 464 426 514 b 265 349 300 514 265 464 m 0 347 b 363 701 0 564 131 701 b 725 347 596 701 725 564 b 363 -7 725 132 596 -7 b 0 347 131 -7 0 132 m 472 979 l 635 785 l 635 743 l 429 743 l 371 864 l 311 743 l 106 743 l 106 785 l 268 979 "},"õ":{"ha":767,"x_min":0,"x_max":0,"o":"m 265 349 b 363 181 265 232 300 181 b 461 349 426 181 461 232 b 363 514 461 464 426 514 b 265 349 300 514 265 464 m 0 347 b 363 701 0 564 131 701 b 725 347 596 701 725 564 b 363 -7 725 132 596 -7 b 0 347 131 -7 0 132 m 476 736 b 250 803 386 736 336 803 b 171 743 197 803 171 743 l 122 743 b 263 949 122 867 179 949 b 471 882 349 949 394 882 b 554 942 529 882 554 942 l 603 942 b 476 736 603 804 550 736 "},"ö":{"ha":767,"x_min":0,"x_max":0,"o":"m 0 347 b 363 701 0 564 131 701 b 725 347 596 701 725 564 b 363 -7 725 132 596 -7 b 0 347 131 -7 0 132 m 265 349 b 363 181 265 232 300 181 b 461 349 426 181 461 232 b 363 514 461 464 426 514 b 265 349 300 514 265 464 m 386 857 b 503 972 386 944 414 972 b 621 857 593 972 621 944 b 503 743 621 771 593 743 b 386 857 414 743 386 771 m 104 857 b 221 972 104 944 132 972 b 339 857 311 972 339 944 b 221 743 339 771 311 743 b 104 857 132 743 104 771 "},"÷":{"ha":632,"x_min":0,"x_max":0,"o":"m 0 571 l 590 571 l 590 346 l 0 346 m 178 710 b 294 825 178 797 206 825 b 413 710 385 825 413 797 b 294 596 413 624 385 596 b 178 710 206 596 178 624 m 178 203 b 294 318 178 290 206 318 b 413 203 385 318 413 290 b 294 89 413 117 385 89 b 178 203 206 89 178 117 "},"ø":{"ha":767,"x_min":0,"x_max":0,"o":"m 389 511 b 363 514 381 514 372 514 b 265 343 274 514 265 410 m 339 185 b 363 181 346 182 354 181 b 461 351 453 181 461 283 m 22 0 l 22 14 l 85 99 b 0 347 29 160 0 246 b 363 701 0 564 131 701 b 513 679 418 701 468 694 l 524 694 l 704 694 l 704 681 l 642 596 b 725 347 696 535 725 450 b 363 -7 725 132 596 -7 b 215 17 307 -7 258 1 l 203 0 "},"ù":{"ha":804,"x_min":0,"x_max":0,"o":"m 450 429 b 401 472 450 458 433 472 l 401 694 l 714 694 l 714 265 b 763 222 714 236 731 222 l 763 0 l 450 0 l 450 86 b 236 -7 400 29 325 -7 b 49 193 125 -7 49 75 l 49 429 b 0 472 49 458 32 472 l 0 694 l 313 694 l 313 296 b 382 207 313 236 342 207 b 450 300 428 207 450 246 m 367 743 l 204 938 l 204 979 l 410 979 l 518 757 l 518 743 "},"ú":{"ha":804,"x_min":0,"x_max":0,"o":"m 450 429 b 401 472 450 458 433 472 l 401 694 l 714 694 l 714 265 b 763 222 714 236 731 222 l 763 0 l 450 0 l 450 86 b 236 -7 400 29 325 -7 b 49 193 125 -7 49 75 l 49 429 b 0 472 49 458 32 472 l 0 694 l 313 694 l 313 296 b 382 207 313 236 342 207 b 450 300 428 207 450 246 m 383 743 l 232 743 l 232 757 l 340 979 l 546 979 l 546 938 "},"û":{"ha":804,"x_min":0,"x_max":0,"o":"m 450 429 b 401 472 450 458 433 472 l 401 694 l 714 694 l 714 265 b 763 222 714 236 731 222 l 763 0 l 450 0 l 450 86 b 236 -7 400 29 325 -7 b 49 193 125 -7 49 75 l 49 429 b 0 472 49 458 32 472 l 0 694 l 313 694 l 313 296 b 382 207 313 236 342 207 b 450 300 428 207 450 246 m 463 979 l 625 785 l 625 743 l 419 743 l 361 864 l 301 743 l 96 743 l 96 785 l 258 979 "},"ü":{"ha":804,"x_min":0,"x_max":0,"o":"m 450 429 b 401 472 450 458 433 472 l 401 694 l 714 694 l 714 265 b 763 222 714 236 731 222 l 763 0 l 450 0 l 450 86 b 236 -7 400 29 325 -7 b 49 193 125 -7 49 75 l 49 429 b 0 472 49 458 32 472 l 0 694 l 313 694 l 313 296 b 382 207 313 236 342 207 b 450 300 428 207 450 246 m 94 857 b 211 972 94 944 122 972 b 329 857 301 972 329 944 b 211 743 329 771 301 743 b 94 857 122 743 94 771 m 376 857 b 493 972 376 944 404 972 b 611 857 583 972 611 944 b 493 743 611 771 583 743 b 376 857 404 743 376 771 "},"ý":{"ha":799,"x_min":0,"x_max":0,"o":"m 165 -74 b 206 -12 199 -74 217 -49 l 63 429 b 0 472 51 464 26 472 l 0 694 l 361 694 l 361 472 b 332 413 324 472 324 447 l 385 193 l 446 415 b 417 472 457 454 449 472 l 417 694 l 757 694 l 757 472 b 696 429 722 472 706 460 l 561 0 b 219 -297 493 -217 399 -297 b 0 -258 76 -297 0 -258 l 0 -36 l 7 -36 b 165 -74 7 -36 75 -67 m 394 743 l 243 743 l 243 757 l 351 979 l 557 979 l 557 938 "},"þ":{"ha":771,"x_min":0,"x_max":0,"o":"m 313 278 b 383 201 313 233 332 201 b 465 351 440 201 465 263 b 383 482 465 424 436 482 b 313 394 332 482 313 444 m 0 -278 l 0 -56 b 49 -12 32 -56 49 -42 l 49 776 b 0 819 49 806 32 819 l 0 1042 l 313 1042 l 313 642 b 451 701 346 681 393 701 b 729 351 618 701 729 574 b 451 -7 729 139 618 -7 b 313 68 390 -7 343 21 l 313 -278 "},"ÿ":{"ha":799,"x_min":0,"x_max":0,"o":"m 165 -74 b 206 -12 199 -74 217 -49 l 63 429 b 0 472 51 464 26 472 l 0 694 l 361 694 l 361 472 b 332 413 324 472 324 447 l 385 193 l 446 415 b 417 472 457 454 449 472 l 417 694 l 757 694 l 757 472 b 696 429 722 472 706 460 l 561 0 b 219 -297 493 -217 399 -297 b 0 -258 76 -297 0 -258 l 0 -36 l 7 -36 b 165 -74 7 -36 75 -67 m 128 857 b 244 972 128 944 156 972 b 363 857 335 972 363 944 b 244 743 363 771 335 743 b 128 857 156 743 128 771 m 410 857 b 526 972 410 944 438 972 b 644 857 617 972 644 944 b 526 743 644 771 617 743 b 410 857 438 743 410 771 "},"Ā":{"ha":921,"x_min":0,"x_max":0,"o":"m 404 694 l 349 493 l 458 493 m 496 354 l 311 354 l 292 281 b 350 222 283 249 317 222 l 350 0 l 0 0 l 0 222 b 68 272 29 222 58 235 l 257 972 l 628 972 l 810 296 b 879 222 824 243 854 222 l 879 0 l 461 0 l 461 222 b 514 285 494 222 522 251 m 225 1028 b 178 1071 189 1028 178 1043 l 178 1167 b 225 1215 178 1200 188 1215 l 646 1215 b 694 1167 685 1215 694 1200 l 694 1071 b 646 1028 694 1043 683 1028 "},"ā":{"ha":742,"x_min":0,"x_max":0,"o":"m 388 372 b 265 247 314 371 265 317 b 326 167 265 199 290 167 b 388 275 364 167 388 204 m 388 435 b 301 479 382 464 358 479 b 71 418 167 479 71 418 l 64 418 l 64 640 b 350 701 64 640 181 701 b 651 410 542 701 651 594 l 651 265 b 700 222 651 236 668 222 l 700 0 l 388 0 l 388 83 b 206 -7 346 26 283 -7 b 0 188 83 -7 0 68 b 388 435 0 328 101 433 m 139 743 b 92 786 103 743 92 758 l 92 882 b 139 931 92 915 101 931 l 560 931 b 608 882 599 931 608 915 l 608 786 b 560 743 608 758 597 743 "},"Ă":{"ha":921,"x_min":0,"x_max":0,"o":"m 404 694 l 349 493 l 458 493 m 496 354 l 311 354 l 292 281 b 350 222 283 249 317 222 l 350 0 l 0 0 l 0 222 b 68 272 29 222 58 235 l 257 972 l 628 972 l 810 296 b 879 222 824 243 854 222 l 879 0 l 461 0 l 461 222 b 514 285 494 222 522 251 m 374 1196 b 451 1136 374 1154 403 1136 b 529 1196 501 1136 529 1154 l 664 1196 b 451 1028 664 1118 600 1028 b 239 1196 303 1028 239 1117 "},"ă":{"ha":742,"x_min":0,"x_max":0,"o":"m 388 372 b 265 247 314 371 265 317 b 326 167 265 199 290 167 b 388 275 364 167 388 204 m 388 435 b 301 479 382 464 358 479 b 71 418 167 479 71 418 l 64 418 l 64 640 b 350 701 64 640 181 701 b 651 410 542 701 651 594 l 651 265 b 700 222 651 236 668 222 l 700 0 l 388 0 l 388 83 b 206 -7 346 26 283 -7 b 0 188 83 -7 0 68 b 388 435 0 328 101 433 m 297 928 b 357 864 297 893 313 864 b 417 928 401 864 417 893 l 569 928 b 357 743 569 850 506 743 b 144 928 208 743 144 849 "},"Ą":{"ha":921,"x_min":0,"x_max":0,"o":"m 404 694 l 349 493 l 458 493 m 647 0 l 461 0 l 461 222 b 514 285 494 222 522 251 l 496 354 l 311 354 l 292 281 b 350 222 283 249 317 222 l 350 0 l 0 0 l 0 222 b 68 272 29 222 58 235 l 257 972 l 628 972 l 810 296 b 879 222 824 243 854 222 l 879 0 l 729 0 l 724 -14 b 785 -89 704 -58 731 -89 b 872 -56 836 -89 872 -56 l 879 -56 l 879 -217 b 768 -250 879 -217 843 -250 b 614 -118 672 -250 614 -194 b 629 -46 614 -96 619 -71 "},"ą":{"ha":742,"x_min":0,"x_max":0,"o":"m 388 372 b 265 247 314 371 265 317 b 326 167 265 199 290 167 b 388 275 364 167 388 204 m 468 0 l 388 0 l 388 83 b 206 -7 346 26 283 -7 b 0 188 83 -7 0 68 b 388 435 0 328 101 433 b 301 479 382 464 358 479 b 71 418 167 479 71 418 l 64 418 l 64 640 b 350 701 64 640 181 701 b 651 410 542 701 651 594 l 651 265 b 700 222 651 236 668 222 l 700 0 l 550 0 l 544 -14 b 606 -89 525 -58 551 -89 b 693 -56 657 -89 693 -56 l 700 -56 l 700 -217 b 589 -250 700 -217 664 -250 b 435 -118 493 -250 435 -194 b 450 -46 435 -96 440 -71 "},"Ć":{"ha":950,"x_min":0,"x_max":0,"o":"m 629 972 l 908 972 l 908 610 l 625 610 b 472 757 625 699 564 757 b 299 489 365 757 299 656 b 472 215 299 317 371 215 b 629 411 578 215 629 279 l 908 411 b 478 -7 908 151 746 -7 b 0 486 188 -7 0 178 b 422 979 0 794 169 979 b 629 779 543 979 629 897 m 497 1028 l 346 1028 l 346 1039 l 454 1222 l 660 1222 l 660 1181 "},"ć":{"ha":760,"x_min":0,"x_max":0,"o":"m 447 413 b 368 514 447 472 415 514 b 265 351 300 514 265 464 b 365 181 265 232 300 181 b 454 314 422 181 454 226 l 717 314 b 363 -7 717 118 579 -7 b 0 347 146 -7 0 138 b 308 701 0 558 125 701 b 453 532 404 701 453 643 l 453 694 l 717 694 l 717 413 m 375 743 l 224 743 l 224 757 l 332 979 l 538 979 l 538 938 "},"Ĉ":{"ha":950,"x_min":0,"x_max":0,"o":"m 629 972 l 908 972 l 908 610 l 625 610 b 472 757 625 699 564 757 b 299 489 365 757 299 656 b 472 215 299 317 371 215 b 629 411 578 215 629 279 l 908 411 b 478 -7 908 151 746 -7 b 0 486 188 -7 0 178 b 422 979 0 794 169 979 b 629 779 543 979 629 897 m 388 1219 l 592 1219 l 754 1061 l 754 1028 l 549 1028 l 490 1125 l 431 1028 l 225 1028 l 225 1061 "},"ĉ":{"ha":760,"x_min":0,"x_max":0,"o":"m 447 413 b 368 514 447 472 415 514 b 265 351 300 514 265 464 b 365 181 265 232 300 181 b 454 314 422 181 454 226 l 717 314 b 363 -7 717 118 579 -7 b 0 347 146 -7 0 138 b 308 701 0 558 125 701 b 453 532 404 701 453 643 l 453 694 l 717 694 l 717 413 m 482 979 l 644 785 l 644 743 l 439 743 l 381 864 l 321 743 l 115 743 l 115 785 l 278 979 "},"Ċ":{"ha":950,"x_min":0,"x_max":0,"o":"m 629 972 l 908 972 l 908 610 l 625 610 b 472 757 625 699 564 757 b 299 489 365 757 299 656 b 472 215 299 317 371 215 b 629 411 578 215 629 279 l 908 411 b 478 -7 908 151 746 -7 b 0 486 188 -7 0 178 b 422 979 0 794 169 979 b 629 779 543 979 629 897 m 336 1197 b 453 1313 336 1285 364 1313 b 571 1197 543 1313 571 1285 b 453 1083 571 1111 543 1083 b 336 1197 364 1083 336 1111 "},"ċ":{"ha":760,"x_min":0,"x_max":0,"o":"m 447 413 b 368 514 447 472 415 514 b 265 351 300 514 265 464 b 365 181 265 232 300 181 b 454 314 422 181 454 226 l 717 314 b 363 -7 717 118 579 -7 b 0 347 146 -7 0 138 b 308 701 0 558 125 701 b 453 532 404 701 453 643 l 453 694 l 717 694 l 717 413 m 242 857 b 358 972 242 944 269 972 b 476 857 449 972 476 944 b 358 743 476 771 449 743 b 242 857 269 743 242 771 "},"Č":{"ha":950,"x_min":0,"x_max":0,"o":"m 629 972 l 908 972 l 908 610 l 625 610 b 472 757 625 699 564 757 b 299 489 365 757 299 656 b 472 215 299 317 371 215 b 629 411 578 215 629 279 l 908 411 b 478 -7 908 151 746 -7 b 0 486 188 -7 0 178 b 422 979 0 794 169 979 b 629 779 543 979 629 897 m 547 1028 l 343 1028 l 181 1186 l 181 1219 l 386 1219 l 446 1122 l 504 1219 l 710 1219 l 710 1186 "},"č":{"ha":760,"x_min":0,"x_max":0,"o":"m 447 413 b 368 514 447 472 415 514 b 265 351 300 514 265 464 b 365 181 265 232 300 181 b 454 314 422 181 454 226 l 717 314 b 363 -7 717 118 579 -7 b 0 347 146 -7 0 138 b 308 701 0 558 125 701 b 453 532 404 701 453 643 l 453 694 l 717 694 l 717 413 m 278 743 l 115 938 l 115 979 l 321 979 l 381 858 l 439 979 l 644 979 l 644 938 l 482 743 "},"Ď":{"ha":899,"x_min":0,"x_max":0,"o":"m 347 222 l 368 222 b 558 489 510 222 558 281 b 368 750 558 693 510 750 l 347 750 m 0 972 l 392 972 b 857 486 690 972 857 783 b 392 0 857 189 690 0 l 0 0 l 0 222 b 49 265 32 222 49 236 l 49 707 b 0 750 49 736 32 750 m 496 1028 l 292 1028 l 129 1186 l 129 1219 l 335 1219 l 394 1122 l 453 1219 l 658 1219 l 658 1186 "},"ď":{"ha":1047,"x_min":0,"x_max":0,"o":"m 417 394 b 346 482 417 444 397 482 b 264 351 293 482 264 424 b 346 201 264 263 289 201 b 417 278 397 201 417 233 m 681 1042 l 681 265 b 729 222 681 236 697 222 l 729 0 l 417 0 l 417 68 b 278 -7 386 21 339 -7 b 0 351 111 -7 0 139 b 278 701 0 574 111 701 b 417 642 336 701 383 681 l 417 776 b 368 819 417 806 400 819 l 368 1042 m 857 743 l 706 743 l 706 757 l 800 979 l 1006 979 l 1006 938 "},"Đ":{"ha":899,"x_min":0,"x_max":0,"o":"m 347 392 l 347 222 l 368 222 b 558 489 510 222 558 281 b 368 750 558 693 510 750 l 347 750 l 347 582 l 490 582 l 490 392 m 25 392 l 25 582 l 49 582 l 49 707 b 0 750 49 736 32 750 l 0 972 l 392 972 b 857 486 690 972 857 783 b 392 0 857 189 690 0 l 0 0 l 0 222 b 49 265 32 222 49 236 l 49 392 "},"đ":{"ha":771,"x_min":0,"x_max":0,"o":"m 417 394 b 346 482 417 444 397 482 b 264 351 293 482 264 424 b 346 201 264 263 289 201 b 417 278 397 201 417 233 m 681 265 b 729 222 681 236 697 222 l 729 0 l 417 0 l 417 68 b 278 -7 386 21 339 -7 b 0 351 111 -7 0 139 b 278 701 0 574 111 701 b 417 642 336 701 383 681 l 417 701 l 368 701 l 368 843 l 415 843 b 368 875 413 865 396 875 l 368 1042 l 681 1042 l 681 842 l 726 842 l 726 701 l 681 701 "},"Ē":{"ha":776,"x_min":0,"x_max":0,"o":"m 347 750 l 347 569 l 394 569 b 438 618 424 569 438 586 l 597 618 l 597 354 l 438 354 b 394 403 438 386 424 403 l 347 403 l 347 222 l 449 222 b 547 306 506 222 547 258 l 735 306 l 735 0 l 0 0 l 0 222 b 49 265 32 222 49 236 l 49 707 b 0 750 49 736 32 750 l 0 972 l 735 972 l 735 667 l 547 667 b 449 750 547 714 506 750 m 157 1031 b 110 1074 121 1031 110 1046 l 110 1169 b 157 1218 110 1203 119 1218 l 578 1218 b 626 1169 617 1218 626 1203 l 626 1074 b 578 1031 626 1046 615 1031 "},"ē":{"ha":699,"x_min":0,"x_max":0,"o":"m 394 447 b 332 515 394 490 372 515 b 267 447 296 515 271 490 m 643 268 l 643 46 b 392 -7 643 46 556 -7 b 0 356 129 -7 0 158 b 353 703 0 565 146 703 b 657 322 554 703 657 564 l 267 322 b 418 215 278 260 339 215 b 636 268 553 215 636 268 m 139 743 b 92 786 103 743 92 758 l 92 882 b 139 931 92 915 101 931 l 560 931 b 608 882 599 931 608 915 l 608 786 b 560 743 608 758 597 743 "},"Ĕ":{"ha":776,"x_min":0,"x_max":0,"o":"m 347 750 l 347 569 l 394 569 b 438 618 424 569 438 586 l 597 618 l 597 354 l 438 354 b 394 403 438 386 424 403 l 347 403 l 347 222 l 449 222 b 547 306 506 222 547 258 l 735 306 l 735 0 l 0 0 l 0 222 b 49 265 32 222 49 236 l 49 707 b 0 750 49 736 32 750 l 0 972 l 735 972 l 735 667 l 547 667 b 449 750 547 714 506 750 m 308 1196 b 386 1136 308 1154 338 1136 b 464 1196 436 1136 464 1154 l 599 1196 b 386 1028 599 1118 535 1028 b 174 1196 238 1028 174 1117 "},"ĕ":{"ha":699,"x_min":0,"x_max":0,"o":"m 394 447 b 332 515 394 490 372 515 b 267 447 296 515 271 490 m 643 268 l 643 46 b 392 -7 643 46 556 -7 b 0 356 129 -7 0 158 b 353 703 0 565 146 703 b 657 322 554 703 657 564 l 267 322 b 418 215 278 260 339 215 b 636 268 553 215 636 268 m 293 928 b 353 864 293 893 308 864 b 413 928 397 864 413 893 l 565 928 b 353 743 565 850 501 743 b 140 928 204 743 140 849 "},"Ė":{"ha":776,"x_min":0,"x_max":0,"o":"m 347 750 l 347 569 l 394 569 b 438 618 424 569 438 586 l 597 618 l 597 354 l 438 354 b 394 403 438 386 424 403 l 347 403 l 347 222 l 449 222 b 547 306 506 222 547 258 l 735 306 l 735 0 l 0 0 l 0 222 b 49 265 32 222 49 236 l 49 707 b 0 750 49 736 32 750 l 0 972 l 735 972 l 735 667 l 547 667 b 449 750 547 714 506 750 m 278 1142 b 394 1257 278 1229 306 1257 b 513 1142 485 1257 513 1229 b 394 1028 513 1056 485 1028 b 278 1142 306 1028 278 1056 "},"ė":{"ha":699,"x_min":0,"x_max":0,"o":"m 394 447 b 332 515 394 490 372 515 b 267 447 296 515 271 490 m 643 268 l 643 46 b 392 -7 643 46 556 -7 b 0 356 129 -7 0 158 b 353 703 0 565 146 703 b 657 322 554 703 657 564 l 267 322 b 418 215 278 260 339 215 b 636 268 553 215 636 268 m 236 857 b 353 972 236 944 264 972 b 471 857 443 972 471 944 b 353 743 471 771 443 743 b 236 857 264 743 236 771 "},"Ę":{"ha":776,"x_min":0,"x_max":0,"o":"m 415 0 l 0 0 l 0 222 b 49 265 32 222 49 236 l 49 707 b 0 750 49 736 32 750 l 0 972 l 735 972 l 735 667 l 547 667 b 449 750 547 714 506 750 l 347 750 l 347 569 l 394 569 b 438 618 424 569 438 586 l 597 618 l 597 354 l 438 354 b 394 403 438 386 424 403 l 347 403 l 347 222 l 449 222 b 547 306 506 222 547 258 l 735 306 l 735 0 l 497 0 l 492 -14 b 553 -89 472 -58 499 -89 b 640 -56 604 -89 640 -56 l 647 -56 l 647 -217 b 536 -250 647 -217 611 -250 b 382 -118 440 -250 382 -194 b 397 -46 382 -96 388 -71 "},"ę":{"ha":699,"x_min":0,"x_max":0,"o":"m 394 447 b 332 515 394 490 372 515 b 267 447 296 515 271 490 m 394 -7 b 0 356 169 -7 0 119 b 353 703 0 565 146 703 b 657 322 554 703 657 564 l 267 322 b 418 215 278 260 339 215 b 636 268 553 215 636 268 l 643 268 l 643 46 b 479 -1 643 46 586 11 l 474 -14 b 535 -89 454 -58 481 -89 b 622 -56 586 -89 622 -56 l 629 -56 l 629 -217 b 518 -250 629 -217 593 -250 b 364 -118 422 -250 364 -194 b 379 -46 364 -96 369 -71 "},"Ě":{"ha":776,"x_min":0,"x_max":0,"o":"m 347 750 l 347 569 l 394 569 b 438 618 424 569 438 586 l 597 618 l 597 354 l 438 354 b 394 403 438 386 424 403 l 347 403 l 347 222 l 449 222 b 547 306 506 222 547 258 l 735 306 l 735 0 l 0 0 l 0 222 b 49 265 32 222 49 236 l 49 707 b 0 750 49 736 32 750 l 0 972 l 735 972 l 735 667 l 547 667 b 449 750 547 714 506 750 m 482 1028 l 278 1028 l 115 1186 l 115 1219 l 321 1219 l 381 1122 l 439 1219 l 644 1219 l 644 1186 "},"ě":{"ha":699,"x_min":0,"x_max":0,"o":"m 394 447 b 332 515 394 490 372 515 b 267 447 296 515 271 490 m 643 268 l 643 46 b 392 -7 643 46 556 -7 b 0 356 129 -7 0 158 b 353 703 0 565 146 703 b 657 322 554 703 657 564 l 267 322 b 418 215 278 260 339 215 b 636 268 553 215 636 268 m 247 743 l 85 938 l 85 979 l 290 979 l 350 858 l 408 979 l 614 979 l 614 938 l 451 743 "},"Ĝ":{"ha":951,"x_min":0,"x_max":0,"o":"m 629 972 l 907 972 l 907 610 l 625 610 b 472 757 625 699 564 757 b 299 489 365 757 299 656 b 475 215 299 297 371 215 b 629 378 575 215 629 281 l 472 378 l 472 517 l 910 517 l 910 408 b 471 -7 910 142 751 -7 b 0 486 181 -7 0 178 b 422 979 0 794 169 979 b 629 779 543 979 629 897 m 403 1219 l 607 1219 l 769 1061 l 769 1028 l 564 1028 l 506 1125 l 446 1028 l 240 1028 l 240 1061 "},"ĝ":{"ha":772,"x_min":0,"x_max":0,"o":"m 346 201 b 417 278 397 201 417 233 l 417 394 b 346 482 417 444 397 482 b 264 351 293 482 264 424 b 346 201 264 263 289 201 m 731 694 l 731 472 b 682 429 699 472 682 458 l 682 56 b 290 -300 682 -142 553 -300 b 39 -247 126 -300 39 -247 l 39 -25 l 46 -25 b 264 -78 46 -25 129 -78 b 417 50 351 -78 417 -24 l 417 68 b 278 -7 386 21 339 -7 b 0 351 111 -7 0 139 b 278 701 0 574 111 701 b 417 642 336 701 383 681 l 417 694 m 489 979 l 651 785 l 651 743 l 446 743 l 388 864 l 328 743 l 122 743 l 122 785 l 285 979 "},"Ğ":{"ha":951,"x_min":0,"x_max":0,"o":"m 629 972 l 907 972 l 907 610 l 625 610 b 472 757 625 699 564 757 b 299 489 365 757 299 656 b 475 215 299 297 371 215 b 629 378 575 215 629 281 l 472 378 l 472 517 l 910 517 l 910 408 b 471 -7 910 142 751 -7 b 0 486 181 -7 0 178 b 422 979 0 794 169 979 b 629 779 543 979 629 897 m 392 1196 b 469 1136 392 1154 421 1136 b 547 1196 519 1136 547 1154 l 682 1196 b 469 1028 682 1118 618 1028 b 257 1196 321 1028 257 1117 "},"ğ":{"ha":772,"x_min":0,"x_max":0,"o":"m 346 201 b 417 278 397 201 417 233 l 417 394 b 346 482 417 444 397 482 b 264 351 293 482 264 424 b 346 201 264 263 289 201 m 731 694 l 731 472 b 682 429 699 472 682 458 l 682 56 b 290 -300 682 -142 553 -300 b 39 -247 126 -300 39 -247 l 39 -25 l 46 -25 b 264 -78 46 -25 129 -78 b 417 50 351 -78 417 -24 l 417 68 b 278 -7 386 21 339 -7 b 0 351 111 -7 0 139 b 278 701 0 574 111 701 b 417 642 336 701 383 681 l 417 694 m 326 928 b 386 864 326 893 342 864 b 446 928 431 864 446 893 l 599 928 b 386 743 599 850 535 743 b 174 928 238 743 174 849 "},"Ġ":{"ha":951,"x_min":0,"x_max":0,"o":"m 629 972 l 907 972 l 907 610 l 625 610 b 472 757 625 699 564 757 b 299 489 365 757 299 656 b 475 215 299 297 371 215 b 629 378 575 215 629 281 l 472 378 l 472 517 l 910 517 l 910 408 b 471 -7 910 142 751 -7 b 0 486 181 -7 0 178 b 422 979 0 794 169 979 b 629 779 543 979 629 897 m 358 1142 b 475 1257 358 1229 386 1257 b 593 1142 565 1257 593 1229 b 475 1028 593 1056 565 1028 b 358 1142 386 1028 358 1056 "},"ġ":{"ha":772,"x_min":0,"x_max":0,"o":"m 346 201 b 417 278 397 201 417 233 l 417 394 b 346 482 417 444 397 482 b 264 351 293 482 264 424 b 346 201 264 263 289 201 m 731 694 l 731 472 b 682 429 699 472 682 458 l 682 56 b 290 -300 682 -142 553 -300 b 39 -247 126 -300 39 -247 l 39 -25 l 46 -25 b 264 -78 46 -25 129 -78 b 417 50 351 -78 417 -24 l 417 68 b 278 -7 386 21 339 -7 b 0 351 111 -7 0 139 b 278 701 0 574 111 701 b 417 642 336 701 383 681 l 417 694 m 268 857 b 385 972 268 944 296 972 b 503 857 475 972 503 944 b 385 743 503 771 475 743 b 268 857 296 743 268 771 "},"Ģ":{"ha":951,"x_min":0,"x_max":0,"o":"m 629 972 l 907 972 l 907 610 l 625 610 b 472 757 625 699 564 757 b 299 489 365 757 299 656 b 475 215 299 297 371 215 b 629 378 575 215 629 281 l 472 378 l 472 517 l 910 517 l 910 408 b 471 -7 910 142 751 -7 b 0 486 181 -7 0 178 b 422 979 0 794 169 979 b 629 779 543 979 629 897 m 499 -292 l 339 -292 l 339 -278 l 447 -56 l 614 -56 l 614 -97 "},"ģ":{"ha":772,"x_min":0,"x_max":0,"o":"m 346 201 b 417 278 397 201 417 233 l 417 394 b 346 482 417 444 397 482 b 264 351 293 482 264 424 b 346 201 264 263 289 201 m 731 694 l 731 472 b 682 429 699 472 682 458 l 682 56 b 290 -300 682 -142 553 -300 b 39 -247 126 -300 39 -247 l 39 -25 l 46 -25 b 264 -78 46 -25 129 -78 b 417 50 351 -78 417 -24 l 417 68 b 278 -7 386 21 339 -7 b 0 351 111 -7 0 139 b 278 701 0 574 111 701 b 417 642 336 701 383 681 l 417 694 m 413 743 l 253 743 l 253 757 l 361 979 l 528 979 l 528 938 "},"Ĥ":{"ha":1029,"x_min":0,"x_max":0,"o":"m 347 417 l 347 265 b 396 222 347 236 364 222 l 396 0 l 0 0 l 0 222 b 49 265 32 222 49 236 l 49 707 b 0 750 49 736 32 750 l 0 972 l 396 972 l 396 750 b 347 707 364 750 347 736 l 347 556 l 601 556 l 601 707 b 553 750 601 736 585 750 l 553 972 l 949 972 l 949 750 b 900 707 917 750 900 736 l 900 265 b 949 222 900 236 917 222 l 949 0 l 553 0 l 553 222 b 601 265 585 222 601 236 l 601 417 m 379 1219 l 583 1219 l 746 1061 l 746 1028 l 540 1028 l 482 1125 l 422 1028 l 217 1028 l 217 1061 "},"ĥ":{"ha":804,"x_min":0,"x_max":0,"o":"m 0 0 l 0 222 b 49 265 32 222 49 236 l 49 776 b 0 819 49 806 32 819 l 0 1042 l 313 1042 l 313 615 b 510 701 358 669 426 701 b 714 483 629 701 714 615 l 714 265 b 763 222 714 236 731 222 l 763 0 l 401 0 l 401 222 b 450 265 433 222 450 236 l 450 399 b 381 488 450 458 415 488 b 313 394 346 488 313 456 l 313 265 b 361 222 313 236 329 222 l 361 0 m 247 1325 l 410 1131 l 410 1089 l 204 1089 l 146 1210 l 86 1089 l -119 1089 l -119 1131 l 43 1325 "},"Ħ":{"ha":1015,"x_min":0,"x_max":0,"o":"m 357 601 l 357 556 l 611 556 l 611 603 m 974 743 l 974 603 l 910 603 l 910 265 b 958 222 910 236 926 222 l 958 0 l 563 0 l 563 222 b 611 265 594 222 611 236 l 611 417 l 357 417 l 357 265 b 406 222 357 236 374 222 l 406 0 l 10 0 l 10 222 b 58 265 42 222 58 236 l 58 601 l 0 601 l 0 743 l 58 743 l 58 749 b 10 792 58 778 42 792 l 10 972 l 406 972 l 406 792 b 357 749 374 792 357 778 l 357 743 l 611 743 l 611 749 b 563 792 611 778 594 792 l 563 972 l 958 972 l 958 792 b 910 749 926 792 910 778 l 910 743 "},"ħ":{"ha":804,"x_min":0,"x_max":0,"o":"m 375 814 l 375 674 l 313 674 l 313 615 b 510 701 358 669 426 701 b 714 483 629 701 714 615 l 714 265 b 763 222 714 236 731 222 l 763 0 l 401 0 l 401 222 b 450 265 433 222 450 236 l 450 399 b 381 488 450 458 415 488 b 313 394 346 488 313 456 l 313 265 b 361 222 313 236 329 222 l 361 0 l 0 0 l 0 222 b 49 265 32 222 49 236 l 49 674 l 8 674 l 8 815 l 49 815 l 49 829 b 0 872 49 858 32 872 l 0 1042 l 313 1042 l 313 814 "},"Ĩ":{"ha":438,"x_min":0,"x_max":0,"o":"m 396 0 l 0 0 l 0 222 b 49 265 32 222 49 236 l 49 707 b 0 750 49 736 32 750 l 0 972 l 396 972 l 396 750 b 347 707 364 750 347 736 l 347 265 b 396 222 347 236 364 222 m 318 1021 b 92 1088 228 1021 178 1088 b 13 1028 39 1088 13 1028 l -36 1028 b 104 1233 -36 1151 21 1233 b 313 1167 190 1233 236 1167 b 396 1226 371 1167 396 1226 l 444 1226 b 318 1021 444 1089 392 1021 "},"ĩ":{"ha":403,"x_min":0,"x_max":0,"o":"m 361 0 l 0 0 l 0 222 b 49 265 32 222 49 236 l 49 429 b 0 472 49 458 32 472 l 0 694 l 313 694 l 313 265 b 361 222 313 236 329 222 m 286 736 b 60 803 196 736 146 803 b -19 743 7 803 -19 743 l -68 743 b 72 949 -68 867 -11 949 b 281 882 158 949 204 882 b 364 942 339 882 364 942 l 413 942 b 286 736 413 804 360 736 "},"Ī":{"ha":438,"x_min":0,"x_max":0,"o":"m 396 0 l 0 0 l 0 222 b 49 265 32 222 49 236 l 49 707 b 0 750 49 736 32 750 l 0 972 l 396 972 l 396 750 b 347 707 364 750 347 736 l 347 265 b 396 222 347 236 364 222 m -12 1028 b -60 1071 -49 1028 -60 1043 l -60 1167 b -12 1215 -60 1200 -50 1215 l 408 1215 b 457 1167 447 1215 457 1200 l 457 1071 b 408 1028 457 1043 446 1028 "},"ī":{"ha":403,"x_min":0,"x_max":0,"o":"m 361 0 l 0 0 l 0 222 b 49 265 32 222 49 236 l 49 429 b 0 472 49 458 32 472 l 0 694 l 313 694 l 313 265 b 361 222 313 236 329 222 m -39 743 b -86 786 -75 743 -86 758 l -86 882 b -39 931 -86 915 -76 931 l 382 931 b 431 882 421 931 431 915 l 431 786 b 382 743 431 758 419 743 "},"Ĭ":{"ha":438,"x_min":0,"x_max":0,"o":"m 396 0 l 0 0 l 0 222 b 49 265 32 222 49 236 l 49 707 b 0 750 49 736 32 750 l 0 972 l 396 972 l 396 750 b 347 707 364 750 347 736 l 347 265 b 396 222 347 236 364 222 m 128 1194 b 206 1135 128 1153 157 1135 b 283 1194 256 1135 283 1153 l 418 1194 b 206 1026 418 1117 354 1026 b -7 1194 57 1026 -7 1115 "},"Į":{"ha":438,"x_min":0,"x_max":0,"o":"m 164 0 l 0 0 l 0 222 b 49 265 32 222 49 236 l 49 707 b 0 750 49 736 32 750 l 0 972 l 396 972 l 396 750 b 347 707 364 750 347 736 l 347 265 b 396 222 347 236 364 222 l 396 0 l 246 0 l 240 -14 b 301 -89 221 -58 247 -89 b 389 -56 353 -89 389 -56 l 396 -56 l 396 -217 b 285 -250 396 -217 360 -250 b 131 -118 189 -250 131 -194 b 146 -46 131 -96 136 -71 "},"į":{"ha":403,"x_min":0,"x_max":0,"o":"m 103 0 l 0 0 l 0 222 b 49 265 32 222 49 236 l 49 429 b 0 472 49 458 32 472 l 0 694 l 313 694 l 313 265 b 361 222 313 236 329 222 l 361 0 l 185 0 l 179 -14 b 240 -89 160 -58 186 -89 b 328 -56 292 -89 328 -56 l 335 -56 l 335 -217 b 224 -250 335 -217 299 -250 b 69 -118 128 -250 69 -194 b 85 -46 69 -96 75 -71 m 25 869 b 168 1010 25 954 76 1010 b 311 869 260 1010 311 954 b 168 729 311 783 260 729 b 25 869 76 729 25 783 "},"İ":{"ha":438,"x_min":0,"x_max":0,"o":"m 396 0 l 0 0 l 0 222 b 49 265 32 222 49 236 l 49 707 b 0 750 49 736 32 750 l 0 972 l 396 972 l 396 750 b 347 707 364 750 347 736 l 347 265 b 396 222 347 236 364 222 m 81 1142 b 197 1257 81 1229 108 1257 b 315 1142 288 1257 315 1229 b 197 1028 315 1056 288 1028 b 81 1142 108 1028 81 1056 "},"ı":{"ha":403,"x_min":0,"x_max":0,"o":"m 361 0 l 0 0 l 0 222 b 49 265 32 222 49 236 l 49 429 b 0 472 49 458 32 472 l 0 694 l 313 694 l 313 265 b 361 222 313 236 329 222 "},"Ĳ":{"ha":1276,"x_min":0,"x_max":0,"o":"m 396 0 l 0 0 l 0 222 b 49 265 32 222 49 236 l 49 707 b 0 750 49 736 32 750 l 0 972 l 396 972 l 396 750 b 347 707 364 750 347 736 l 347 265 b 396 222 347 236 364 222 m 796 972 l 796 801 b 972 972 796 908 863 972 l 1235 972 l 1235 750 b 1186 701 1203 750 1186 735 l 1186 411 b 801 -7 1186 135 1038 -7 b 438 333 588 -7 438 133 l 715 333 b 801 215 715 261 746 215 b 888 347 857 215 888 260 l 888 688 b 826 750 888 725 863 750 l 796 750 l 796 610 l 544 610 l 544 972 "},"ĳ":{"ha":761,"x_min":0,"x_max":0,"o":"m 361 0 l 0 0 l 0 222 b 49 265 32 222 49 236 l 49 429 b 0 472 49 458 32 472 l 0 694 l 313 694 l 313 265 b 361 222 313 236 329 222 m 438 429 b 389 472 438 458 421 472 l 389 694 l 701 694 l 701 -44 b 456 -301 701 -229 603 -301 b 251 -257 322 -301 251 -257 l 251 -35 l 258 -35 b 374 -79 258 -35 310 -79 b 438 -17 417 -79 438 -60 m 25 869 b 168 1010 25 954 76 1010 b 311 869 260 1010 311 954 b 168 729 311 783 260 729 b 25 869 76 729 25 783 m 414 869 b 557 1010 414 956 465 1010 b 700 869 649 1010 700 956 b 557 729 700 783 649 729 b 414 869 465 729 414 783 "},"Ĵ":{"ha":839,"x_min":0,"x_max":0,"o":"m 358 972 l 358 801 b 535 972 358 908 425 972 l 797 972 l 797 750 b 749 701 765 750 749 735 l 749 411 b 364 -7 749 135 600 -7 b 0 333 150 -7 0 133 l 278 333 b 364 215 278 261 308 215 b 450 347 419 215 450 260 l 450 688 b 389 750 450 725 425 750 l 358 750 l 358 610 l 107 610 l 107 972 m 346 1219 l 550 1219 l 713 1061 l 713 1028 l 507 1028 l 449 1125 l 389 1028 l 183 1028 l 183 1061 "},"ĵ":{"ha":492,"x_min":0,"x_max":0,"o":"m 186 429 b 138 472 186 458 169 472 l 138 694 l 450 694 l 450 -44 b 204 -301 450 -229 351 -301 b 0 -257 71 -301 0 -257 l 0 -35 l 7 -35 b 122 -79 7 -35 58 -79 b 186 -17 165 -79 186 -60 m 396 979 l 558 785 l 558 743 l 353 743 l 294 864 l 235 743 l 29 743 l 29 785 l 192 979 "},"Ķ":{"ha":903,"x_min":0,"x_max":0,"o":"m 454 683 b 444 750 482 719 476 750 l 444 972 l 826 972 l 826 750 b 750 707 799 750 771 733 l 578 486 l 600 486 b 813 313 719 486 813 410 l 813 265 b 861 222 813 236 829 222 l 861 0 l 514 0 l 514 254 b 408 368 514 322 472 368 l 347 368 l 347 265 b 396 222 347 236 364 222 l 396 0 l 0 0 l 0 222 b 49 265 32 222 49 236 l 49 707 b 0 750 49 736 32 750 l 0 972 l 396 972 l 396 750 b 347 707 364 750 347 736 l 347 547 m 432 -292 l 272 -292 l 272 -278 l 381 -56 l 547 -56 l 547 -97 "},"ķ":{"ha":819,"x_min":0,"x_max":0,"o":"m 458 369 l 619 369 b 729 274 683 369 729 329 l 729 265 b 778 222 729 236 746 222 l 778 0 l 431 0 l 431 161 b 325 275 431 229 389 275 l 313 275 l 313 265 b 361 222 313 236 329 222 l 361 0 l 0 0 l 0 222 b 49 265 32 222 49 236 l 49 776 b 0 819 49 806 32 819 l 0 1042 l 361 1042 l 361 819 b 313 776 329 819 313 806 l 313 488 l 369 528 b 407 599 397 547 407 565 l 407 694 l 722 694 l 722 507 b 629 479 685 507 661 500 m 390 -292 l 231 -292 l 231 -278 l 339 -56 l 506 -56 l 506 -97 "},"ĸ":{"ha":797,"x_min":0,"x_max":0,"o":"m 399 600 b 390 658 422 631 418 658 l 390 853 l 725 853 l 725 658 b 658 621 700 658 676 643 l 506 426 l 526 426 b 714 274 632 426 714 360 l 714 224 b 756 194 717 204 731 194 l 756 0 l 451 0 l 451 233 b 358 324 447 288 413 324 l 304 324 l 304 233 b 347 194 304 207 319 194 l 347 0 l 0 0 l 0 194 b 43 233 28 194 43 207 l 43 621 b 0 658 43 646 28 658 l 0 853 l 347 853 l 347 658 b 304 621 319 658 304 646 l 304 481 "},"Ĺ":{"ha":776,"x_min":0,"x_max":0,"o":"m 0 972 l 396 972 l 396 750 b 347 707 364 750 347 736 l 347 222 l 449 222 b 547 326 500 222 547 272 l 735 326 l 735 0 l 0 0 l 0 222 b 49 265 32 222 49 236 l 49 707 b 0 750 49 736 32 750 m 208 1028 l 57 1028 l 57 1039 l 165 1222 l 371 1222 l 371 1181 "},"ĺ":{"ha":403,"x_min":0,"x_max":0,"o":"m 361 0 l 0 0 l 0 222 b 49 265 32 222 49 236 l 49 776 b 0 819 49 806 32 819 l 0 1042 l 313 1042 l 313 265 b 361 222 313 236 329 222 m 171 1063 l 19 1063 l 19 1076 l 128 1299 l 333 1299 l 333 1257 "},"Ļ":{"ha":776,"x_min":0,"x_max":0,"o":"m 0 972 l 396 972 l 396 750 b 347 707 364 750 347 736 l 347 222 l 449 222 b 547 326 500 222 547 272 l 735 326 l 735 0 l 0 0 l 0 222 b 49 265 32 222 49 236 l 49 707 b 0 750 49 736 32 750 m 411 -292 l 251 -292 l 251 -278 l 360 -56 l 526 -56 l 526 -97 "},"ļ":{"ha":403,"x_min":0,"x_max":0,"o":"m 361 0 l 0 0 l 0 222 b 49 265 32 222 49 236 l 49 776 b 0 819 49 806 32 819 l 0 1042 l 313 1042 l 313 265 b 361 222 313 236 329 222 m 224 -292 l 64 -292 l 64 -278 l 172 -56 l 339 -56 l 339 -97 "},"Ľ":{"ha":776,"x_min":0,"x_max":0,"o":"m 0 972 l 396 972 l 396 750 b 347 707 364 750 347 736 l 347 222 l 449 222 b 547 326 500 222 547 272 l 735 326 l 735 0 l 0 0 l 0 222 b 49 265 32 222 49 236 l 49 707 b 0 750 49 736 32 750 m 572 743 l 421 743 l 421 757 l 501 935 l 707 935 l 707 901 "},"ľ":{"ha":679,"x_min":0,"x_max":0,"o":"m 361 0 l 0 0 l 0 222 b 49 265 32 222 49 236 l 49 776 b 0 819 49 806 32 819 l 0 1042 l 313 1042 l 313 265 b 361 222 313 236 329 222 m 490 743 l 339 743 l 339 757 l 433 979 l 639 979 l 639 938 "},"Ŀ":{"ha":776,"x_min":0,"x_max":0,"o":"m 0 972 l 396 972 l 396 750 b 347 707 364 750 347 736 l 347 222 l 449 222 b 547 326 500 222 547 272 l 735 326 l 735 0 l 0 0 l 0 222 b 49 265 32 222 49 236 l 49 707 b 0 750 49 736 32 750 m 449 628 b 565 743 449 715 476 743 b 683 628 656 743 683 715 b 565 514 683 542 656 514 b 449 628 476 514 449 542 "},"ŀ":{"ha":681,"x_min":0,"x_max":0,"o":"m 361 0 l 0 0 l 0 222 b 49 265 32 222 49 236 l 49 776 b 0 819 49 806 32 819 l 0 1042 l 313 1042 l 313 265 b 361 222 313 236 329 222 m 361 521 b 478 636 361 608 389 636 b 596 521 568 636 596 608 b 478 407 596 435 568 407 b 361 521 389 407 361 435 "},"Ł":{"ha":776,"x_min":0,"x_max":0,"o":"m 0 274 l -92 442 l 49 518 l 49 707 b 0 750 49 736 32 750 l 0 972 l 396 972 l 396 750 b 347 707 364 750 347 736 l 347 681 l 426 724 l 518 557 l 347 464 l 347 222 l 449 222 b 547 326 500 222 547 272 l 735 326 l 735 0 l 0 0 l 0 222 b 49 265 32 222 49 236 l 49 301 "},"ł":{"ha":403,"x_min":0,"x_max":0,"o":"m -44 276 l -126 449 l 49 532 l 49 776 b 0 819 49 806 32 819 l 0 1042 l 313 1042 l 313 658 l 406 703 l 488 531 l 313 447 l 313 265 b 361 222 313 236 329 222 l 361 0 l 0 0 l 0 222 b 49 265 32 222 49 236 l 49 321 "},"Ń":{"ha":1007,"x_min":0,"x_max":0,"o":"m 0 0 l 0 222 b 49 263 32 222 49 235 l 49 710 b 0 750 49 738 32 750 l 0 972 l 431 972 l 694 369 l 694 710 b 646 750 694 738 678 750 l 646 972 l 965 972 l 965 750 b 917 710 933 750 917 738 l 917 263 b 965 222 917 235 933 222 l 965 0 l 549 0 l 271 638 l 271 263 b 319 222 271 235 288 222 l 319 0 m 525 1028 l 374 1028 l 374 1039 l 482 1222 l 688 1222 l 688 1181 "},"ń":{"ha":804,"x_min":0,"x_max":0,"o":"m 401 0 l 401 222 b 450 265 433 222 450 236 l 450 399 b 381 488 450 458 415 488 b 313 394 346 488 313 456 l 313 265 b 361 222 313 236 329 222 l 361 0 l 0 0 l 0 222 b 49 265 32 222 49 236 l 49 429 b 0 472 49 458 32 472 l 0 694 l 313 694 l 313 615 b 510 701 358 669 426 701 b 714 483 629 701 714 615 l 714 265 b 763 222 714 236 731 222 l 763 0 m 397 743 l 246 743 l 246 757 l 354 979 l 560 979 l 560 938 "},"Ņ":{"ha":1007,"x_min":0,"x_max":0,"o":"m 0 0 l 0 222 b 49 263 32 222 49 235 l 49 710 b 0 750 49 738 32 750 l 0 972 l 431 972 l 694 369 l 694 710 b 646 750 694 738 678 750 l 646 972 l 965 972 l 965 750 b 917 710 933 750 917 738 l 917 263 b 965 222 917 235 933 222 l 965 0 l 549 0 l 271 638 l 271 263 b 319 222 271 235 288 222 l 319 0 m 499 -292 l 339 -292 l 339 -278 l 447 -56 l 614 -56 l 614 -97 "},"ņ":{"ha":804,"x_min":0,"x_max":0,"o":"m 401 0 l 401 222 b 450 265 433 222 450 236 l 450 399 b 381 488 450 458 415 488 b 313 394 346 488 313 456 l 313 265 b 361 222 313 236 329 222 l 361 0 l 0 0 l 0 222 b 49 265 32 222 49 236 l 49 429 b 0 472 49 458 32 472 l 0 694 l 313 694 l 313 615 b 510 701 358 669 426 701 b 714 483 629 701 714 615 l 714 265 b 763 222 714 236 731 222 l 763 0 m 425 -292 l 265 -292 l 265 -278 l 374 -56 l 540 -56 l 540 -97 "},"Ň":{"ha":1007,"x_min":0,"x_max":0,"o":"m 0 0 l 0 222 b 49 263 32 222 49 235 l 49 710 b 0 750 49 738 32 750 l 0 972 l 431 972 l 694 369 l 694 710 b 646 750 694 738 678 750 l 646 972 l 965 972 l 965 750 b 917 710 933 750 917 738 l 917 263 b 965 222 917 235 933 222 l 965 0 l 549 0 l 271 638 l 271 263 b 319 222 271 235 288 222 l 319 0 m 585 1028 l 381 1028 l 218 1186 l 218 1219 l 424 1219 l 483 1122 l 542 1219 l 747 1219 l 747 1186 "},"ň":{"ha":804,"x_min":0,"x_max":0,"o":"m 401 0 l 401 222 b 450 265 433 222 450 236 l 450 399 b 381 488 450 458 415 488 b 313 394 346 488 313 456 l 313 265 b 361 222 313 236 329 222 l 361 0 l 0 0 l 0 222 b 49 265 32 222 49 236 l 49 429 b 0 472 49 458 32 472 l 0 694 l 313 694 l 313 615 b 510 701 358 669 426 701 b 714 483 629 701 714 615 l 714 265 b 763 222 714 236 731 222 l 763 0 m 300 743 l 138 938 l 138 979 l 343 979 l 403 858 l 461 979 l 667 979 l 667 938 l 504 743 "},"ŉ":{"ha":804,"x_min":0,"x_max":0,"o":"m 401 0 l 401 222 b 450 265 433 222 450 236 l 450 399 b 381 488 450 458 415 488 b 313 394 346 488 313 456 l 313 265 b 361 222 313 236 329 222 l 361 0 l 0 0 l 0 222 b 49 265 32 222 49 236 l 49 429 b 0 472 49 458 32 472 l 0 694 l 313 694 l 313 615 b 510 701 358 669 426 701 b 714 483 629 701 714 615 l 714 265 b 763 222 714 236 731 222 l 763 0 m -78 600 l -237 600 l -237 614 l -129 836 l 38 836 l 38 794 "},"Ō":{"ha":971,"x_min":0,"x_max":0,"o":"m 299 489 b 464 215 299 297 360 215 b 631 489 569 215 631 297 b 464 757 631 676 569 757 b 299 489 360 757 299 676 m 0 486 b 464 979 0 788 167 979 b 929 486 763 979 929 788 b 464 -7 929 185 763 -7 b 0 486 167 -7 0 185 m 253 1028 b 206 1071 217 1028 206 1043 l 206 1167 b 253 1215 206 1200 215 1215 l 674 1215 b 722 1167 713 1215 722 1200 l 722 1071 b 674 1028 722 1043 711 1028 "},"ō":{"ha":767,"x_min":0,"x_max":0,"o":"m 265 349 b 363 181 265 232 300 181 b 461 349 426 181 461 232 b 363 514 461 464 426 514 b 265 349 300 514 265 464 m 0 347 b 363 701 0 564 131 701 b 725 347 596 701 725 564 b 363 -7 725 132 596 -7 b 0 347 131 -7 0 132 m 151 743 b 104 786 115 743 104 758 l 104 882 b 151 931 104 915 114 931 l 572 931 b 621 882 611 931 621 915 l 621 786 b 572 743 621 758 610 743 "},"Ŏ":{"ha":971,"x_min":0,"x_max":0,"o":"m 299 489 b 464 215 299 297 360 215 b 631 489 569 215 631 297 b 464 757 631 676 569 757 b 299 489 360 757 299 676 m 0 486 b 464 979 0 788 167 979 b 929 486 763 979 929 788 b 464 -7 929 185 763 -7 b 0 486 167 -7 0 185 m 392 1196 b 469 1136 392 1154 421 1136 b 547 1196 519 1136 547 1154 l 682 1196 b 469 1028 682 1118 618 1028 b 257 1196 321 1028 257 1117 "},"ŏ":{"ha":767,"x_min":0,"x_max":0,"o":"m 265 349 b 363 181 265 232 300 181 b 461 349 426 181 461 232 b 363 514 461 464 426 514 b 265 349 300 514 265 464 m 0 347 b 363 701 0 564 131 701 b 725 347 596 701 725 564 b 363 -7 725 132 596 -7 b 0 347 131 -7 0 132 m 304 928 b 364 864 304 893 319 864 b 424 928 408 864 424 893 l 576 928 b 364 743 576 850 513 743 b 151 928 215 743 151 849 "},"Ő":{"ha":971,"x_min":0,"x_max":0,"o":"m 299 489 b 464 215 299 297 360 215 b 631 489 569 215 631 297 b 464 757 631 676 569 757 b 299 489 360 757 299 676 m 0 486 b 464 979 0 788 167 979 b 929 486 763 979 929 788 b 464 -7 929 185 763 -7 b 0 486 167 -7 0 185 m 439 1028 l 279 1028 l 279 1042 l 388 1264 l 554 1264 l 554 1222 m 646 1028 l 486 1028 l 486 1042 l 594 1264 l 761 1264 l 761 1222 "},"ő":{"ha":767,"x_min":0,"x_max":0,"o":"m 265 349 b 363 181 265 232 300 181 b 461 349 426 181 461 232 b 363 514 461 464 426 514 b 265 349 300 514 265 464 m 0 347 b 363 701 0 564 131 701 b 725 347 596 701 725 564 b 363 -7 725 132 596 -7 b 0 347 131 -7 0 132 m 331 743 l 171 743 l 171 757 l 279 979 l 446 979 l 446 938 m 538 743 l 378 743 l 378 757 l 486 979 l 653 979 l 653 938 "},"Œ":{"ha":1360,"x_min":0,"x_max":0,"o":"m 299 489 b 464 215 299 297 360 215 b 631 489 569 215 631 297 b 464 757 631 676 569 757 b 299 489 360 757 299 676 m 931 750 l 931 569 l 978 569 b 1021 618 1007 569 1021 586 l 1181 618 l 1181 354 l 1021 354 b 978 403 1021 386 1007 403 l 931 403 l 931 222 l 1032 222 b 1131 306 1089 222 1131 258 l 1318 306 l 1318 0 l 583 0 l 583 4 b 464 -7 546 -3 507 -7 b 0 486 167 -7 0 185 b 464 979 0 788 167 979 b 583 968 507 979 546 975 l 583 972 l 1318 972 l 1318 667 l 1131 667 b 1032 750 1131 714 1089 750 "},"œ":{"ha":1160,"x_min":0,"x_max":0,"o":"m 461 338 b 363 514 461 407 457 514 b 265 349 300 514 265 464 b 363 181 265 232 300 181 b 461 338 425 181 460 229 m 856 447 b 793 515 856 490 833 515 b 728 447 757 515 732 490 m 1104 268 l 1104 46 b 853 -7 1104 46 1017 -7 b 601 64 747 -7 664 19 b 363 -7 542 18 461 -7 b 0 347 131 -7 0 132 b 363 701 0 564 131 701 b 594 638 457 701 536 679 b 814 703 653 679 728 703 b 1118 322 1015 703 1118 564 l 728 322 b 879 215 739 260 800 215 b 1097 268 1014 215 1097 268 "},"Ŕ":{"ha":875,"x_min":0,"x_max":0,"o":"m 347 578 l 388 578 b 500 665 460 578 500 608 b 399 750 500 717 460 750 l 347 750 m 396 0 l 0 0 l 0 222 b 49 265 32 222 49 236 l 49 707 b 0 750 49 736 32 750 l 0 972 l 407 972 b 785 667 653 972 785 857 b 656 436 785 565 740 482 b 785 269 732 415 785 349 l 785 265 b 833 222 785 236 801 222 l 833 0 l 486 0 l 486 293 b 397 397 486 365 450 397 l 347 397 l 347 265 b 396 222 347 236 364 222 m 400 1028 l 249 1028 l 249 1039 l 357 1222 l 563 1222 l 563 1181 "},"ŕ":{"ha":678,"x_min":0,"x_max":0,"o":"m 49 429 b 0 472 49 458 32 472 l 0 694 l 313 694 l 313 619 b 471 701 346 675 397 701 b 636 642 585 701 636 642 l 636 419 l 629 419 b 465 479 629 419 571 479 b 313 354 367 479 313 429 l 313 271 b 372 222 313 243 339 222 l 372 0 l 0 0 l 0 222 b 49 265 32 222 49 236 m 333 743 l 182 743 l 182 757 l 290 979 l 496 979 l 496 938 "},"Ŗ":{"ha":875,"x_min":0,"x_max":0,"o":"m 347 578 l 388 578 b 500 665 460 578 500 608 b 399 750 500 717 460 750 l 347 750 m 396 0 l 0 0 l 0 222 b 49 265 32 222 49 236 l 49 707 b 0 750 49 736 32 750 l 0 972 l 407 972 b 785 667 653 972 785 857 b 656 436 785 565 740 482 b 785 269 732 415 785 349 l 785 265 b 833 222 785 236 801 222 l 833 0 l 486 0 l 486 293 b 397 397 486 365 450 397 l 347 397 l 347 265 b 396 222 347 236 364 222 m 422 -292 l 263 -292 l 263 -278 l 371 -56 l 538 -56 l 538 -97 "},"ŗ":{"ha":678,"x_min":0,"x_max":0,"o":"m 49 429 b 0 472 49 458 32 472 l 0 694 l 313 694 l 313 619 b 471 701 346 675 397 701 b 636 642 585 701 636 642 l 636 419 l 629 419 b 465 479 629 419 571 479 b 313 354 367 479 313 429 l 313 271 b 372 222 313 243 339 222 l 372 0 l 0 0 l 0 222 b 49 265 32 222 49 236 m 194 -292 l 35 -292 l 35 -278 l 143 -56 l 310 -56 l 310 -97 "},"Ř":{"ha":875,"x_min":0,"x_max":0,"o":"m 347 578 l 388 578 b 500 665 460 578 500 608 b 399 750 500 717 460 750 l 347 750 m 396 0 l 0 0 l 0 222 b 49 265 32 222 49 236 l 49 707 b 0 750 49 736 32 750 l 0 972 l 407 972 b 785 667 653 972 785 857 b 656 436 785 565 740 482 b 785 269 732 415 785 349 l 785 265 b 833 222 785 236 801 222 l 833 0 l 486 0 l 486 293 b 397 397 486 365 450 397 l 347 397 l 347 265 b 396 222 347 236 364 222 m 501 1028 l 297 1028 l 135 1186 l 135 1219 l 340 1219 l 400 1122 l 458 1219 l 664 1219 l 664 1186 "},"ř":{"ha":678,"x_min":0,"x_max":0,"o":"m 49 429 b 0 472 49 458 32 472 l 0 694 l 313 694 l 313 619 b 471 701 346 675 397 701 b 636 642 585 701 636 642 l 636 419 l 629 419 b 465 479 629 419 571 479 b 313 354 367 479 313 429 l 313 271 b 372 222 313 243 339 222 l 372 0 l 0 0 l 0 222 b 49 265 32 222 49 236 m 238 743 l 75 938 l 75 979 l 281 979 l 340 858 l 399 979 l 604 979 l 604 938 l 442 743 "},"Ś":{"ha":850,"x_min":0,"x_max":0,"o":"m 538 610 b 415 757 538 703 492 757 b 317 679 357 757 317 724 b 808 289 317 556 808 582 b 436 -7 808 119 642 -7 b 0 374 167 -7 0 144 l 279 374 b 419 215 279 281 338 215 b 517 300 476 215 517 250 b 18 722 517 447 18 374 b 324 979 18 867 146 979 b 542 779 468 979 542 911 l 542 972 l 807 972 l 807 610 m 428 1028 l 276 1028 l 276 1039 l 385 1222 l 590 1222 l 590 1181 "},"ś":{"ha":663,"x_min":0,"x_max":0,"o":"m 367 436 b 313 514 367 488 349 514 b 268 475 286 514 268 499 b 608 214 268 394 608 418 b 308 -7 608 86 483 -7 b 1 258 128 -7 1 101 l 257 258 b 306 182 257 210 275 182 b 346 218 328 182 346 199 b 1 519 346 322 1 304 b 210 701 1 628 92 701 b 371 561 301 701 361 661 l 371 694 l 621 694 l 621 436 m 326 743 l 175 743 l 175 757 l 283 979 l 489 979 l 489 938 "},"Ŝ":{"ha":850,"x_min":0,"x_max":0,"o":"m 538 610 b 415 757 538 703 492 757 b 317 679 357 757 317 724 b 808 289 317 556 808 582 b 436 -7 808 119 642 -7 b 0 374 167 -7 0 144 l 279 374 b 419 215 279 281 338 215 b 517 300 476 215 517 250 b 18 722 517 447 18 374 b 324 979 18 867 146 979 b 542 779 468 979 542 911 l 542 972 l 807 972 l 807 610 m 319 1219 l 524 1219 l 686 1061 l 686 1028 l 481 1028 l 422 1125 l 363 1028 l 157 1028 l 157 1061 "},"ŝ":{"ha":663,"x_min":0,"x_max":0,"o":"m 367 436 b 313 514 367 488 349 514 b 268 475 286 514 268 499 b 608 214 268 394 608 418 b 308 -7 608 86 483 -7 b 1 258 128 -7 1 101 l 257 258 b 306 182 257 210 275 182 b 346 218 328 182 346 199 b 1 519 346 322 1 304 b 210 701 1 628 92 701 b 371 561 301 701 361 661 l 371 694 l 621 694 l 621 436 m 433 979 l 596 785 l 596 743 l 390 743 l 332 864 l 272 743 l 67 743 l 67 785 l 229 979 "},"Ş":{"ha":850,"x_min":0,"x_max":0,"o":"m 407 -264 b 304 -225 347 -264 304 -225 l 324 -147 l 326 -147 b 393 -178 326 -147 357 -178 b 435 -139 419 -178 435 -162 b 406 -99 435 -115 424 -99 b 388 -110 393 -99 388 -110 l 383 -110 l 351 -89 l 378 -4 b 0 374 143 17 0 161 l 279 374 b 419 215 279 281 338 215 b 517 300 476 215 517 250 b 18 722 517 447 18 374 b 324 979 18 867 146 979 b 542 779 468 979 542 911 l 542 972 l 807 972 l 807 610 l 538 610 b 415 757 538 703 492 757 b 317 679 357 757 317 724 b 808 289 317 556 808 582 b 447 -7 808 122 647 -3 l 443 -22 b 546 -136 496 -22 546 -68 b 407 -264 546 -215 485 -264 "},"ş":{"ha":663,"x_min":0,"x_max":0,"o":"m 314 -264 b 211 -225 254 -264 211 -225 l 231 -147 l 233 -147 b 300 -178 233 -147 264 -178 b 342 -139 326 -178 342 -162 b 313 -99 342 -115 331 -99 b 294 -110 300 -99 294 -110 l 290 -110 l 258 -89 l 285 -6 b 1 258 117 3 1 108 l 257 258 b 306 182 257 210 275 182 b 346 218 328 182 346 199 b 1 519 346 322 1 304 b 210 701 1 628 92 701 b 371 561 301 701 361 661 l 371 694 l 621 694 l 621 436 l 367 436 b 313 514 367 488 349 514 b 268 475 286 514 268 499 b 608 214 268 394 608 418 b 354 -4 608 99 504 11 l 350 -22 b 453 -136 403 -22 453 -68 b 314 -264 453 -215 392 -264 "},"Š":{"ha":850,"x_min":0,"x_max":0,"o":"m 538 610 b 415 757 538 703 492 757 b 317 679 357 757 317 724 b 808 289 317 556 808 582 b 436 -7 808 119 642 -7 b 0 374 167 -7 0 144 l 279 374 b 419 215 279 281 338 215 b 517 300 476 215 517 250 b 18 722 517 447 18 374 b 324 979 18 867 146 979 b 542 779 468 979 542 911 l 542 972 l 807 972 l 807 610 m 529 1028 l 325 1028 l 163 1186 l 163 1219 l 368 1219 l 428 1122 l 486 1219 l 692 1219 l 692 1186 "},"š":{"ha":663,"x_min":0,"x_max":0,"o":"m 367 436 b 313 514 367 488 349 514 b 268 475 286 514 268 499 b 608 214 268 394 608 418 b 308 -7 608 86 483 -7 b 1 258 128 -7 1 101 l 257 258 b 306 182 257 210 275 182 b 346 218 328 182 346 199 b 1 519 346 322 1 304 b 210 701 1 628 92 701 b 371 561 301 701 361 661 l 371 694 l 621 694 l 621 436 m 229 743 l 67 938 l 67 979 l 272 979 l 332 858 l 390 979 l 596 979 l 596 938 l 433 743 "},"Ţ":{"ha":968,"x_min":0,"x_max":0,"o":"m 453 -264 b 350 -225 393 -264 350 -225 l 369 -147 l 372 -147 b 439 -178 372 -147 403 -178 b 481 -139 465 -178 481 -162 b 451 -99 481 -115 469 -99 b 433 -110 439 -99 433 -110 l 429 -110 l 397 -89 l 425 0 l 265 0 l 265 222 b 314 265 297 222 314 236 l 314 749 l 299 749 b 188 611 236 749 188 689 l 0 611 l 0 971 l 926 971 l 926 611 l 739 611 b 628 749 739 689 690 749 l 613 749 l 613 265 b 661 222 613 236 629 222 l 661 0 l 494 0 l 489 -22 b 592 -136 542 -22 592 -68 b 453 -264 592 -215 531 -264 "},"ţ":{"ha":540,"x_min":0,"x_max":0,"o":"m 232 -261 b 129 -222 172 -261 129 -222 l 149 -144 l 151 -144 b 218 -175 151 -144 182 -175 b 260 -136 244 -175 260 -160 b 231 -96 260 -112 249 -96 b 213 -107 218 -96 213 -107 l 208 -107 l 176 -86 l 204 4 b 49 250 108 31 49 106 l 49 496 l 0 496 l 0 693 b 63 747 42 693 63 710 l 63 843 l 313 843 l 313 692 l 465 692 l 465 496 l 313 496 l 313 278 b 376 215 313 235 333 215 b 492 260 440 215 492 260 l 499 260 l 499 38 b 271 -7 438 0 340 -7 l 268 -19 b 371 -133 321 -19 371 -65 b 232 -261 371 -212 310 -261 "},"Ť":{"ha":968,"x_min":0,"x_max":0,"o":"m 926 971 l 926 611 l 739 611 b 628 749 739 689 690 749 l 613 749 l 613 265 b 661 222 613 236 629 222 l 661 0 l 265 0 l 265 222 b 314 265 297 222 314 236 l 314 749 l 299 749 b 188 611 236 749 188 689 l 0 611 l 0 971 m 578 1028 l 374 1028 l 211 1186 l 211 1219 l 417 1219 l 476 1122 l 535 1219 l 740 1219 l 740 1186 "},"ť":{"ha":817,"x_min":0,"x_max":0,"o":"m 465 692 l 465 496 l 313 496 l 313 278 b 376 215 313 235 333 215 b 492 260 440 215 492 260 l 499 260 l 499 38 b 294 -7 499 38 428 -7 b 49 250 147 -7 49 65 l 49 496 l 0 496 l 0 693 b 63 747 42 693 63 710 l 63 843 l 313 843 l 313 692 m 486 747 l 326 747 l 326 761 l 435 983 l 601 983 l 601 942 "},"Ŧ":{"ha":968,"x_min":0,"x_max":0,"o":"m 693 532 l 693 392 l 613 392 l 613 265 b 661 222 613 236 629 222 l 661 0 l 265 0 l 265 222 b 314 265 297 222 314 236 l 314 392 l 232 392 l 232 533 l 314 533 l 314 749 l 299 749 b 188 611 236 749 188 689 l 0 611 l 0 971 l 926 971 l 926 611 l 739 611 b 628 749 739 689 690 749 l 613 749 l 613 532 "},"ŧ":{"ha":540,"x_min":0,"x_max":0,"o":"m 396 446 l 396 306 l 313 306 l 313 278 b 376 215 313 235 333 215 b 492 260 440 215 492 260 l 499 260 l 499 38 b 294 -7 499 38 428 -7 b 49 250 147 -7 49 65 l 49 306 l 14 306 l 14 447 l 49 447 l 49 496 l 0 496 l 0 693 b 63 747 42 693 63 710 l 63 843 l 313 843 l 313 692 l 465 692 l 465 496 l 313 496 l 313 446 "},"Ũ":{"ha":968,"x_min":0,"x_max":0,"o":"m 579 693 b 522 750 579 729 558 750 l 522 972 l 926 972 l 926 750 b 878 701 894 750 878 735 l 878 411 b 463 -7 878 135 729 -7 b 49 411 197 -7 49 135 l 49 701 b 0 750 49 735 32 750 l 0 972 l 404 972 l 404 750 b 347 693 369 750 347 729 l 347 367 b 463 215 347 274 389 215 b 579 367 538 215 579 274 m 585 1021 b 358 1088 494 1021 444 1088 b 279 1028 306 1088 279 1028 l 231 1028 b 371 1233 231 1151 288 1233 b 579 1167 457 1233 503 1167 b 663 1226 638 1167 663 1226 l 711 1226 b 585 1021 711 1089 658 1021 "},"ũ":{"ha":804,"x_min":0,"x_max":0,"o":"m 450 429 b 401 472 450 458 433 472 l 401 694 l 714 694 l 714 265 b 763 222 714 236 731 222 l 763 0 l 450 0 l 450 86 b 236 -7 400 29 325 -7 b 49 193 125 -7 49 75 l 49 429 b 0 472 49 458 32 472 l 0 694 l 313 694 l 313 296 b 382 207 313 236 342 207 b 450 300 428 207 450 246 m 496 736 b 269 803 406 736 356 803 b 190 743 217 803 190 743 l 142 743 b 282 949 142 867 199 949 b 490 882 368 949 414 882 b 574 942 549 882 574 942 l 622 942 b 496 736 622 804 569 736 "},"Ū":{"ha":968,"x_min":0,"x_max":0,"o":"m 579 693 b 522 750 579 729 558 750 l 522 972 l 926 972 l 926 750 b 878 701 894 750 878 735 l 878 411 b 463 -7 878 135 729 -7 b 49 411 197 -7 49 135 l 49 701 b 0 750 49 735 32 750 l 0 972 l 404 972 l 404 750 b 347 693 369 750 347 729 l 347 367 b 463 215 347 274 389 215 b 579 367 538 215 579 274 m 253 1028 b 206 1071 217 1028 206 1043 l 206 1167 b 253 1215 206 1200 215 1215 l 674 1215 b 722 1167 713 1215 722 1200 l 722 1071 b 674 1028 722 1043 711 1028 "},"ū":{"ha":804,"x_min":0,"x_max":0,"o":"m 450 429 b 401 472 450 458 433 472 l 401 694 l 714 694 l 714 265 b 763 222 714 236 731 222 l 763 0 l 450 0 l 450 86 b 236 -7 400 29 325 -7 b 49 193 125 -7 49 75 l 49 429 b 0 472 49 458 32 472 l 0 694 l 313 694 l 313 296 b 382 207 313 236 342 207 b 450 300 428 207 450 246 m 165 743 b 118 786 129 743 118 758 l 118 882 b 165 931 118 915 128 931 l 586 931 b 635 882 625 931 635 915 l 635 786 b 586 743 635 758 624 743 "},"Ŭ":{"ha":968,"x_min":0,"x_max":0,"o":"m 579 693 b 522 750 579 729 558 750 l 522 972 l 926 972 l 926 750 b 878 701 894 750 878 735 l 878 411 b 463 -7 878 135 729 -7 b 49 411 197 -7 49 135 l 49 701 b 0 750 49 735 32 750 l 0 972 l 404 972 l 404 750 b 347 693 369 750 347 729 l 347 367 b 463 215 347 274 389 215 b 579 367 538 215 579 274 m 392 1196 b 469 1136 392 1154 421 1136 b 547 1196 519 1136 547 1154 l 682 1196 b 469 1028 682 1118 618 1028 b 257 1196 321 1028 257 1117 l 392 1196 "},"ŭ":{"ha":804,"x_min":0,"x_max":0,"o":"m 450 429 b 401 472 450 458 433 472 l 401 694 l 714 694 l 714 265 b 763 222 714 236 731 222 l 763 0 l 450 0 l 450 86 b 236 -7 400 29 325 -7 b 49 193 125 -7 49 75 l 49 429 b 0 472 49 458 32 472 l 0 694 l 313 694 l 313 296 b 382 207 313 236 342 207 b 450 300 428 207 450 246 m 311 926 b 371 863 311 892 326 863 b 431 926 415 863 431 892 l 583 926 b 371 742 583 849 519 742 b 158 926 222 742 158 847 "},"Ů":{"ha":968,"x_min":0,"x_max":0,"o":"m 425 1154 b 465 1094 425 1113 439 1094 b 504 1154 490 1094 504 1113 b 465 1214 504 1196 490 1214 b 425 1154 439 1214 425 1196 m 579 693 b 522 750 579 729 558 750 l 522 972 l 926 972 l 926 750 b 878 701 894 750 878 735 l 878 411 b 463 -7 878 135 729 -7 b 49 411 197 -7 49 135 l 49 701 b 0 750 49 735 32 750 l 0 972 l 404 972 l 404 750 b 347 693 369 750 347 729 l 347 367 b 463 215 347 274 389 215 b 579 367 538 215 579 274 m 321 1154 b 464 1282 321 1232 372 1282 b 610 1154 557 1282 610 1232 b 464 1028 610 1076 557 1028 b 321 1154 372 1028 321 1076 "},"ů":{"ha":804,"x_min":0,"x_max":0,"o":"m 328 869 b 368 810 328 828 342 810 b 407 869 393 810 407 828 b 368 929 407 911 393 929 b 328 869 342 929 328 911 m 450 429 b 401 472 450 458 433 472 l 401 694 l 714 694 l 714 265 b 763 222 714 236 731 222 l 763 0 l 450 0 l 450 86 b 236 -7 400 29 325 -7 b 49 193 125 -7 49 75 l 49 429 b 0 472 49 458 32 472 l 0 694 l 313 694 l 313 296 b 382 207 313 236 342 207 b 450 300 428 207 450 246 m 224 869 b 367 997 224 947 275 997 b 513 869 460 997 513 947 b 367 743 513 792 460 743 b 224 869 275 743 224 792 "},"Ű":{"ha":968,"x_min":0,"x_max":0,"o":"m 579 693 b 522 750 579 729 558 750 l 522 972 l 926 972 l 926 750 b 878 701 894 750 878 735 l 878 411 b 463 -7 878 135 729 -7 b 49 411 197 -7 49 135 l 49 701 b 0 750 49 735 32 750 l 0 972 l 404 972 l 404 750 b 347 693 369 750 347 729 l 347 367 b 463 215 347 274 389 215 b 579 367 538 215 579 274 m 450 1021 l 450 1035 l 558 1257 l 725 1257 l 725 1215 l 610 1021 m 243 1021 l 243 1035 l 351 1257 l 518 1257 l 518 1215 l 403 1021 "},"ű":{"ha":804,"x_min":0,"x_max":0,"o":"m 450 429 b 401 472 450 458 433 472 l 401 694 l 714 694 l 714 265 b 763 222 714 236 731 222 l 763 0 l 450 0 l 450 86 b 236 -7 400 29 325 -7 b 49 193 125 -7 49 75 l 49 429 b 0 472 49 458 32 472 l 0 694 l 313 694 l 313 296 b 382 207 313 236 342 207 b 450 300 428 207 450 246 m 321 743 l 161 743 l 161 757 l 269 979 l 436 979 l 436 938 m 528 743 l 368 743 l 368 757 l 476 979 l 643 979 l 643 938 "},"Ų":{"ha":968,"x_min":0,"x_max":0,"o":"m 408 -4 b 49 411 176 14 49 154 l 49 701 b 0 750 49 735 32 750 l 0 972 l 404 972 l 404 750 b 347 693 369 750 347 729 l 347 367 b 463 215 347 274 389 215 b 579 367 538 215 579 274 l 579 693 b 522 750 579 729 558 750 l 522 972 l 926 972 l 926 750 b 878 701 894 750 878 735 l 878 411 b 489 -7 878 144 739 3 l 486 -14 b 547 -89 467 -58 493 -89 b 635 -56 599 -89 635 -56 l 642 -56 l 642 -217 b 531 -250 642 -217 606 -250 b 376 -118 435 -250 376 -194 b 392 -46 376 -96 382 -71 "},"ų":{"ha":804,"x_min":0,"x_max":0,"o":"m 531 0 l 450 0 l 450 86 b 236 -7 400 29 325 -7 b 49 193 125 -7 49 75 l 49 429 b 0 472 49 458 32 472 l 0 694 l 313 694 l 313 296 b 382 207 313 236 342 207 b 450 300 428 207 450 246 l 450 429 b 401 472 450 458 433 472 l 401 694 l 714 694 l 714 265 b 763 222 714 236 731 222 l 763 0 l 613 0 l 607 -14 b 668 -89 588 -58 614 -89 b 756 -56 719 -89 756 -56 l 763 -56 l 763 -217 b 651 -250 763 -217 726 -250 b 497 -118 556 -250 497 -194 b 513 -46 497 -96 503 -71 "},"Ŵ":{"ha":1433,"x_min":0,"x_max":0,"o":"m 468 304 l 593 972 l 836 972 l 981 301 l 1079 665 b 1008 750 1094 722 1065 750 l 1008 972 l 1392 972 l 1392 750 b 1307 690 1346 750 1318 731 l 1121 0 l 747 0 l 706 308 l 647 0 l 251 0 l 69 676 b 0 750 56 729 25 750 l 0 972 l 429 972 l 429 750 b 372 661 379 750 357 715 m 615 1219 l 819 1219 l 982 1061 l 982 1028 l 776 1028 l 718 1125 l 658 1028 l 453 1028 l 453 1061 "},"ŵ":{"ha":1167,"x_min":0,"x_max":0,"o":"m 378 258 l 517 694 l 639 694 l 782 257 l 828 415 b 799 472 839 454 831 472 l 799 694 l 1125 694 l 1125 472 b 1063 429 1090 472 1071 460 l 938 0 l 603 0 l 563 122 l 524 0 l 189 0 l 63 429 b 0 472 53 464 26 472 l 0 694 l 361 694 l 361 472 b 332 413 324 472 322 447 m 686 979 l 849 785 l 849 743 l 643 743 l 585 864 l 525 743 l 319 743 l 319 785 l 482 979 "},"Ŷ":{"ha":893,"x_min":0,"x_max":0,"o":"m 435 626 l 479 683 b 469 750 507 719 501 750 l 469 972 l 851 972 l 851 750 b 775 707 824 750 796 733 l 575 451 l 575 265 b 624 222 575 236 592 222 l 624 0 l 228 0 l 228 222 b 276 265 260 222 276 236 l 276 451 l 76 707 b 0 750 56 733 28 750 l 0 972 l 399 972 l 399 750 b 389 683 367 750 361 719 m 333 1219 l 538 1219 l 700 1061 l 700 1028 l 494 1028 l 436 1125 l 376 1028 l 171 1028 l 171 1061 "},"ŷ":{"ha":799,"x_min":0,"x_max":0,"o":"m 165 -74 b 206 -12 199 -74 217 -49 l 63 429 b 0 472 51 464 26 472 l 0 694 l 361 694 l 361 472 b 332 413 324 472 324 447 l 385 193 l 446 415 b 417 472 457 454 449 472 l 417 694 l 757 694 l 757 472 b 696 429 722 472 706 460 l 561 0 b 219 -297 493 -217 399 -297 b 0 -258 76 -297 0 -258 l 0 -36 l 7 -36 b 165 -74 7 -36 75 -67 m 501 979 l 664 785 l 664 743 l 458 743 l 400 864 l 340 743 l 135 743 l 135 785 l 297 979 "},"Ÿ":{"ha":893,"x_min":0,"x_max":0,"o":"m 435 626 l 479 683 b 469 750 507 719 501 750 l 469 972 l 851 972 l 851 750 b 775 707 824 750 796 733 l 575 451 l 575 265 b 624 222 575 236 592 222 l 624 0 l 228 0 l 228 222 b 276 265 260 222 276 236 l 276 451 l 76 707 b 0 750 56 733 28 750 l 0 972 l 399 972 l 399 750 b 389 683 367 750 361 719 m 175 1142 b 292 1257 175 1229 203 1257 b 410 1142 382 1257 410 1229 b 292 1028 410 1056 382 1028 b 175 1142 203 1028 175 1056 m 457 1142 b 574 1257 457 1229 485 1257 b 692 1142 664 1257 692 1229 b 574 1028 692 1056 664 1028 b 457 1142 485 1028 457 1056 "},"Ź":{"ha":782,"x_min":0,"x_max":0,"o":"m 14 0 l 14 222 l 381 750 l 286 750 b 188 667 229 750 188 714 l 0 667 l 0 972 l 738 972 l 738 750 l 369 222 l 454 222 b 553 306 511 222 553 258 l 740 306 l 740 0 m 442 1028 l 290 1028 l 290 1039 l 399 1222 l 604 1222 l 604 1181 "},"ź":{"ha":713,"x_min":0,"x_max":0,"o":"m 1 442 l 1 694 l 669 694 l 669 653 l 363 188 l 379 188 b 443 253 421 188 443 210 l 665 253 l 665 0 l 1 0 l 1 42 l 308 507 l 288 507 b 224 442 246 507 224 485 m 351 743 l 200 743 l 200 757 l 308 979 l 514 979 l 514 938 "},"Ż":{"ha":782,"x_min":0,"x_max":0,"o":"m 14 0 l 14 222 l 381 750 l 286 750 b 188 667 229 750 188 714 l 0 667 l 0 972 l 738 972 l 738 750 l 369 222 l 454 222 b 553 306 511 222 553 258 l 740 306 l 740 0 m 274 1142 b 390 1257 274 1229 301 1257 b 508 1142 481 1257 508 1229 b 390 1028 508 1056 481 1028 b 274 1142 301 1028 274 1056 "},"ż":{"ha":713,"x_min":0,"x_max":0,"o":"m 1 442 l 1 694 l 669 694 l 669 653 l 363 188 l 379 188 b 443 253 421 188 443 210 l 665 253 l 665 0 l 1 0 l 1 42 l 308 507 l 288 507 b 224 442 246 507 224 485 m 239 857 b 356 972 239 944 267 972 b 474 857 446 972 474 944 b 356 743 474 771 446 743 b 239 857 267 743 239 771 "},"Ž":{"ha":782,"x_min":0,"x_max":0,"o":"m 14 0 l 14 222 l 381 750 l 286 750 b 188 667 229 750 188 714 l 0 667 l 0 972 l 738 972 l 738 750 l 369 222 l 454 222 b 553 306 511 222 553 258 l 740 306 l 740 0 m 493 1028 l 289 1028 l 126 1186 l 126 1219 l 332 1219 l 392 1122 l 450 1219 l 656 1219 l 656 1186 "},"ž":{"ha":713,"x_min":0,"x_max":0,"o":"m 1 442 l 1 694 l 669 694 l 669 653 l 363 188 l 379 188 b 443 253 421 188 443 210 l 665 253 l 665 0 l 1 0 l 1 42 l 308 507 l 288 507 b 224 442 246 507 224 485 m 254 743 l 92 938 l 92 979 l 297 979 l 357 858 l 415 979 l 621 979 l 621 938 l 458 743 "},"ſ":{"ha":492,"x_min":0,"x_max":0,"o":"m 0 -56 l 0 739 b 246 1015 0 917 88 1015 b 450 982 369 1015 450 982 l 450 760 l 443 760 b 328 793 443 760 392 793 b 264 731 285 793 264 774 l 264 -56 "},"ƒ":{"ha":650,"x_min":0,"x_max":0,"o":"m 110 -271 b 0 -256 42 -271 0 -256 l 0 -36 b 72 -51 0 -36 36 -51 b 158 53 128 -51 158 -14 l 158 418 b 96 472 158 456 138 472 l 96 694 l 158 694 l 158 739 b 404 1015 158 917 246 1015 b 608 982 528 1015 608 982 l 608 760 l 601 760 b 486 793 601 760 550 793 b 422 731 443 793 422 774 l 422 694 l 578 694 l 578 474 l 422 474 l 422 65 b 110 -271 422 -128 289 -271 "},"Ș":{"ha":850,"x_min":0,"x_max":0,"o":"m 538 610 b 415 757 538 703 492 757 b 317 679 357 757 317 724 b 808 289 317 556 808 582 b 436 -7 808 119 642 -7 b 0 374 167 -7 0 144 l 279 374 b 419 215 279 281 338 215 b 517 300 476 215 517 250 b 18 722 517 447 18 374 b 324 979 18 867 146 979 b 542 779 468 979 542 911 l 542 972 l 807 972 l 807 610 m 399 -292 l 239 -292 l 239 -278 l 347 -56 l 514 -56 l 514 -97 "},"ș":{"ha":663,"x_min":0,"x_max":0,"o":"m 367 436 b 313 514 367 488 349 514 b 268 475 286 514 268 499 b 608 214 268 394 608 418 b 308 -7 608 86 483 -7 b 1 258 128 -7 1 101 l 257 258 b 306 182 257 210 275 182 b 346 218 328 182 346 199 b 1 519 346 322 1 304 b 210 701 1 628 92 701 b 371 561 301 701 361 661 l 371 694 l 621 694 l 621 436 m 292 -292 l 132 -292 l 132 -278 l 240 -56 l 407 -56 l 407 -97 "},"Ț":{"ha":968,"x_min":0,"x_max":0,"o":"m 926 971 l 926 611 l 739 611 b 628 749 739 689 690 749 l 613 749 l 613 265 b 661 222 613 236 629 222 l 661 0 l 265 0 l 265 222 b 314 265 297 222 314 236 l 314 749 l 299 749 b 188 611 236 749 188 689 l 0 611 l 0 971 m 454 -292 l 294 -292 l 294 -278 l 403 -56 l 569 -56 l 569 -97 "},"ț":{"ha":540,"x_min":0,"x_max":0,"o":"m 465 692 l 465 496 l 313 496 l 313 278 b 376 215 313 235 333 215 b 492 260 440 215 492 260 l 499 260 l 499 38 b 294 -7 499 38 428 -7 b 49 250 147 -7 49 65 l 49 496 l 0 496 l 0 693 b 63 747 42 693 63 710 l 63 843 l 313 843 l 313 692 m 272 -292 l 113 -292 l 113 -278 l 221 -56 l 388 -56 l 388 -97 "},"ȷ":{"ha":492,"x_min":0,"x_max":0,"o":"m 186 429 b 138 472 186 458 169 472 l 138 694 l 450 694 l 450 -44 b 204 -301 450 -229 351 -301 b 0 -257 71 -301 0 -257 l 0 -35 l 7 -35 b 122 -79 7 -35 58 -79 b 186 -17 165 -79 186 -60 "},"ˆ":{"ha":571,"x_min":0,"x_max":0,"o":"m 367 979 l 529 785 l 529 743 l 324 743 l 265 864 l 206 743 l 0 743 l 0 785 l 163 979 "},"ˇ":{"ha":571,"x_min":0,"x_max":0,"o":"m 163 743 l 0 938 l 0 979 l 206 979 l 265 858 l 324 979 l 529 979 l 529 938 l 367 743 "},"˘":{"ha":467,"x_min":0,"x_max":0,"o":"m 153 1157 b 213 1093 153 1122 168 1093 b 272 1157 257 1093 272 1122 l 425 1157 b 213 972 425 1079 361 972 b 0 1157 64 972 0 1078 l 153 1157 "},"˙":{"ha":254,"x_min":0,"x_max":0,"o":"m -1 1086 b 115 1201 -1 1174 26 1201 b 233 1086 206 1201 233 1174 b 115 972 233 1000 206 972 b -1 1086 26 972 -1 1000 "},"˚":{"ha":332,"x_min":0,"x_max":0,"o":"m 1 1099 b 144 1226 1 1176 53 1226 b 290 1099 238 1226 290 1176 b 144 972 290 1021 238 972 b 1 1099 53 972 1 1021 m 106 1099 b 146 1039 106 1057 119 1039 b 185 1099 171 1039 185 1057 b 146 1158 185 1140 171 1158 b 106 1099 119 1158 106 1140 "},"˛":{"ha":307,"x_min":0,"x_max":0,"o":"m 60 65 l 144 65 l 110 -14 b 171 -89 90 -58 117 -89 b 258 -56 222 -89 258 -56 l 265 -56 l 265 -217 b 154 -250 265 -217 229 -250 b 0 -118 58 -250 0 -194 b 15 -46 0 -96 6 -71 "},"˜":{"ha":522,"x_min":0,"x_max":0,"o":"m 354 1035 b 128 1101 264 1035 214 1101 b 49 1042 75 1101 49 1042 l 0 1042 b 140 1247 0 1165 57 1247 b 349 1181 226 1247 272 1181 b 432 1240 407 1181 432 1240 l 481 1240 b 354 1035 481 1103 428 1035 "},"˝":{"ha":524,"x_min":0,"x_max":0,"o":"m 207 743 l 207 757 l 315 979 l 482 979 l 482 938 l 367 743 m 0 743 l 0 757 l 108 979 l 275 979 l 275 938 l 160 743 "},"̦":{"ha":317,"x_min":0,"x_max":0,"o":"m 0 -292 l 0 -278 l 108 -56 l 275 -56 l 275 -97 l 160 -292 "},"Ω":{"ha":836,"x_min":0,"x_max":0,"o":"m 399 681 b 196 496 272 681 196 610 b 326 315 196 404 260 315 l 326 32 l 6 32 l 6 311 l 176 311 b 0 601 110 311 0 451 b 399 979 0 821 168 979 b 794 601 628 979 794 821 b 618 311 794 451 685 311 l 789 311 l 789 32 l 468 32 l 468 315 b 599 496 535 315 599 404 b 399 681 599 610 524 681 "},"μ":{"ha":804,"x_min":0,"x_max":0,"o":"m 49 -325 l 49 429 b 0 472 49 458 32 472 l 0 694 l 313 694 l 313 296 b 382 207 313 236 342 207 b 450 300 428 207 450 246 l 450 429 b 401 472 450 458 433 472 l 401 694 l 714 694 l 714 265 b 763 222 714 236 731 222 l 763 0 l 450 0 l 450 86 b 236 -7 400 29 325 -7 l 236 -60 b 285 -103 236 -89 253 -103 l 285 -325 "},"π":{"ha":979,"x_min":0,"x_max":0,"o":"m 547 521 l 383 521 l 383 -125 l 161 -125 l 161 521 l 0 521 l 0 669 l 151 743 l 914 743 l 914 521 l 769 521 l 769 146 b 833 83 769 103 790 83 b 931 128 897 83 931 128 l 938 128 l 938 -94 b 771 -139 938 -94 885 -139 b 547 118 625 -139 547 -49 "},"฿":{"ha":903,"x_min":0,"x_max":0,"o":"m 407 222 b 563 329 503 222 563 254 b 407 432 563 400 503 432 l 347 432 l 347 222 m 401 613 b 514 683 474 613 514 638 b 413 750 514 724 474 750 l 347 750 l 347 613 m 351 0 l 0 0 l 0 222 b 49 265 32 222 49 236 l 49 707 b 0 750 49 736 32 750 l 0 972 l 351 972 l 351 1083 l 475 1083 l 475 971 b 799 731 686 958 799 869 b 692 560 799 658 763 599 b 861 307 804 508 861 419 b 475 3 861 135 732 21 l 475 -122 l 351 -122 "},"Ẁ":{"ha":1433,"x_min":0,"x_max":0,"o":"m 468 304 l 593 972 l 836 972 l 981 301 l 1079 665 b 1008 750 1094 722 1065 750 l 1008 972 l 1392 972 l 1392 750 b 1307 690 1346 750 1318 731 l 1121 0 l 747 0 l 706 308 l 647 0 l 251 0 l 69 676 b 0 750 56 729 25 750 l 0 972 l 429 972 l 429 750 b 372 661 379 750 357 715 m 685 1028 l 522 1181 l 522 1222 l 728 1222 l 836 1039 l 836 1028 "},"ẁ":{"ha":1167,"x_min":0,"x_max":0,"o":"m 378 258 l 517 694 l 639 694 l 782 257 l 828 415 b 799 472 839 454 831 472 l 799 694 l 1125 694 l 1125 472 b 1063 429 1090 472 1071 460 l 938 0 l 603 0 l 563 122 l 524 0 l 189 0 l 63 429 b 0 472 53 464 26 472 l 0 694 l 361 694 l 361 472 b 332 413 324 472 322 447 m 589 743 l 426 938 l 426 979 l 632 979 l 740 757 l 740 743 "},"Ẃ":{"ha":1433,"x_min":0,"x_max":0,"o":"m 468 304 l 593 972 l 836 972 l 981 301 l 1079 665 b 1008 750 1094 722 1065 750 l 1008 972 l 1392 972 l 1392 750 b 1307 690 1346 750 1318 731 l 1121 0 l 747 0 l 706 308 l 647 0 l 251 0 l 69 676 b 0 750 56 729 25 750 l 0 972 l 429 972 l 429 750 b 372 661 379 750 357 715 m 789 1028 l 638 1028 l 638 1039 l 746 1222 l 951 1222 l 951 1181 "},"ẃ":{"ha":1167,"x_min":0,"x_max":0,"o":"m 378 258 l 517 694 l 639 694 l 782 257 l 828 415 b 799 472 839 454 831 472 l 799 694 l 1125 694 l 1125 472 b 1063 429 1090 472 1071 460 l 938 0 l 603 0 l 563 122 l 524 0 l 189 0 l 63 429 b 0 472 53 464 26 472 l 0 694 l 361 694 l 361 472 b 332 413 324 472 322 447 m 578 743 l 426 743 l 426 757 l 535 979 l 740 979 l 740 938 "},"Ẅ":{"ha":1433,"x_min":0,"x_max":0,"o":"m 468 304 l 593 972 l 836 972 l 981 301 l 1079 665 b 1008 750 1094 722 1065 750 l 1008 972 l 1392 972 l 1392 750 b 1307 690 1346 750 1318 731 l 1121 0 l 747 0 l 706 308 l 647 0 l 251 0 l 69 676 b 0 750 56 729 25 750 l 0 972 l 429 972 l 429 750 b 372 661 379 750 357 715 m 450 1142 b 567 1257 450 1229 478 1257 b 685 1142 657 1257 685 1229 b 567 1028 685 1056 657 1028 b 450 1142 478 1028 450 1056 m 732 1142 b 849 1257 732 1229 760 1257 b 967 1142 939 1257 967 1229 b 849 1028 967 1056 939 1028 b 732 1142 760 1028 732 1056 "},"ẅ":{"ha":1167,"x_min":0,"x_max":0,"o":"m 378 258 l 517 694 l 639 694 l 782 257 l 828 415 b 799 472 839 454 831 472 l 799 694 l 1125 694 l 1125 472 b 1063 429 1090 472 1071 460 l 938 0 l 603 0 l 563 122 l 524 0 l 189 0 l 63 429 b 0 472 53 464 26 472 l 0 694 l 361 694 l 361 472 b 332 413 324 472 322 447 m 325 857 b 442 972 325 944 353 972 b 560 857 532 972 560 944 b 442 743 560 771 532 743 b 325 857 353 743 325 771 m 607 857 b 724 972 607 944 635 972 b 842 857 814 972 842 944 b 724 743 842 771 814 743 b 607 857 635 743 607 771 "},"–":{"ha":632,"x_min":0,"x_max":0,"o":"m 0 558 l 590 558 l 590 368 l 0 368 "},"—":{"ha":764,"x_min":0,"x_max":0,"o":"m 0 558 l 722 558 l 722 368 l 0 368 "},"‘":{"ha":276,"x_min":0,"x_max":0,"o":"m 199 1119 l 149 972 b 235 858 204 972 235 942 b 115 743 235 774 203 743 b 0 857 22 743 0 781 b 64 1131 0 939 64 1131 l 199 1131 "},"’":{"ha":276,"x_min":0,"x_max":0,"o":"m 36 825 l 86 972 b 0 1086 31 972 0 1003 b 119 1201 0 1171 32 1201 b 235 1088 213 1201 235 1164 b 171 814 235 1006 171 814 l 36 814 "},"‚":{"ha":276,"x_min":0,"x_max":0,"o":"m 36 -154 l 86 -7 b 0 107 31 -7 0 24 b 119 222 0 192 32 222 b 235 108 213 222 235 185 b 171 -165 235 26 171 -165 l 36 -165 "},"“":{"ha":540,"x_min":0,"x_max":0,"o":"m 199 1119 l 149 972 b 235 858 204 972 235 942 b 115 743 235 774 203 743 b 0 857 22 743 0 781 b 64 1131 0 939 64 1131 l 199 1131 m 463 1119 l 413 972 b 499 858 468 972 499 942 b 379 743 499 774 467 743 b 264 857 286 743 264 781 b 328 1131 264 939 328 1131 l 463 1131 "},"”":{"ha":540,"x_min":0,"x_max":0,"o":"m 300 825 l 350 972 b 264 1086 294 972 264 1003 b 383 1201 264 1171 296 1201 b 499 1088 476 1201 499 1164 b 435 814 499 1006 435 814 l 300 814 m 36 825 l 86 972 b 0 1086 31 972 0 1003 b 119 1201 0 1171 32 1201 b 235 1088 213 1201 235 1164 b 171 814 235 1006 171 814 l 36 814 "},"„":{"ha":540,"x_min":0,"x_max":0,"o":"m 300 -154 l 350 -7 b 264 107 294 -7 264 24 b 383 222 264 192 296 222 b 499 108 476 222 499 185 b 435 -165 499 26 435 -165 l 300 -165 m 36 -154 l 86 -7 b 0 107 31 -7 0 24 b 119 222 0 192 32 222 b 235 108 213 222 235 185 b 171 -165 235 26 171 -165 l 36 -165 "},"†":{"ha":631,"x_min":0,"x_max":0,"o":"m 0 861 l 28 861 l 192 843 l 163 1017 l 163 1042 l 426 1042 l 426 1017 l 397 843 l 560 861 l 589 861 l 589 636 l 560 636 l 386 656 l 426 36 l 426 0 l 163 0 l 163 36 l 203 656 l 28 636 l 0 636 "},"‡":{"ha":631,"x_min":0,"x_max":0,"o":"m 0 472 l 28 472 l 183 456 l 163 540 l 163 563 l 189 654 l 28 636 l 0 636 l 0 861 l 28 861 l 192 843 l 163 1017 l 163 1042 l 426 1042 l 426 1017 l 397 843 l 560 861 l 589 861 l 589 636 l 560 636 l 400 653 l 426 563 l 426 540 l 406 456 l 560 472 l 589 472 l 589 247 l 560 247 l 393 265 l 426 36 l 426 0 l 163 0 l 163 36 l 196 265 l 28 247 l 0 247 "},"•":{"ha":349,"x_min":0,"x_max":0,"o":"m 1 488 b 153 638 1 579 56 638 b 307 488 251 638 307 579 b 153 338 307 396 251 338 b 1 488 56 338 1 396 "},"…":{"ha":833,"x_min":0,"x_max":0,"o":"m 0 107 b 117 222 0 194 28 222 b 235 107 207 222 235 194 b 117 -7 235 21 207 -7 b 0 107 28 -7 0 21 m 278 107 b 394 222 278 194 306 222 b 513 107 485 222 513 194 b 394 -7 513 21 485 -7 b 278 107 306 -7 278 21 m 556 107 b 672 222 556 194 583 222 b 790 107 763 222 790 194 b 672 -7 790 21 763 -7 b 556 107 583 -7 556 21 "},"‰":{"ha":1761,"x_min":0,"x_max":0,"o":"m 565 1042 l 829 1042 l 644 0 l 381 0 m 0 799 b 238 1043 0 965 92 1043 b 476 799 386 1043 476 965 b 238 553 476 632 386 553 b 0 799 92 553 0 632 m 197 799 b 238 697 197 724 201 697 b 279 799 275 697 279 724 b 239 899 279 872 275 899 b 197 799 203 899 197 872 m 1242 239 b 1479 483 1242 406 1333 483 b 1718 239 1628 483 1718 406 b 1479 -7 1718 72 1628 -7 b 1242 239 1333 -7 1242 72 m 1439 239 b 1479 138 1439 164 1443 138 b 1521 239 1517 138 1521 164 b 1481 339 1521 313 1517 339 b 1439 239 1444 339 1439 313 m 728 239 b 965 483 728 406 819 483 b 1204 239 1114 483 1204 406 b 965 -7 1204 72 1114 -7 b 728 239 819 -7 728 72 m 925 239 b 965 138 925 164 929 138 b 1007 239 1003 138 1007 164 b 967 339 1007 313 1003 339 b 925 239 931 339 925 313 "},"‹":{"ha":399,"x_min":0,"x_max":0,"o":"m 118 467 l 357 300 l 357 75 l 315 75 l 0 361 l 0 571 l 315 857 l 357 857 l 357 632 "},"›":{"ha":399,"x_min":0,"x_max":0,"o":"m 0 857 l 42 857 l 357 571 l 357 361 l 42 75 l 0 75 l 0 300 l 239 467 l 0 632 "},"⁄":{"ha":513,"x_min":0,"x_max":0,"o":"m 207 1169 l 471 1169 l 264 0 l 0 0 "},"⁰":{"ha":285,"x_min":0,"x_max":0,"o":"m 0 893 b 121 1042 0 994 46 1042 b 242 893 196 1042 242 994 b 121 743 242 792 196 743 b 0 893 46 743 0 792 m 92 894 b 121 811 92 833 94 811 b 151 894 149 811 151 833 b 122 975 151 954 149 975 b 92 894 94 975 92 954 "},"⁴":{"ha":292,"x_min":0,"x_max":0,"o":"m 131 896 l 131 933 l 104 896 m 249 828 l 222 828 l 222 819 b 238 807 222 811 228 807 l 238 743 l 115 743 l 115 807 b 131 821 125 807 131 811 l 131 828 l 0 828 l 0 869 l 1 869 l 126 1042 l 222 1042 l 222 896 l 249 896 "},"⁵":{"ha":275,"x_min":0,"x_max":0,"o":"m 115 890 b 86 874 101 890 90 882 l 0 872 l 0 892 l 10 1043 l 100 1043 l 100 1042 l 226 1042 l 226 950 l 158 950 b 135 974 158 965 151 974 l 94 974 l 92 949 l 110 950 b 233 847 181 954 233 913 b 117 743 233 790 188 743 b 0 856 49 743 0 786 l 86 856 b 117 811 86 826 101 811 b 147 851 136 811 147 828 b 115 890 147 875 135 890 "},"⁶":{"ha":267,"x_min":0,"x_max":0,"o":"m 86 854 b 121 810 88 829 101 810 b 140 832 132 810 140 821 b 113 861 140 850 131 861 b 86 854 104 861 94 858 m 118 975 b 86 929 99 975 86 953 l 86 921 b 135 929 97 925 115 929 b 225 842 188 929 225 890 b 117 743 225 785 182 743 b 1 893 44 743 1 792 b 119 1042 1 985 44 1042 b 225 938 176 1042 225 994 l 140 938 b 118 975 140 960 133 975 "},"⁷":{"ha":264,"x_min":0,"x_max":0,"o":"m 33 743 l 113 975 l 94 975 b 69 950 78 975 69 967 l 1 950 l 1 1043 l 188 1043 l 188 1042 l 221 1042 l 221 1024 l 124 743 "},"⁸":{"ha":265,"x_min":0,"x_max":0,"o":"m 111 974 b 88 953 96 974 88 965 b 106 932 88 940 94 933 b 113 932 108 932 110 932 b 117 932 114 932 115 932 b 135 953 129 933 135 940 b 111 974 135 965 128 974 m 113 872 b 86 842 94 872 86 861 b 113 811 86 822 94 811 b 138 842 129 811 138 822 b 113 872 138 861 129 872 m 111 1042 b 214 960 169 1042 214 1010 b 192 906 214 938 206 919 b 222 838 211 890 222 867 b 113 743 222 779 176 743 b 1 838 47 743 1 779 b 32 906 1 867 13 889 b 10 960 18 919 10 938 b 111 1042 10 1010 53 1042 "},"⁹":{"ha":268,"x_min":0,"x_max":0,"o":"m 140 929 b 113 975 139 958 129 975 b 86 947 97 975 86 963 b 113 924 86 931 97 924 b 140 929 122 924 132 926 m 113 810 b 140 856 132 810 140 824 l 140 863 b 90 856 129 860 113 856 b 1 943 40 856 1 894 b 110 1042 1 1000 44 1042 b 225 892 189 1042 225 993 b 111 743 225 794 186 743 b 1 847 46 743 1 785 l 86 847 b 113 810 86 826 93 810 "},"₣":{"ha":831,"x_min":0,"x_max":0,"o":"m 500 221 l 401 221 l 401 196 b 449 167 406 176 422 167 l 449 0 l 54 0 l 54 167 b 103 210 86 167 103 181 l 103 221 l 0 221 l 0 360 l 103 360 l 103 707 b 54 750 103 736 86 750 l 54 972 l 789 972 l 789 667 l 601 667 b 503 750 601 714 560 750 l 401 750 l 401 569 l 449 569 b 492 618 478 569 492 586 l 651 618 l 651 382 l 492 382 b 449 431 492 414 478 431 l 401 431 l 401 360 l 500 360 "},"₤":{"ha":721,"x_min":0,"x_max":0,"o":"m 0 479 l 0 615 l 31 615 b 0 747 13 657 0 700 b 322 979 0 885 129 979 b 633 924 493 979 633 924 l 603 717 l 589 717 b 397 757 589 717 474 757 b 299 649 335 757 299 718 b 300 615 299 638 299 626 l 450 615 l 450 479 l 332 479 b 346 421 338 460 342 440 l 450 421 l 450 285 l 351 285 b 339 222 349 265 344 244 l 422 222 b 492 296 458 222 492 257 l 679 296 l 679 0 l 0 0 l 0 51 l 83 235 b 101 285 92 251 97 268 l 0 285 l 0 421 l 107 421 b 90 479 103 440 97 460 "},"₧":{"ha":1346,"x_min":0,"x_max":0,"o":"m 347 564 l 388 564 b 500 658 460 564 500 597 b 399 750 500 714 460 750 l 347 750 m 396 0 l 0 0 l 0 222 b 49 265 32 222 49 236 l 49 707 b 0 750 49 736 32 750 l 0 972 l 407 972 b 785 660 653 972 785 854 b 419 383 785 503 626 383 l 347 383 l 347 265 b 396 222 347 236 364 222 m 1271 692 l 1271 496 l 1118 496 l 1118 278 b 1182 215 1118 235 1139 215 b 1297 260 1246 215 1297 260 l 1304 260 l 1304 38 b 1100 -7 1304 38 1233 -7 b 854 250 953 -7 854 65 l 854 496 l 806 496 l 806 693 b 868 747 847 693 868 710 l 868 843 l 1118 843 l 1118 692 "},"€":{"ha":731,"x_min":0,"x_max":0,"o":"m 0 321 l 0 457 l 22 457 b 22 486 22 467 22 476 b 22 515 22 496 22 506 l 0 515 l 0 651 l 40 651 b 465 979 92 858 243 979 b 685 946 619 979 685 946 l 685 701 l 671 701 b 501 757 671 701 596 757 b 346 651 429 757 376 724 l 450 651 l 450 515 l 321 515 b 321 489 321 507 321 499 b 321 457 321 478 321 467 l 450 457 l 450 321 l 347 321 b 501 215 376 249 431 215 b 675 271 619 215 675 271 l 689 271 l 689 26 b 469 -7 689 26 611 -7 b 44 321 263 -7 101 124 "},"™":{"ha":721,"x_min":0,"x_max":0,"o":"m 286 1042 l 286 932 l 228 932 b 193 974 228 956 213 974 l 189 974 l 189 825 b 204 811 189 815 194 811 l 204 743 l 82 743 l 82 811 b 97 825 92 811 97 815 l 97 974 l 92 974 b 58 932 72 974 58 956 l 0 932 l 0 1042 m 664 825 b 679 811 664 815 669 811 l 679 743 l 557 743 l 557 811 b 572 825 567 811 572 815 l 572 943 l 485 743 l 468 743 l 382 940 l 382 824 b 397 811 382 815 388 811 l 397 743 l 299 743 l 299 811 b 314 824 308 811 314 815 l 314 961 b 299 974 314 971 308 974 l 299 1043 l 429 1043 l 488 908 l 546 1043 l 679 1043 l 679 974 b 664 961 669 974 664 969 "},"℮":{"ha":699,"x_min":0,"x_max":0,"o":"m 304 447 l 364 447 l 364 508 b 332 515 356 513 344 515 b 304 510 322 515 313 514 m 304 322 l 304 256 b 418 215 332 231 372 215 b 636 268 553 215 636 268 l 643 268 l 643 46 b 392 -7 643 46 556 -7 b 0 356 129 -7 0 158 b 353 703 0 565 146 703 b 657 322 554 703 657 564 "},"Ⅰ":{"ha":438,"x_min":0,"x_max":0,"o":"m 396 0 l 0 0 l 0 222 b 49 265 32 222 49 236 l 49 707 b 0 750 49 736 32 750 l 0 972 l 396 972 l 396 750 b 347 707 364 750 347 736 l 347 265 b 396 222 347 236 364 222 "},"Ⅱ":{"ha":875,"x_min":0,"x_max":0,"o":"m 396 0 l 0 0 l 0 222 b 49 265 32 222 49 236 l 49 707 b 0 750 49 736 32 750 l 0 972 l 396 972 l 396 750 b 347 707 364 750 347 736 l 347 265 b 396 222 347 236 364 222 m 833 0 l 438 0 l 438 222 b 486 265 469 222 486 236 l 486 707 b 438 750 486 736 469 750 l 438 972 l 833 972 l 833 750 b 785 707 801 750 785 736 l 785 265 b 833 222 785 236 801 222 "},"Ⅲ":{"ha":1313,"x_min":0,"x_max":0,"o":"m 396 0 l 0 0 l 0 222 b 49 265 32 222 49 236 l 49 707 b 0 750 49 736 32 750 l 0 972 l 396 972 l 396 750 b 347 707 364 750 347 736 l 347 265 b 396 222 347 236 364 222 m 833 0 l 438 0 l 438 222 b 486 265 469 222 486 236 l 486 707 b 438 750 486 736 469 750 l 438 972 l 833 972 l 833 750 b 785 707 801 750 785 736 l 785 265 b 833 222 785 236 801 222 m 1271 0 l 875 0 l 875 222 b 924 265 907 222 924 236 l 924 707 b 875 750 924 736 907 750 l 875 972 l 1271 972 l 1271 750 b 1222 707 1239 750 1222 736 l 1222 265 b 1271 222 1222 236 1239 222 "},"Ⅳ":{"ha":1372,"x_min":0,"x_max":0,"o":"m 396 0 l 0 0 l 0 222 b 49 265 32 222 49 236 l 49 707 b 0 750 49 736 32 750 l 0 972 l 396 972 l 396 750 b 347 707 364 750 347 736 l 347 265 b 396 222 347 236 364 222 m 913 278 l 1022 683 b 967 750 1033 724 1011 750 l 967 972 l 1331 972 l 1331 750 b 1246 690 1285 750 1257 731 l 1060 0 l 689 0 l 507 676 b 438 750 493 729 463 750 l 438 972 l 856 972 l 856 750 b 806 676 818 750 794 717 "},"Ⅴ":{"ha":935,"x_min":0,"x_max":0,"o":"m 475 278 l 585 683 b 529 750 596 724 574 750 l 529 972 l 893 972 l 893 750 b 808 690 847 750 819 731 l 622 0 l 251 0 l 69 676 b 0 750 56 729 25 750 l 0 972 l 418 972 l 418 750 b 368 676 381 750 357 717 "},"Ⅵ":{"ha":1372,"x_min":0,"x_max":0,"o":"m 475 278 l 585 683 b 529 750 596 724 574 750 l 529 972 l 893 972 l 893 750 b 808 690 847 750 819 731 l 622 0 l 251 0 l 69 676 b 0 750 56 729 25 750 l 0 972 l 418 972 l 418 750 b 368 676 381 750 357 717 m 1331 0 l 935 0 l 935 222 b 983 265 967 222 983 236 l 983 707 b 935 750 983 736 967 750 l 935 972 l 1331 972 l 1331 750 b 1282 707 1299 750 1282 736 l 1282 265 b 1331 222 1282 236 1299 222 "},"Ⅶ":{"ha":1810,"x_min":0,"x_max":0,"o":"m 475 278 l 585 683 b 529 750 596 724 574 750 l 529 972 l 893 972 l 893 750 b 808 690 847 750 819 731 l 622 0 l 251 0 l 69 676 b 0 750 56 729 25 750 l 0 972 l 418 972 l 418 750 b 368 676 381 750 357 717 m 1331 0 l 935 0 l 935 222 b 983 265 967 222 983 236 l 983 707 b 935 750 983 736 967 750 l 935 972 l 1331 972 l 1331 750 b 1282 707 1299 750 1282 736 l 1282 265 b 1331 222 1282 236 1299 222 m 1768 0 l 1372 0 l 1372 222 b 1421 265 1404 222 1421 236 l 1421 707 b 1372 750 1421 736 1404 750 l 1372 972 l 1768 972 l 1768 750 b 1719 707 1736 750 1719 736 l 1719 265 b 1768 222 1719 236 1736 222 "},"Ⅷ":{"ha":2247,"x_min":0,"x_max":0,"o":"m 475 278 l 585 683 b 529 750 596 724 574 750 l 529 972 l 893 972 l 893 750 b 808 690 847 750 819 731 l 622 0 l 251 0 l 69 676 b 0 750 56 729 25 750 l 0 972 l 418 972 l 418 750 b 368 676 381 750 357 717 m 1331 0 l 935 0 l 935 222 b 983 265 967 222 983 236 l 983 707 b 935 750 983 736 967 750 l 935 972 l 1331 972 l 1331 750 b 1282 707 1299 750 1282 736 l 1282 265 b 1331 222 1282 236 1299 222 m 1768 0 l 1372 0 l 1372 222 b 1421 265 1404 222 1421 236 l 1421 707 b 1372 750 1421 736 1404 750 l 1372 972 l 1768 972 l 1768 750 b 1719 707 1736 750 1719 736 l 1719 265 b 1768 222 1719 236 1736 222 m 2206 0 l 1810 0 l 1810 222 b 1858 265 1842 222 1858 236 l 1858 707 b 1810 750 1858 736 1842 750 l 1810 972 l 2206 972 l 2206 750 b 2157 707 2174 750 2157 736 l 2157 265 b 2206 222 2157 236 2174 222 "},"Ⅸ":{"ha":1457,"x_min":0,"x_max":0,"o":"m 396 0 l 0 0 l 0 222 b 49 265 32 222 49 236 l 49 707 b 0 750 49 736 32 750 l 0 972 l 396 972 l 396 750 b 347 707 364 750 347 736 l 347 265 b 396 222 347 236 364 222 m 846 286 b 865 222 817 261 828 222 l 865 0 l 438 0 l 438 222 b 489 251 454 222 465 231 l 742 476 l 500 724 b 438 750 483 740 460 750 l 438 972 l 903 972 l 903 750 b 882 694 874 750 860 717 l 931 646 l 979 686 b 960 750 1008 711 997 750 l 960 972 l 1388 972 l 1388 750 b 1336 721 1371 750 1360 742 l 1082 494 l 1301 275 b 1388 222 1344 232 1364 222 l 1388 0 l 903 0 l 903 222 b 922 292 940 222 951 261 l 890 324 "},"Ⅹ":{"ha":992,"x_min":0,"x_max":0,"o":"m 408 286 b 428 222 379 261 390 222 l 428 0 l 0 0 l 0 222 b 51 251 17 222 28 231 l 304 476 l 63 724 b 0 750 46 740 22 750 l 0 972 l 465 972 l 465 750 b 444 694 436 750 422 717 l 493 646 l 542 686 b 522 750 571 711 560 750 l 522 972 l 950 972 l 950 750 b 899 721 933 750 922 742 l 644 494 l 864 275 b 950 222 907 232 926 222 l 950 0 l 465 0 l 465 222 b 485 292 503 222 514 261 l 453 324 "},"Ⅺ":{"ha":1457,"x_min":0,"x_max":0,"o":"m 408 286 b 428 222 379 261 390 222 l 428 0 l 0 0 l 0 222 b 51 251 17 222 28 231 l 304 476 l 63 724 b 0 750 46 740 22 750 l 0 972 l 465 972 l 465 750 b 444 694 436 750 422 717 l 493 646 l 542 686 b 522 750 571 711 560 750 l 522 972 l 950 972 l 950 750 b 899 721 933 750 922 742 l 644 494 l 864 275 b 950 222 907 232 926 222 l 950 0 l 465 0 l 465 222 b 485 292 503 222 514 261 l 453 324 m 1415 0 l 1019 0 l 1019 222 b 1068 265 1051 222 1068 236 l 1068 707 b 1019 750 1068 736 1051 750 l 1019 972 l 1415 972 l 1415 750 b 1367 707 1383 750 1367 736 l 1367 265 b 1415 222 1367 236 1383 222 "},"Ⅻ":{"ha":1894,"x_min":0,"x_max":0,"o":"m 408 286 b 428 222 379 261 390 222 l 428 0 l 0 0 l 0 222 b 51 251 17 222 28 231 l 304 476 l 63 724 b 0 750 46 740 22 750 l 0 972 l 465 972 l 465 750 b 444 694 436 750 422 717 l 493 646 l 542 686 b 522 750 571 711 560 750 l 522 972 l 950 972 l 950 750 b 899 721 933 750 922 742 l 644 494 l 864 275 b 950 222 907 232 926 222 l 950 0 l 465 0 l 465 222 b 485 292 503 222 514 261 l 453 324 m 1415 0 l 1019 0 l 1019 222 b 1068 265 1051 222 1068 236 l 1068 707 b 1019 750 1068 736 1051 750 l 1019 972 l 1415 972 l 1415 750 b 1367 707 1383 750 1367 736 l 1367 265 b 1415 222 1367 236 1383 222 m 1853 0 l 1457 0 l 1457 222 b 1506 265 1489 222 1506 236 l 1506 707 b 1457 750 1506 736 1489 750 l 1457 972 l 1853 972 l 1853 750 b 1804 707 1821 750 1804 736 l 1804 265 b 1853 222 1804 236 1821 222 "},"Ⅼ":{"ha":776,"x_min":0,"x_max":0,"o":"m 0 972 l 396 972 l 396 750 b 347 707 364 750 347 736 l 347 222 l 449 222 b 547 326 500 222 547 272 l 735 326 l 735 0 l 0 0 l 0 222 b 49 265 32 222 49 236 l 49 707 b 0 750 49 736 32 750 "},"Ⅽ":{"ha":950,"x_min":0,"x_max":0,"o":"m 629 972 l 908 972 l 908 610 l 625 610 b 472 757 625 699 564 757 b 299 489 365 757 299 656 b 472 215 299 317 371 215 b 629 411 578 215 629 279 l 908 411 b 478 -7 908 151 746 -7 b 0 486 188 -7 0 178 b 422 979 0 794 169 979 b 629 779 543 979 629 897 "},"Ⅾ":{"ha":899,"x_min":0,"x_max":0,"o":"m 347 222 l 368 222 b 558 489 510 222 558 281 b 368 750 558 693 510 750 l 347 750 m 0 972 l 392 972 b 857 486 690 972 857 783 b 392 0 857 189 690 0 l 0 0 l 0 222 b 49 265 32 222 49 236 l 49 707 b 0 750 49 736 32 750 "},"Ⅿ":{"ha":1276,"x_min":0,"x_max":0,"o":"m 1186 265 b 1235 222 1186 236 1203 222 l 1235 0 l 839 0 l 839 222 b 888 265 871 222 888 236 l 888 649 l 606 0 l 549 0 l 271 638 l 271 263 b 319 222 271 235 288 222 l 319 0 l 0 0 l 0 222 b 49 263 32 222 49 235 l 49 710 b 0 750 49 738 32 750 l 0 972 l 424 972 l 614 535 l 804 972 l 1235 972 l 1235 750 b 1186 707 1203 750 1186 736 "},"ⅰ":{"ha":403,"x_min":0,"x_max":0,"o":"m 361 0 l 0 0 l 0 222 b 49 265 32 222 49 236 l 49 429 b 0 472 49 458 32 472 l 0 694 l 313 694 l 313 265 b 361 222 313 236 329 222 m 25 869 b 168 1010 25 954 76 1010 b 311 869 260 1010 311 954 b 168 729 311 783 260 729 b 25 869 76 729 25 783 "},"ⅱ":{"ha":806,"x_min":0,"x_max":0,"o":"m 361 0 l 0 0 l 0 222 b 49 265 32 222 49 236 l 49 429 b 0 472 49 458 32 472 l 0 694 l 313 694 l 313 265 b 361 222 313 236 329 222 m 764 0 l 403 0 l 403 222 b 451 265 435 222 451 236 l 451 429 b 403 472 451 458 435 472 l 403 694 l 715 694 l 715 265 b 764 222 715 236 732 222 m 25 869 b 168 1010 25 954 76 1010 b 311 869 260 1010 311 954 b 168 729 311 783 260 729 b 25 869 76 729 25 783 m 428 869 b 571 1010 428 954 479 1010 b 714 869 663 1010 714 954 b 571 729 714 783 663 729 b 428 869 479 729 428 783 "},"ⅲ":{"ha":1208,"x_min":0,"x_max":0,"o":"m 361 0 l 0 0 l 0 222 b 49 265 32 222 49 236 l 49 429 b 0 472 49 458 32 472 l 0 694 l 313 694 l 313 265 b 361 222 313 236 329 222 m 764 0 l 403 0 l 403 222 b 451 265 435 222 451 236 l 451 429 b 403 472 451 458 435 472 l 403 694 l 715 694 l 715 265 b 764 222 715 236 732 222 m 1167 0 l 806 0 l 806 222 b 854 265 838 222 854 236 l 854 429 b 806 472 854 458 838 472 l 806 694 l 1118 694 l 1118 265 b 1167 222 1118 236 1135 222 m 25 869 b 168 1010 25 954 76 1010 b 311 869 260 1010 311 954 b 168 729 311 783 260 729 b 25 869 76 729 25 783 m 428 869 b 571 1010 428 954 479 1010 b 714 869 663 1010 714 954 b 571 729 714 783 663 729 b 428 869 479 729 428 783 m 831 869 b 974 1010 831 954 882 1010 b 1117 869 1065 1010 1117 954 b 974 729 1117 783 1065 729 b 831 869 882 729 831 783 "},"ⅳ":{"ha":1183,"x_min":0,"x_max":0,"o":"m 361 0 l 0 0 l 0 222 b 49 265 32 222 49 236 l 49 429 b 0 472 49 458 32 472 l 0 694 l 313 694 l 313 265 b 361 222 313 236 329 222 m 844 415 b 815 472 857 454 847 472 l 815 694 l 1142 694 l 1142 472 b 1079 429 1107 472 1089 460 l 940 0 l 606 0 l 465 429 b 403 472 454 464 429 472 l 403 694 l 764 694 l 764 472 b 735 413 726 472 724 447 l 790 244 m 25 869 b 168 1010 25 954 76 1010 b 311 869 260 1010 311 954 b 168 729 311 783 260 729 b 25 869 76 729 25 783 "},"ⅴ":{"ha":781,"x_min":0,"x_max":0,"o":"m 442 415 b 413 472 454 454 444 472 l 413 694 l 739 694 l 739 472 b 676 429 704 472 686 460 l 538 0 l 203 0 l 63 429 b 0 472 51 464 26 472 l 0 694 l 361 694 l 361 472 b 332 413 324 472 321 447 l 388 244 "},"ⅵ":{"ha":1183,"x_min":0,"x_max":0,"o":"m 442 415 b 413 472 454 454 444 472 l 413 694 l 739 694 l 739 472 b 676 429 704 472 686 460 l 538 0 l 203 0 l 63 429 b 0 472 51 464 26 472 l 0 694 l 361 694 l 361 472 b 332 413 324 472 321 447 l 388 244 m 1142 0 l 781 0 l 781 222 b 829 265 813 222 829 236 l 829 429 b 781 472 829 458 813 472 l 781 694 l 1093 694 l 1093 265 b 1142 222 1093 236 1110 222 m 806 869 b 949 1010 806 954 857 1010 b 1092 869 1040 1010 1092 954 b 949 729 1092 783 1040 729 b 806 869 857 729 806 783 "},"ⅶ":{"ha":1586,"x_min":0,"x_max":0,"o":"m 442 415 b 413 472 454 454 444 472 l 413 694 l 739 694 l 739 472 b 676 429 704 472 686 460 l 538 0 l 203 0 l 63 429 b 0 472 51 464 26 472 l 0 694 l 361 694 l 361 472 b 332 413 324 472 321 447 l 388 244 m 1142 0 l 781 0 l 781 222 b 829 265 813 222 829 236 l 829 429 b 781 472 829 458 813 472 l 781 694 l 1093 694 l 1093 265 b 1142 222 1093 236 1110 222 m 1544 0 l 1183 0 l 1183 222 b 1232 265 1215 222 1232 236 l 1232 429 b 1183 472 1232 458 1215 472 l 1183 694 l 1496 694 l 1496 265 b 1544 222 1496 236 1513 222 m 806 869 b 949 1010 806 954 857 1010 b 1092 869 1040 1010 1092 954 b 949 729 1092 783 1040 729 b 806 869 857 729 806 783 m 1208 869 b 1351 1010 1208 954 1260 1010 b 1494 869 1443 1010 1494 954 b 1351 729 1494 783 1443 729 b 1208 869 1260 729 1208 783 "},"ⅷ":{"ha":1989,"x_min":0,"x_max":0,"o":"m 442 415 b 413 472 454 454 444 472 l 413 694 l 739 694 l 739 472 b 676 429 704 472 686 460 l 538 0 l 203 0 l 63 429 b 0 472 51 464 26 472 l 0 694 l 361 694 l 361 472 b 332 413 324 472 321 447 l 388 244 m 1142 0 l 781 0 l 781 222 b 829 265 813 222 829 236 l 829 429 b 781 472 829 458 813 472 l 781 694 l 1093 694 l 1093 265 b 1142 222 1093 236 1110 222 m 1544 0 l 1183 0 l 1183 222 b 1232 265 1215 222 1232 236 l 1232 429 b 1183 472 1232 458 1215 472 l 1183 694 l 1496 694 l 1496 265 b 1544 222 1496 236 1513 222 m 1947 0 l 1586 0 l 1586 222 b 1635 265 1618 222 1635 236 l 1635 429 b 1586 472 1635 458 1618 472 l 1586 694 l 1899 694 l 1899 265 b 1947 222 1899 236 1915 222 m 806 869 b 949 1010 806 954 857 1010 b 1092 869 1040 1010 1092 954 b 949 729 1092 783 1040 729 b 806 869 857 729 806 783 m 1208 869 b 1351 1010 1208 954 1260 1010 b 1494 869 1443 1010 1494 954 b 1351 729 1494 783 1443 729 b 1208 869 1260 729 1208 783 m 1611 869 b 1754 1010 1611 954 1663 1010 b 1897 869 1846 1010 1897 954 b 1754 729 1897 783 1846 729 b 1611 869 1663 729 1611 783 "},"ⅸ":{"ha":1256,"x_min":0,"x_max":0,"o":"m 361 0 l 0 0 l 0 222 b 49 265 32 222 49 236 l 49 429 b 0 472 49 458 32 472 l 0 694 l 313 694 l 313 265 b 361 222 313 236 329 222 m 793 260 l 758 228 b 771 189 743 214 749 189 l 771 0 l 403 0 l 403 221 b 482 251 435 221 450 229 l 599 350 l 482 440 b 403 471 449 461 435 471 l 403 694 l 771 694 l 771 503 b 758 464 749 503 742 476 l 793 436 l 831 465 b 818 504 847 478 840 504 l 818 694 l 1186 694 l 1186 472 b 1107 442 1154 472 1140 463 l 982 351 l 1107 253 b 1186 222 1140 231 1154 222 l 1186 0 l 818 0 l 818 190 b 831 229 840 190 847 215 m 25 869 b 168 1010 25 954 76 1010 b 311 869 260 1010 311 954 b 168 729 311 783 260 729 b 25 869 76 729 25 783 "},"ⅹ":{"ha":853,"x_min":0,"x_max":0,"o":"m 404 260 l 369 228 b 382 194 354 214 360 194 l 382 -1 l 0 -1 l 0 221 b 93 251 32 221 61 229 l 210 350 l 93 440 b 0 471 60 461 32 471 l 0 693 l 382 693 l 382 497 b 369 464 360 497 353 476 l 404 436 l 442 465 b 429 499 458 478 451 499 l 429 694 l 811 694 l 811 472 b 718 442 779 472 751 463 l 593 351 l 718 253 b 811 222 751 231 779 222 l 811 0 l 429 0 l 429 196 b 442 229 451 196 458 215 "},"ⅺ":{"ha":1256,"x_min":0,"x_max":0,"o":"m 390 260 l 356 228 b 368 189 340 214 346 189 l 368 0 l 0 0 l 0 221 b 79 251 32 221 47 229 l 196 350 l 79 440 b 0 471 46 461 32 471 l 0 694 l 368 694 l 368 503 b 356 464 346 503 339 476 l 390 436 l 428 465 b 415 504 444 478 438 504 l 415 694 l 783 694 l 783 472 b 704 442 751 472 738 463 l 579 351 l 704 253 b 783 222 738 231 751 222 l 783 0 l 415 0 l 415 190 b 428 229 438 190 444 215 m 1214 0 l 853 0 l 853 222 b 901 265 885 222 901 236 l 901 429 b 853 472 901 458 885 472 l 853 694 l 1165 694 l 1165 265 b 1214 222 1165 236 1182 222 m 878 869 b 1021 1010 878 954 929 1010 b 1164 869 1113 1010 1164 954 b 1021 729 1164 783 1113 729 b 878 869 929 729 878 783 "},"ⅻ":{"ha":1658,"x_min":0,"x_max":0,"o":"m 390 260 l 356 228 b 368 189 340 214 346 189 l 368 0 l 0 0 l 0 221 b 79 251 32 221 47 229 l 196 350 l 79 440 b 0 471 46 461 32 471 l 0 694 l 368 694 l 368 503 b 356 464 346 503 339 476 l 390 436 l 428 465 b 415 504 444 478 438 504 l 415 694 l 783 694 l 783 472 b 704 442 751 472 738 463 l 579 351 l 704 253 b 783 222 738 231 751 222 l 783 0 l 415 0 l 415 190 b 428 229 438 190 444 215 m 1214 0 l 853 0 l 853 222 b 901 265 885 222 901 236 l 901 429 b 853 472 901 458 885 472 l 853 694 l 1165 694 l 1165 265 b 1214 222 1165 236 1182 222 m 1617 0 l 1256 0 l 1256 222 b 1304 265 1288 222 1304 236 l 1304 429 b 1256 472 1304 458 1288 472 l 1256 694 l 1568 694 l 1568 265 b 1617 222 1568 236 1585 222 m 878 869 b 1021 1010 878 954 929 1010 b 1164 869 1113 1010 1164 954 b 1021 729 1164 783 1113 729 b 878 869 929 729 878 783 m 1281 869 b 1424 1010 1281 954 1332 1010 b 1567 869 1515 1010 1567 954 b 1424 729 1567 783 1515 729 b 1281 869 1332 729 1281 783 "},"ⅼ":{"ha":403,"x_min":0,"x_max":0,"o":"m 361 0 l 0 0 l 0 222 b 49 265 32 222 49 236 l 49 776 b 0 819 49 806 32 819 l 0 1042 l 313 1042 l 313 265 b 361 222 313 236 329 222 "},"ⅽ":{"ha":760,"x_min":0,"x_max":0,"o":"m 447 413 b 368 514 447 472 415 514 b 265 351 300 514 265 464 b 365 181 265 232 300 181 b 454 314 422 181 454 226 l 717 314 b 363 -7 717 118 579 -7 b 0 347 146 -7 0 138 b 308 701 0 558 125 701 b 453 532 404 701 453 643 l 453 694 l 717 694 l 717 413 "},"ⅾ":{"ha":771,"x_min":0,"x_max":0,"o":"m 417 394 b 346 482 417 444 397 482 b 264 351 293 482 264 424 b 346 201 264 263 289 201 b 417 278 397 201 417 233 m 681 1042 l 681 265 b 729 222 681 236 697 222 l 729 0 l 417 0 l 417 68 b 278 -7 386 21 339 -7 b 0 351 111 -7 0 139 b 278 701 0 574 111 701 b 417 642 336 701 383 681 l 417 776 b 368 819 417 806 400 819 l 368 1042 "},"∏":{"ha":749,"x_min":0,"x_max":0,"o":"m 483 -125 l 483 743 l 222 743 l 222 -125 l 0 -125 l 0 965 l 707 965 l 707 743 l 706 743 l 706 -125 "},"−":{"ha":632,"x_min":0,"x_max":0,"o":"m 0 572 l 590 572 l 590 347 l 0 347 "},"∙":{"ha":349,"x_min":0,"x_max":0,"o":"m 1 488 b 153 638 1 579 56 638 b 307 488 251 638 307 579 b 153 338 307 396 251 338 b 1 488 56 338 1 396 "},"∫":{"ha":678,"x_min":0,"x_max":0,"o":"m 450 1 b 204 -275 450 -176 363 -275 b 0 -242 81 -275 0 -242 l 0 -19 l 7 -19 b 122 -53 7 -19 58 -53 b 186 10 165 -53 186 -33 l 186 739 b 432 1015 186 917 274 1015 b 636 982 556 1015 636 982 l 636 760 l 629 760 b 514 793 629 760 578 793 b 450 731 471 793 450 774 l 450 1 "},"≈":{"ha":722,"x_min":0,"x_max":0,"o":"m 493 369 b 160 436 354 369 283 436 b 49 376 75 436 49 376 l 0 376 b 188 586 0 497 83 586 b 515 519 325 586 386 519 b 632 579 601 519 632 579 l 681 579 b 493 369 681 436 618 369 m 493 168 b 160 235 354 168 283 235 b 49 175 75 235 49 175 l 0 175 b 188 385 0 296 83 385 b 515 318 325 385 386 318 b 632 378 601 318 632 378 l 681 378 b 493 168 681 235 618 168 "},"≠":{"ha":632,"x_min":0,"x_max":0,"o":"m 0 0 l 0 14 l 71 150 l 0 150 l 0 375 l 189 375 l 238 469 l 0 469 l 0 694 l 356 694 l 410 799 l 590 799 l 590 785 l 543 694 l 590 694 l 590 469 l 425 469 l 376 375 l 590 375 l 590 150 l 258 150 l 181 0 "},"≤":{"ha":494,"x_min":0,"x_max":0,"o":"m 453 260 l 411 260 l 0 472 l 0 696 l 411 908 l 453 908 l 453 683 l 188 588 l 453 485 m 0 225 l 453 225 l 453 0 l 0 0 "},"≥":{"ha":494,"x_min":0,"x_max":0,"o":"m 0 485 l 265 588 l 0 683 l 0 908 l 42 908 l 453 696 l 453 472 l 42 260 l 0 260 m 453 0 l 0 0 l 0 225 l 453 225 "},"":{"ha":1794,"x_min":0,"x_max":0,"o":"m 536 736 b 401 779 536 736 486 779 b 326 704 353 779 326 754 l 326 694 l 536 694 m 1433 369 l 1594 369 b 1704 274 1658 369 1704 329 l 1704 265 b 1753 222 1704 236 1721 222 l 1753 0 l 1406 0 l 1406 161 b 1300 275 1406 229 1364 275 l 1288 275 l 1288 265 b 1336 222 1288 236 1304 222 l 1336 0 l 975 0 l 975 222 b 1024 265 1007 222 1024 236 l 1024 725 b 878 793 1024 725 996 793 b 800 731 835 793 800 774 l 800 694 l 956 694 l 956 474 l 800 474 l 800 283 b 876 215 800 238 826 215 l 876 -7 l 488 -7 l 488 215 b 536 258 519 215 536 229 l 536 418 b 474 472 536 456 515 472 l 326 472 l 326 283 b 403 215 326 238 353 215 l 403 -7 l 14 -7 l 14 215 b 63 258 46 215 63 229 l 63 418 b 0 472 63 456 42 472 l 0 694 l 63 694 l 63 725 b 328 1001 63 903 150 1001 b 590 924 474 1001 564 944 b 817 1015 638 983 714 1015 b 975 979 882 1015 938 997 l 975 1042 l 1336 1042 l 1336 819 b 1288 776 1304 819 1288 806 l 1288 488 l 1344 528 b 1382 599 1372 547 1382 565 l 1382 694 l 1697 694 l 1697 507 b 1604 479 1660 507 1636 500 "},"ﬀ":{"ha":1025,"x_min":0,"x_max":0,"o":"m 326 694 l 533 694 l 533 739 b 401 779 522 747 475 779 b 326 704 353 779 326 754 m 585 928 b 779 1015 626 985 692 1015 b 983 982 903 1015 983 982 l 983 760 l 976 760 b 861 793 976 760 925 793 b 797 731 818 793 797 774 l 797 694 l 953 694 l 953 474 l 797 474 l 797 283 b 874 215 797 238 824 215 l 874 -7 l 485 -7 l 485 215 b 533 258 517 215 533 229 l 533 418 b 471 472 533 456 513 472 l 326 472 l 326 283 b 403 215 326 238 353 215 l 403 -7 l 14 -7 l 14 215 b 63 258 46 215 63 229 l 63 418 b 0 472 63 456 42 472 l 0 694 l 63 694 l 63 725 b 328 1001 63 903 150 1001 b 585 928 464 1001 551 951 "},"ﬁ":{"ha":915,"x_min":0,"x_max":0,"o":"m 326 694 l 825 694 l 825 265 b 874 222 825 236 842 222 l 874 0 l 513 0 l 513 222 b 561 265 544 222 561 236 l 561 429 b 513 472 561 458 544 472 l 326 472 l 326 283 b 403 215 326 238 353 215 l 403 -7 l 14 -7 l 14 215 b 63 258 46 215 63 229 l 63 418 b 0 472 63 456 42 472 l 0 694 l 63 694 l 63 739 b 308 1015 63 917 150 1015 b 513 982 432 1015 513 982 l 513 760 l 506 760 b 390 793 506 760 454 793 b 326 731 347 793 326 774 m 538 869 b 681 1010 538 954 589 1010 b 824 869 772 1010 824 954 b 681 729 824 783 772 729 b 538 869 589 729 538 783 "},"ﬂ":{"ha":901,"x_min":0,"x_max":0,"o":"m 0 694 l 63 694 l 63 739 b 343 1015 63 917 163 1015 b 499 981 407 1015 461 999 l 499 1042 l 811 1042 l 811 265 b 860 222 811 236 828 222 l 860 0 l 499 0 l 499 222 b 547 265 531 222 547 236 l 547 731 b 404 793 538 746 501 793 b 326 731 361 793 326 774 l 326 694 l 482 694 l 482 474 l 326 474 l 326 283 b 403 215 326 238 353 215 l 403 -7 l 14 -7 l 14 215 b 63 258 46 215 63 229 l 63 418 b 0 472 63 456 42 472 "},"ﬃ":{"ha":1388,"x_min":0,"x_max":0,"o":"m 535 738 b 401 779 526 744 478 779 b 326 704 353 779 326 754 l 326 694 l 535 694 m 799 694 l 1297 694 l 1297 265 b 1346 222 1297 236 1314 222 l 1346 0 l 985 0 l 985 222 b 1033 265 1017 222 1033 236 l 1033 429 b 985 472 1033 458 1017 472 l 799 472 l 799 283 b 875 215 799 238 825 215 l 875 -7 l 486 -7 l 486 215 b 535 258 518 215 535 229 l 535 418 b 472 472 535 456 514 472 l 326 472 l 326 283 b 403 215 326 238 353 215 l 403 -7 l 14 -7 l 14 215 b 63 258 46 215 63 229 l 63 418 b 0 472 63 456 42 472 l 0 694 l 63 694 l 63 725 b 328 1001 63 903 150 1001 b 586 928 465 1001 553 951 b 781 1015 626 985 693 1015 b 985 982 904 1015 985 982 l 985 760 l 978 760 b 863 793 978 760 926 793 b 799 731 819 793 799 774 m 1010 869 b 1153 1010 1010 954 1061 1010 b 1296 869 1244 1010 1296 954 b 1153 729 1296 783 1244 729 b 1010 869 1061 729 1010 783 "},"ﬄ":{"ha":1375,"x_min":0,"x_max":0,"o":"m 536 736 b 401 779 536 736 486 779 b 326 704 353 779 326 754 l 326 694 l 536 694 m 326 472 l 326 283 b 403 215 326 238 353 215 l 403 -7 l 14 -7 l 14 215 b 63 258 46 215 63 229 l 63 418 b 0 472 63 456 42 472 l 0 694 l 63 694 l 63 725 b 328 1001 63 903 150 1001 b 590 924 474 1001 564 944 b 817 1015 638 983 714 1015 b 972 981 881 1015 935 999 l 972 1042 l 1285 1042 l 1285 265 b 1333 222 1285 236 1301 222 l 1333 0 l 972 0 l 972 222 b 1021 265 1004 222 1021 236 l 1021 731 b 878 793 1011 746 975 793 b 800 731 835 793 800 774 l 800 694 l 956 694 l 956 474 l 800 474 l 800 283 b 876 215 800 238 826 215 l 876 -7 l 488 -7 l 488 215 b 536 258 519 215 536 229 l 536 418 b 474 472 536 456 515 472 "},"ﬅ":{"ha":860,"x_min":0,"x_max":0,"o":"m 632 692 l 785 692 l 785 496 l 632 496 l 632 278 b 696 215 632 235 653 215 b 811 260 760 215 811 260 l 818 260 l 818 38 b 614 -7 818 38 747 -7 b 368 250 467 -7 368 65 l 368 496 l 319 496 l 319 693 b 382 743 360 693 381 708 b 325 793 381 772 365 793 b 264 731 285 793 264 774 l 264 -56 l 0 -56 l 0 718 b 319 1015 0 915 108 1015 b 632 717 517 1015 632 906 "}}}
